<mxfile host="Electron" modified="2023-05-24T10:12:57.558Z" agent="Mozilla/5.0 (Windows NT 10.0; Win64; x64) AppleWebKit/537.36 (KHTML, like Gecko) draw.io/21.2.8 Chrome/112.0.5615.165 Electron/24.2.0 Safari/537.36" etag="7yCfM76YhmZIrLrop8TG" version="21.2.8" type="device">
  <diagram name="Page-1" id="cW6sfVzT59f00ThRxZ2-">
    <mxGraphModel dx="2261" dy="836" grid="1" gridSize="10" guides="1" tooltips="1" connect="1" arrows="1" fold="1" page="1" pageScale="1" pageWidth="827" pageHeight="1169" math="0" shadow="0">
      <root>
        <mxCell id="0" />
        <mxCell id="1" parent="0" />
        <mxCell id="EZYDx0uQIg0YGxupYuIt-1" value="" style="shape=image;verticalLabelPosition=bottom;labelBackgroundColor=default;verticalAlign=top;aspect=fixed;imageAspect=0;image=data:image/jpeg,/9j/4AAQSkZJRgABAQEA3ADcAAD/2wBDAAMCAgMCAgMDAwMEAwMEBQgFBQQEBQoHBwYIDAoMDAsKCwsNDhIQDQ4RDgsLEBYQERMUFRUVDA8XGBYUGBIUFRT/2wBDAQMEBAUEBQkFBQkUDQsNFBQUFBQUFBQUFBQUFBQUFBQUFBQUFBQUFBQUFBQUFBQUFBQUFBQUFBQUFBQUFBQUFBT/wAARCAKSBWcDASIAAhEBAxEB/8QAHwAAAQUBAQEBAQEAAAAAAAAAAAECAwQFBgcICQoL/8QAtRAAAgEDAwIEAwUFBAQAAAF9AQIDAAQRBRIhMUEGE1FhByJxFDKBkaEII0KxwRVS0fAkM2JyggkKFhcYGRolJicoKSo0NTY3ODk6Q0RFRkdISUpTVFVWV1hZWmNkZWZnaGlqc3R1dnd4eXqDhIWGh4iJipKTlJWWl5iZmqKjpKWmp6ipqrKztLW2t7i5usLDxMXGx8jJytLT1NXW19jZ2uHi4+Tl5ufo6erx8vP09fb3+Pn6/8QAHwEAAwEBAQEBAQEBAQAAAAAAAAECAwQFBgcICQoL/8QAtREAAgECBAQDBAcFBAQAAQJ3AAECAxEEBSExBhJBUQdhcRMiMoEIFEKRobHBCSMzUvAVYnLRChYkNOEl8RcYGRomJygpKjU2Nzg5OkNERUZHSElKU1RVVldYWVpjZGVmZ2hpanN0dXZ3eHl6goOEhYaHiImKkpOUlZaXmJmaoqOkpaanqKmqsrO0tba3uLm6wsPExcbHyMnK0tPU1dbX2Nna4uPk5ebn6Onq8vP09fb3+Pn6/9oADAMBAAIRAxEAPwD9U6KKKACiiigAooooAKKKKACiiigAooooAKKKKACiiigAooooAKKKKACiiigAooooAKKKKACiiigAooooAKKKKACiuL+NX/JH/HX/AGAL/wD9J3rwrwbD8R5viR4k/wCEIvPC9va/2FoP2n/hILW6lfd9nl27fKlWgD6m3r/ep2ecV8HeF1n0W6+D/jO5khgu/Cnhq6v76Zflh+xtqSQXv/AEilaX/tkte0/AeFNS+MnjjxY0TJP4q0XS9V+ds/6P9q1CK14/h/0eKJv953oA+iaKKKACiiigAooooAKKKKACiiigAooooAKKKKACiiigAooooAKKKKACiiigAooooAKKK5v4hTavD4B8SSeHl366umXDaev/AE8eU3lf+P7aAOg3ru27vmqSvm7wXo/wcsPD/wAOtb0yayt9cuJrc2eqaf8APqt/dOv71bhlVpZd2X83zfu/Mzbdm5fPtL/aG8aXGuXN0ms3kunav4e1bVLAXsWmR2yNBD5kUtlDE7XKp/e+2/N/sJ8y0AfaVFfF3xM8a+JNa+GusaV/wsdddt9Z8Kx+IZNU0+3tVbTGW6tV8pNsW3yJUll2+buf90/z/wB2xr3x8+Iei/Eq6tLaPUL7S9G8Qad4e/fy6MlpqUU4tQ9xKrSpdee3nOyeQqxfc+RvmoA+yaK+b/Cvxm1TVLXwVaTeILebV9Q8Za3pd5b7YPNe1tv7S8pNu35dn2e1+b73Td96ul8AeKvFen/s7L401TVZPFviS68PLrqWzW0UMSSm0SXyIkiRW2bs/e3P83+6tAHtdFfG3iD4ja74J1DUPFNj4ysviPqcXgp9Qg2w20P2Xz721G/92yL9nVW3L5r7v3T7pf4l9N/Zz+I3izxRq3irRPEy6hL/AGWlpPBd6tNpct2TP5u5H/s6V4tq7EZMqjbXG7d96gD3yivmXTPij4lj12K//wCE1tdZNx4q1Tw8/hiK3gUW8EVxdBJdyr5vmxJEjtubZ5Wfl3/PXDy/F74naf4P+E0A1jWdev8Axp4e/wCEhvNT0uDRrWa3lSG0b7PD9s8qDym8+Vm3bpf7m1fugH2lRXxpeftEeNrjTPCHiO+vZ9G01dGtdU1a30OPTbpVL3EqNLcQTy+bLAyIjJ9ilZ9277/yb9qb4veKP+Fh+JrLVNVmuNIuJtW07T7e2t7C60pmgiuGWNl3LeRXCCI+b5qS27bG2ffRqAPrGivkCb4xeKbHwTrut2/iSz8PyeC9A066sfDosYBFrrS2EUvzLt3ojys1vGtvs2ujff8AuV12j+NvHUutRa3ceJ2fTB40uPDg0H7DB5L2rTMqu8oXzfNTjayts2L8yu3zUAfSNFFFABRRRQAUUUUAFFFFABRRRQAUUUUAFFFFABRRRQAUUUUAFFFFABRRRQAUUUUAFFFFABRRRQAUUUUAFFFFABRRRQAUUUUAFFFFABRRRQAUUUUAFFFFABRRRQAUUUUAFFFFABRRRQAUUUUAMprNtPPAqC8mS1tZJpW2JGu5mr82da/aS8f3eqXs6eNr6KJriXZDEIlRF3fIv3KxqVo0/iO/CYKeOnyQP0pW4Tcy7l+WnLcK/wAu5d9fk54h/by8c2cF1oMXiBdNcSfNe3VtFcXUif7TNvTb/s7K57Rf2t/iMtv9l0jxxOkMXz7LGC1iRf8AvmJKKdT2nvRMMRh5Yap7OR+xFPr8hP8AhrD4u/dbx1q3/f2L/wCIp/8Aw1Z8WP8AooWrf99Rf/EVsc5+vFFfkI/7V3xb/h8eap/wOVP/AIimSftXfF35NvjrUvvfN+9/h/74oA/X6ivyB/4ar+Lu5NvjrVNv8X73/wCwoX9qT4tqqNL481bbt+bbPQB+v1FfkF/w1L8VH+ZfHGu/+BVRt+1J8VP+h613/wADKAP2Bor8gf8Ahp/4qN/zPmt/+BT0N+098Uf+h813/wADGoA/X6ivx8/4af8Aih/0PniD/wADHpn/AA0t8TX+b/hPfEH/AIHPQB+w1FfjvJ+0n8S/+h68Qb/+wjLTP+Gjvib/AND3rv8A4MZaAP2Lor8cf+GkPiX/ABeOtd/8GMtP/wCGiviN/F448Qf+DGX/AOLoA/Yuivx0T9oH4g7ty+Ntd3/9hGX/AOLr9TPg340bxx4H0rUJ233DWsXmP/efb81AHf0UUUAFFFFABRRRQAUUUUAFFFFABRRRQAUUUUAFFFFABRRRQAUUUUAFFFFABRRRQAUUUUAFFFFABRRRQAUUUUAFFFFABRRRQAUUUUAFFFFABRRRQAUUUUAFFFFABRRRQAUUUUAFFFFABRRRQBQvrGDUrWa1uYUubWZGikikXesitkMrKe1V7XRbCxu5Z7ayt7eaRUjeSKJVZlT7itx/Dn5atXl9b6fay3VzKkEECtJJJIdqqq/eavAdL8f/ABH+O0k974DurHwF8P8AAFn4o1eya61DVV/57W9qzIkUDfwyy7mb+4KAPaV8GaD5BgXRNPSD7O1n5X2SML5D8vFjb9xv4l6Grlvo1lYXXnQWdtBKbeO18yKJVbykL7I+B91d7bV6Dc1fO3guX4keItBm8SfDr42aN8WILW5e2ks9d0q3t7eSWNtrxLPZqjRt/tOj9j91q9S+EHxitPitp2oxz6dceHfFGi3As9c8O3zZn06fG7G77rxsvzJKvyup49gD02iiigAooooAKKKKACiiigAooooAKKKKACiiigAooooAKKKKACiiigAooooAKKKKACiiigDm7DwP4c0vxFe69ZeHtLstfvhtutUt7OJLqdf9uVV3N/wI1k6j8IfCN5pOtWMOgWGmNq4n+03en2sUNw0s8TRSy7wv+s2s3ze9d1RQByWh/Djw5oGjXOlWmi2Edlfpsv4zaxf6f8u1muPk/esy8MW61PH4D8M2up6bqcPhzSotS0y2+x2N4ljEs1rB/wA8on27kT/ZXiumooA5hPBPh6PW5tXGg6amqzyrLNqC2cf2iVlRo1Zn27mbYzrnsrsM1rabptrpNjBZ2VvHa2sEaxRQQpsSNV4VVUfdXitGigDmNJ8DeHdBe4k03QdM0yW5eR7hrWzjiaVpCrS7tq/MX2Lu/vbR6VZ8M+ENF8G6b9g0DR7DQ7HzGl+y6bbJbxb2+82xBjdW9RQBxPhf4ZeHfCt5dX9rp1vLqtxLcySalcQRtdsk9xLO8Xm7dxi3yvtWr2peAPDes+HbfQdQ8P6Tf6HbLGINNurGOW1i8v7m2Jl2rs/h9KLj4j+FbTVBplx4j0mHUt237G99Es27/c3ZrpUbetAGBqfgfw/rWpaXqGpaBpd/qGltu0+8urSKWazbHWJ2XMZ/3aRvA/h7+3rzXToOljWryD7LdagLOP7RPD/zyeXbuZP9k10dFAHNzeBPDl1faTezeHdLmvdIXbptxJZxs9muP+WTbf3f/Aat/wDCO6WE2DTLXb9q+27fJXH2jdu87/f3fxferZooAKKKKACiiigAooooAKKKKACiiigAooooAKKKKACiiigAooooAKKKKACiiigAooooAKKKKACiiigAooooAKKKKACiiigAooooAKKKKACiiigAooooAKKKKACiiigAooooAKKKKACiiigAooooA5n4iXP2HwLrs/8AzzsZf/Qa/FLxDps+palLLFfNbRNu3J8//wAXX7LfHG4+x/CPxZPu2bNPlr8dJnX/AGfm+7QUpOOxzN54D0y/linvla8uFi8pndnTdU2laJZ+H2lazsdm77zo2+th3+X5Vqi9z81QSH9pK7bVgnd/+uDpTY/Pe482VVhT+FKZ9ql+fdEyJ/t0/wAygCx5g/vUK+zfVT5v4aEb7+6rAu7moudz27xbvvfx1X+aj5v79ADXvJYf9bBI/wDt2/z/APjlQpftMv7q2n/7bL5X/oVPebYvyrv/ANimJM235omT/wAfoAsW3yL8zfOzb2qZ3/3qqJMr/wASvT5N38LUAOd/l20VF838VPRGoAZJu+8rfMv8H96mPqDIvzQT/wDAF30+b5Pmaornc6/Ku/8A322UAV3vJXbaq+T/ALc1aEM277zVR2Nt3SxKm2r0O3+6tAF2Ha7fer9Rf2NtVa8+Hunru3/uFr8skT5q/SD9hO/87wPaxbvurs/8foA+u6KKKACiiigAooooAKKKKACiiigAooooAKKKKACiiigAooooAKKKKACiiigAooooAKKKKACiiigAooooAKKKKACiiigAooooAKKKKACiiigAooooAKKKKACiiigAooooAKKKKACiiigAooooA8M/a63ah8MdM8LtJJb2Xi/xHpPhu/mhfY4s7m7RLhN3+3Fvi/7a1x37YGveIPD2j+FPDUGhapbfC3ULy2sPFGu6Hc28NxBayzJBFZxI0qOqSu6LK6L8kW7b/s+xfG74aj4t/DTVvDUV+2lajIYrnTtSjHz2l5BKktvMv+5KiGvDfG3jDUv2jvhbqHwx3aT4Q+NtnPp97c+G/EM7QwyvbXcM7ywMqu8ts/lPtliVu27bQAvjqxvPg3+0Z4Kg+E3hC6vrvWNN2eJNDsbiC1sptLtfKgiuP3sq4nt96ImxfmQsrfwV6D4wt08O/tZfD3VbRD53iTQdS0XUFX+KO2aK6t3b/cZ5k/7eK5TT/wDhOvBfxMf4pfG3UvAPhLQNM0CfR45tF1O5dd0txFLl2uIov+eX8Nbfwj/tT4vfFK4+LGp6Zc6J4ct9NbR/CljfLsuLi3llSW4v5Yv+WfmtFCsSt82xN38dAH0FRRRQAUUUUAFFFFABRRRQAUUUUAFFFFABRRRQAUUUUAFFFFABRRRQAUUUUAFFFFABRRRQAUUUUAFFFFABRWP4i8R6X4T0e61XWtRttK0y1TzJ7y8lWKKNf9pm6V8CftEf8FQrbTftGh/Ca2W/uPut4h1CP90v/XvF/H/vP/3w1AH2f8Wvjh4K+Cehvqvi/XIdKi/5Z2/37if/AHIl+Zq/NL9oz/gpJ4w+JPn6R4HSTwZ4fb5WuFb/AImE6/7Tr/ql/wBlPn/26+UPGfjnXvH+vXGteJdXu9b1Wf8A1txdy73/APsU/wBisH7/AN2toxJJnuWmlaVmZ5Wbezv9+vu/9h39u+fwbNZ+AfiHqDTaE7LDp2s3LZaz/wCmUrf88v7rfw/7v3fgr7tFHKI/o1t7qO8hSWJ1dGXcrK1Wa/K79h39uyTwHNZeBPiDfM/hpv3WnatM3z2H/TKX/pl/t/wf7v3f1It7uK8hWWKRXiddysrViWWaKKKACiiigAooooAKKKKACiiigAooooAKKKKACiiigAooooAKKKKACiiigAooooAKKKKACiiigAooooAKKKKACiiigAooooAKKKKACiiigAooooAKKKKACiiigAooooAKKKKACiiigAooooAKKKKAPK/2nLz7H8CvGEm7Z/obLX48Xng+LW7x5552tvl+Z2ZP/iK/Vb9u7xI3hf8AZf8AGN7F/rfLjVV/vfOtfh5rfxd8S6xZzW09tpaRS/e2b0f/ANDoA/QTxJ4V/ZssNH021sfEut/2rFBEk6SvceU/9/5vKZt9eAfEj/hEdK8XXtt4Rn1K58NfJ9muNTj/AHrfJ8+7b/t18mzeJ/EEMzSnV5Yd38KTuqVr6b8XPEWlWKwfarO52/8ALW4DO9QXKJ7nJNbP/wAt1qxCj+a7KrJF/devCv8Ahd3iX+/pv/fqhvjZ4l/vab/36q/dI5T3pEp7otfPv/C6PEaru3ab/wB+qRfjZ4om+79i/wC/FAcp9B7F3feomTdFt3V8/wD/AAubxKn/AC30/wD78Uf8Lj8Uv/y30/8A78UF8p7m7rt+b5Kh+0xfw7n/ANxa8N/4W14l3bvPsf8Av1TH+MHij/n5tP8Av0lQRynvFnCyb2bam5t+z+7Vv+Kvnz/hcHij/nvZ/wDfhKb/AMLh8Tf8/dp/34SgOU+iP3X96nfKtfPH/C2vFP8Az+Wn/fhKd/wt3xPt/wCQhaf9+Eq+YvlPerxGfYy7d6tv2P8AxVF9si2/NuT/AGHWvBf+Fr+Knb/j+tv+/SUf8LU8Uf8AP9af9+0qA5T31Ln5flXfViH5FSvnz/haPifd/wAhC2/79JTv+FpeJ/8AoJ2//flKIyDlPolH+avvX/gn/qXnaNLB/dnZK/IZfil4pXrrNv8A9+Ur9FP+CV/jy+8QSa3BfTwTSxSq6+V/6HV8wSP1Iopv8NOoICiiigAooooAKKKKACiiigAooooAKKKKACiiigAooooAKKKKACiiigAooooAKKKKACiiigAooooAKKKKACiiigAooooAKKKKACiiigAooooAKKKKACiiigAooooAKKKKACq800drC0srrFEi5Zmbaq1Yr5v1DQ2/ad+J/iTSdZlZvhP4Ruk02XR1H7nxBqiKJZftB/jtrffEvlfdeUPu+5toA6TUf2xvgxpt9NZyfEHS5pYG2SyWfm3EKN6NLErJ/wCPV6d4T8Y6J460SHV/D2r2Wu6ZcD91eafcLPE3/Alq1pOj2WgaZbadptnBYWFrGsUFraxrFFEi/dVVXhVrwP4zfDMfCmbVvjF8NtMj0vxNpy/b/EWk2SeVbeJbJDvuElRfl+1InmtFN97f8rblegD6Qryv476P8KNS8MpJ8WIfDf8AZUDb7e48QvFH5T+sTv8AMrf7lT/ET41aX4J+CN58RrRG1SxbT4r3TrWFtr3ss+z7LEvvK8sS/wDA643wL8F9D8KmH4kfFW607XfiKkS3F54g1dk+yaN/F5Fl5ny28Sc/MvzvyzN81AHIfCPSf2T7jxfZN4MufCOo+J423Wf2y+a6uVf1gW5dm3f7lfV1eafEfQ/hz8UPCY0zxhD4f1/RbhEuol1CSKRCrtsSWN8/LuZtqup/i/CuO+Fd5r3wo+JUnwt17VbzXtBvLFtU8LatfuZLsRRMiXFhPKf9Y8W9HVvvMjn+5QB75XM+KviB4X8C26TeJPE2k+HYm+7Nq9/Faq3/AH2y1wfx4+IGv+H/APhH/CHgmOE+OfFty9vYXF0m+3063iXfdXsq5+byk+6v8TvGtReDv2Wfh34RmOraloVv4x8UyDfc+JvFEK6hqM79282UHy19ETaq0AejeGfG/h3xrZ/bPDuu6Xr1oPvXGmXkdwn/AH0jGuhrw7xp+yr4M1e6bXvCtlD8PfHMIZ7bxN4ZhWzm39f36p8txGx+8kobdW18B/iRqPj7QNSs/EtrHp3jTwzfvo+v2cIIi89UR0ni3fN5EsbJKmez4/hoA9XooooAKKKKACiiigAooooAKKKKACiiigAooooAKKKKACiiigAooooAKKKKACiiigCPeqLuZq+Tv2jf+Cg/gb4L/a9I0KRPGXiuMbPsdlKPstu3/TWX/wBkTc3+7XhH/BTv46eMvDfjbS/AWi6jcaJ4en0tbq7Nm3lPeM7suxn/ALiqn3f9qvzwdv7q1cYgeofGz9pDx18fdYa+8WazJNaI26DSbf8AdWkH+4n/ALM+5q8v3L/dqKnVqQFH3qKPMoAKKKKADzK+2v2Jf27Ln4WzWXgnx7ePc+D3/dWeoS/M+nf7Df3ov/QP92viWm79tQB/Rhp2o2+r2NveWc8V1bzqrxSxNuR1/vLWhX49/sY/tx33wPvLfwv4qnm1LwJK+xX+d5dNb++n96L+8v8A3x/t/rV4f8R6b4m0i11PSryG/wBPu41mgubeTckqN/EtZFm1RRRQAUUUUAFFFFABRRRQAUUUUAFFFFABRRRQAUUUUAFFFFABRRRQAUUUUAFFFFABRRRQAUUUUAFFFFABRRRQAUUUUAFFFFABRRRQAUUUUAFFFFABRRRQAUUUUAFFFFABRRRQAUUUUAFFFJQB8mf8FPD/AMYn63FuZPNvbVPl/wB+vw+bQ7SNtzKz/wDAq/og/aF0ix1j4a3dnqNjbanZSyIklreR74n/AOA18M+M/h78H/BOmpqGueCfD9nZNLs87+zpXTd/wHfWNSpyHRSpyqS5Yx5j8vP7BtnZ2Xds/wB6mvoMH8O7/vuv0Y+2fs8fuv8AiQ+Hf3v3f+JZcfN/45Tvt37PG2Vv7B8O7Im2N/xKbj5f/HK5vrdP+Y9T+ycf/wA+Zfcfm6+ixL/+3UX9mxf3f/Hq/S1NS/Z682KJfDXh/fKu9f8AiT3H3f8AvitjwZpvwT8cX8tnoPhDw/f3ES+bLs0eVEVf9t2SiOKjOXLEzq5biqMfa1abjH0Py5/suP8Aut/31Tf7Ni9P/Hq/X1PhF8Ptv/IheG//AABSnp8IvACP/wAiL4b/APBctbe0keUfj+mmru/+yqX+y4v8tX7Bp8LvAqfd8C+G/wDwWJT/APhWngn/AKEXwz/4LEo9pIOY/HaSxgVf/sqg+wLt3fwf71fr7N4d8E20rxf8Ky0t9v8AGmixbP8Af+/TP7K8Gf8ARNNN+X5m/wCJLb//ABdY+3On2NWevKfkIlmv+Wp/2CL+Jv8Ax6v17h0fwdN80Hw301/+uOj2/wD8XUv9ieE/k/4tzp/zfd/4llr83/kWj25p9Wq/yn5Af2fH/lqkTSov4v8A0Kv2A/sHwz/0TfT/APwWWv8A8dqZNH8PJ/zTnT//AAWWX/x2n7Yy9lI/H/8AsmH0/wDHqaulQ7sbuP8Aer9h/wCyvD21N3w709NzbF/4l1l83/kWoktvCrt5cXgXS3lZtmxLOy37v7n+tqvbDjQqz+E/IH+x7bb8rfP/AL1TW2iQbfm2v/wKv14T/hEP3Tf8ITpf73/Vf6HYfN/5Fq0n/CNJ5q/8ITpqeUyxN/odh8rt9xH/AHv3qPbGvsKv8p+QsOg227/V198f8ErLNtN8feIPKikS3aCL5/4N2+vpqzt9PeXa3hC0s/8AblsbXZ/467tXp3w0SJ9Y0qJbaC2iiaV1ht4kRP4KuMpSkclT3PdPpVPurT6Yv3KfXSYhRRRQAUUUUAFFFFABRRRQAUUUUAFFFFABRRRQAUUUUAFFFFABRRRQAUUUUAFFFFABRRRQAUUUUAFFFFABRRRQAUUUUAFFFFABRRRQAUUUUAFFFFABRRRQAUUUUAFFFFABXgf7MbJ4fu/ih4RupP8AidaT4y1G/nVvvvBfy/bLeX/dKS7P+2Tf3a98rxz4rfB6/wDEHiSx8beCNWj8M/EbTYfsiX11E81lqNru3fZbyJWXfHvO5WX50blf4lIB2fiTwTP4g17RNSTxNrekjTJvNey0+dEgv87PkuFZG3L8v8G37zVU+M3jrTfhj8LfFXivVtj6fpWnSXDQytjz2C/JEP8AadtqL/tPXBx/Fb4xabi01D4IzaneodhvdF8SWbWUj4+8vnmKVV/4BVfTvhP42+Kni3S/EfxVutNsNI0m7W90nwPosrz26XC8pPe3DBfPkT7yKiKiN83z0AcT488O33wv/ZD+ET6yJPL8E33he/1xZF+aKC3uLf7Q3/bL7/8A2yr1740eBdV8axeEb3S7fT9XbQ9bTU5dH1WXy7W/TyZotruEfDJ5qyp8jfPEn+9XoGtaJYeJtH1HSdUtIr/Tb+CS1urW4XcksTqVdG/2WX+deD+Hx8Tf2dYf+EfHh+++KngGA7NJvNMuYxrWmwdre4Sd0W5VOFWRG3bV+Ze9AHA6N+yT4y0rxp4S8UJPoTJpOozalP4faSUWP7/UpbjyE/df8u8U+6J9i/vYk+Rf4fVPikp1v9pz4L2Gny7r/R11bXL9VJylm1o1qu7/AGXnni/79f7NOuv2gfFniC3+z+DPg/4vvNSbKiXxJDFpFlA396V5X3sv/XJHrb+Dvwm1Lwbe6v4o8Y6sviT4g68UOo6hEpS1tYkB8qytEb/VwJub/adnZ25agDK1hha/tjeG3vXXyrjwXfw6aGb/AJare273H/jnlf8AfNa37SPh3xp4p+DPifT/AAJqkel6/Lp9wEL2RuJLlfIf9zF+9i8qVm2bZfm2f3TVj4z/AAou/iNp+l6hoeptoPjbw/cvf6DqzJuWKfYyNFKoPzQSo2x1/u/7VclaftYaZ4Tg+xfFTw9rPw71yD5Z2m06e802dv71veQI6Mv+/sb/AGaAO9+D+k+LvD/w70e08Y6zba3rawRl57XT2s/LXan7pk82Xc6/N8+75v7tcb8M/wDSP2ofjbPatmxjtNBtZ9v/AD+LBcO//AvKltaz9Q/aak8fW50v4OeHNT8Y6tcKETWL2wuLLRtPLcebPcSqvm7c7vKi3O3+z96u++Cfwrh+Efgv+zHvZNY1vULuXVdZ1eZNj319O26WXb/Cv8Kr/CiKvagD0eiiigAooooAKKKKACiiigAooooAKKKKACiiigAooooAKKKKACiiigAooooAKRvumlrj9c+KXhHw22pLqfifS7J9Nj828imvEV4F9WX71AH56f8ABS3R01L42aVFOy/Z20KLam351bzZfnSvgfVdNk0e8eCX/fV/7y19cftsfHjRvj98ULdvAaahfrZ2K6et2kW1GfzXfen8X8def6b+yvrVt8Pdd8S+JbltN+z2st7suG+dmVN9dMSD58opd0cypLBIs1vL910/ipKQBTadTaAHUUU2SgAplS0bWdkVVZ3b7tADY6+8v+CYvxc8RaX4y1XwdPcz3PhRrP7XFFL8yWtxuX7n93f/AHP9ivi/T/DHk/NqDfP/AM+6ff8A+BvX2H/wT9tVk8eamsSqiRQLtRP4fnqZAfqvDJ5sSt/eFSVBZ/Laxf7tT1iWFFFFABRRRQAUUUUAFFFFABRRRQAUUUUAFFFFABRRRQAUUUUAFFFFABRRRQAUUUUAFFFFABRRRQAUUUUAFFFFABRRRQAUUUUAFFFFABRRRQAUUUUAFFFFABRRRQAUUUUAFFFFABRRRQB578bU8zwFd/7618na9o9nr2k3emX0C3NldReVLC/8S19dfGJd3gHUT/d2H/x6vlh0rmqR5/dNqNSdKXPA+HPGnwlvPB/iG98Ly7pkut17ot3t/wBbt+/F/vbP/HkSqWoeHmubDxBcwL/x/wAGm3sCL/01l2P/AOP76+qPj3ZxP8N72+2/6bps9vdWs38cUvmp86/991y/9h2aazLF9mjSJbpUVE/hVdSR0T/x+vnKmFjGpyn7Dgc+q1MNGcviPB7zwxcyape22nwNc6heXn9haZCn8SxJslf/ANl/4G9fWvwo+Gln8MfC8WmQbZrtv3t5cf8APWX/AOJSuE+FGlW3/CxpZWgXzbXQLV4H/wCeTSu7yv8A8DevbkSu3C4eMfePnOJM5rYjkw8Ph3Yzy6KlqLZ81eofnY+iiijUDyz4i6JP4n1RJ7NdQs7izsbq1imSxldPNl2ff2p8y7Ef/vuq/hvwlBpWrXGp3lnqV5cNOzwQppn7r5rdIvnbytzfcf5d+2u98Q/8JCjJ/YcVjMnlNu+17/vfwVhJ/wAJ+lu/7rRvtbfOqPv+X7m9E/8AH64pRjzH0lDE1fq/JFqxX8N6Suj6bFA9tqCJL5suo29vpPlRXUr/APANyqn8OysJPCt5DF4atv7Kaa00uJUnf7G6XDMsu/5H2fKv+5tZv7+2u41ibxZDdO2mRaW9v/zymV9/+qT/AG/7+/8A8cqkj+Pbmzinli02w2/OyTNs/wBxH+//AJ2VEom9OVVe9dG5/wAJI3/QH1f/AMBf/s6X/hIP+oRq3/gL/wDZ1iQw+P4V3T3OieVt3y/K/wAvyJ9z/Z+/XV6IlzDpdpBfTrNqCxL57p/E1axlKR5tenGnHm0kcvryLrGqaFff2RqSS6XdfaN72fzsux02ff8A9tP++K4+HwTqH9m3e22nsNYaeKW1vrHTHRIFXemzyv8Acd/9pv469n8l6XbuXb9zcv8AA1OVPnKo5hLDx5VA83h0lZl0KK58PSJp+ks3lQ/2dveVV+S33v8A+PMn96ufT4e3zvd+e2pXP9pSxXGpp/Znlea0Vwku9GV/99P93Z/crpdeudZ0rWdPsb7xH/ZumeVK8Wp+V/r/ALnyXDq6bfv/AH/4qpTatfaPJp8Hh/Xl164a6VG0+3V7hNrffeV2ll8r/wBmrCUY/Ce5RlV5OeDXvev5nYeA4Z9N0uLTJ4tQd4mlf7Rdr/D5ruib2d2+RH2/8Ar2X4XJ/wAVBp/+63/sledaXZz2FntnvJb+4Zt7TP8A+yJ/Cv8AdSvTfhQn/FR6f/1yb/0OvQoR5T5HE1PaVbn0Uv3RS0UV2HMFFFFABRRRQAUUUUAFFFFABRRRQAUUUUAFFFFABRRRQAUUUUAFFFFABRRRQAUUUUAFFFFABRRRQAUUUUAFFFFABRRRQAUUUUAFFFFABRRRQAUUUUAFFFFABRRRQAUUUUAFFFFABRRRQBBNMsMbSSsqRqu5mb+GvnX/AIWz49+MkU+ofDj+x/B3w8iVmXxx4oge4a/VPvS2tpvixbj/AJ7yv839zb81b/7XTy6l8K9P8KrPJaweMPEOl+Gry4hba62tzdIlxt/3ot6f8Drjv25PGvg/4f8A7NviDwRe3tppmoa7pM1joWjrE+bnytn7qJUX+FWSgCxpMnxftboyeHvjR4G+Jl5GolfQdQ0aKy82L+LZcWtw7R9vmaJ15r034QfGS2+KUOr6fd6Xc+GPGGhzLb614dvW3S2UjLuRlfG2WJ1+ZJV+Vq8L+Ks3ww/Zl/aS+FPiG5sNB+Huhz6Lr1pdX1jp6WsUsrPp/lI/lJ/v7d1eg/FQR+Gv2ivgt4n0wIZvENzeeF9QZf8Al4s2sri8i/74lt93/bRv71AH0DRRRQAUUUUAFFFFABRRRQAUUUUAFFFFABRRRQAUUUUAFFFFABRRRQAUUUUAFFFFABVG+voNNtJbq5ljt7eJWeSWR9qIv95qvV8p/wDBRm61PS/2fpdTs4prrT7C9im1O1h/5a2+GT5/9neyUAeQftRf8FDH8y78J/CmXzpj+6uPESrx/wBu/wD8X/3z/er5C8K+A9T8VXVxfav5k32rc91fXbb3Zm+/8/8AHWr4Nv8AwYkX9qt8iMqyrC/9xv7lV/FvxRvteX+yPDUE/my/Iv2dd7t/uJWoHrFh4z+FP7OvhL7Yyx3+uquxrdPndWr56+Knxs8f/tAr5E7N4e8KSrvW3T/luv8A7NRrfwc8S6JFb654o0VoYrhv3X2ht+1v9tP71ZP2yLQbN/NWebT929reFU/cfJ87p/45uSggq6P4P0q20n7DFF8/8X99m/v/AO9XM6ro8uj3XlTtvRvnidf4q7O2mXck8E6zRN88U0LfI1Xb+2i16LZcrvdvn3p/6HVkcx5fRV7VdHn0q68qRfkb54pv71Uf4aCwoqxbWE95L5UETO9dHpvhhbVd0/76X+5/Av8A8VQBlabojX+xmbZbt96bb/6B/erdtrO2sN/2ZWT+Bpn+/V10bdVdvk+98lBI3/br7A/4J12zTeLddn2/J/o6b/8Avuvlnwr4M1L4ieILLQ/CGlah4n1Kf55U0+LfFEv993+7X1R/wT08N694P+LXjax1yKewliaKKXSXl3/ZZVd//Hqy9pGfulezlE/UC3/1Kf7tTVHD/q0+lSVBYUUUUAFFFFABRRRQAUUUUAFFFFABRRRQAUUUUAFFFFABRRRQAUUUUAFFFFABRRRQAUUUUAFFFFABRRRQAUUUUAFFFFABRRRQAUUUUAFFFFABRRRQAUUUUAFFFFABRRRQAUUUUAFFFFAHGfFSPd4D1P8A3f8A2avjzxh4hbwlocuq/YZ7+3t2Xz0t/vrF/G/+1sr7M+JS7/Beqj/plmvku/tlvLW4glXfFcK0T/7rVzVObl902pSjGpH2nwnlV5480j4l2/8AYFzpV9/ZWsxXT2t2kqJ58Vrsfen91Xf7tZT+OfCu7wvfT2OoI/iBlumfzU2WatcJseX/AGXlRFrvb/4XaLc6Xo9jF9us/wCyYmt7O4tLp4pYomTY6b/4lesqb4G+ELmLyp9MaZFtVtYt87/uIl+55X91v4q82VOsfW08Zl0Y8usUYPhjxP4e034pXemWemX0N6yrpDTXF5Fv2xb3R/s/3tv+3XV+APijp/j+/wBVs7OCe2ewb5Xm/wCW8W9081P9nelMufg5oNzdJPPLqU21vNWGa+d0WXZs81P9r/Oyrfhj4V+HPB+oW99pFj9gu4oPsu+Fv9av/TX+83+3RGNWMjLGV8txFP3L81jraKfRXWfIjP4aP4afTKAOK8eW2i3N1af2r4hvtHdYGRUtJ/K3K3yf3P79c5c6J4Xkuv3virWfmi81ZvPfZsX+6+z+PZ/wKu51C5+0yus/hq5v0X5Fd1tXRl3/AO1LVb9w+9W8HSfN9791ZfN/5FrnlH3j36FZ06XL/kc1ND4M/sa6WXxHd/Z7idbprvzX3qyo6p+92f7dVPs3gdLhFbXtWvPmilZPNd0Xbs2fwfL/AJ+7XXTWdtczW8reDJ3e33eV/wAeuxd33/k83bV1H+bcvg5kf7+//Q//AI7UeyZ0fWYx6v70cU6eDr+K71r+19Wmt7if7PP+9d0iZkf+8n9zf8/zf79V3ufAttYXdmur3eyW6+0NdurukUqo6I+/Z/t/+gfPXoXnS+Vt/wCETbZv37N1r9//AL7pu5/+hQb/AMlf/i6v2ZMcTH7V/vRx+iaD4X1XUolXxHql5cSzq8CJLLFuZUT/AGPm/vt/d3/w16r/ABVy8dy0N1FOvhO5SWJWSJ1ltU27vv8A/LX/AGErpYZmmiiZomhdl3tE/wDD/sfLW8eWJ5eJqe0kcr4kv/7V1a00jT44Lm4Zmtbqa4i823gVovuMn8TfJ/qv++/9rn5rzR/hRq2laHPqEc1pdXS3WyZt99F8jpvf/nqv+3/Ds/u/d7p/DemTaWmmtZr9iVt6wozp8339+/71V/8AhAPDk2s2uqtpFs+p2v8Aqrjb86/3P9ms5U5S+E78NjKUYeznflN6GaK5iSeKVXhlXero29GWvTfhKn/FR2X/AFw/9nry+w02202LyLOCO2i3M+yFfk3N9+vVfhEn/FR2/wD16/8As712Uv7x4dTl5/cPfqKKK6TMKKKKACiiigAooooAKKKKACiiigAooooAKKKKACiiigAooooAKKKKACiiigAooooAKKKKACiiigAooooAKKKKACiiigAooooAKKKKACiiigAooooAKKKKACiiigAooooAKKKKACiiigDzz46fDeb4r/DDVvD9nff2Vq7mK703Udu77HewSpPby/8AAZYkNeTzaxpn7S/hf/hHtRuX+H3xq8LS/ao7Njsu9I1BV2rcRbv9fZy5K7l+SWJ3Xhvu/TdcP4++EPgv4pwQr4s8M2Gsy24zBcTw4uIP+uUq/On/AAFqAPDrGy8UfGLV7HWvjTodv4F8FeCXWWfS9QvIjaazqkX/AC+u5P8Ax5xfeiV/vM25vuVveB9Sm/aC+L2j/ESGwnh8AeFbW6i8N3l5F5T6teTjypr2JG+ZYFi3xIzY3+a7fd2lt7Qf2QfhPpF5DeP4Wk1qaJvNiTxJqd1q6RP/AHkS6llVf+A17NHGkMaxxhURV2qq/wANAE9FJRuFAC0UUUAFFFFABRRRQAUUUUAFFFFABRRRQAUUUUAFFFFABRRRQAUUUUAFFFFABWB4v8M2fjDw9e6PqEC3VneRNDLE6/KytW/RQB+bOvf8E7rGz8URRW15cpoVvuSKxt1RH/77/wDsK+g/hX+yfovg+122emQ2Ct/rWRfnf/ff7zV9OvbxO25lWn7VSgDyzxZ8BfD3iTwjd6Ld2azW9xFsZa/K349/A3Vfgh4wl0+8iabTLhmexvtn+tX+5/vV+1FeV/HT4K6L8ZPB93pWpQb9y7opk+/E/wDCy1cZAfhbeeb4SuPtlssk2js2+6t0/wCWDf8APVP8/wD2PVw36vbxSxMs0Uq71mT7jLXW/GD4V6v8IvGF3oOr2371dzxXG35LqL+B0/8AZkrxqa/Xw3fyrbN52mXDfvbdF/49W/vp/wCzJWpkdbrdzbXlk63K7/m+XZ8j7v8AYrn7HR4pr+KLzZHRm+5trPmmuftkUVyy7G2yxOjfJKv99K6jRLV7rWbeKL77N8tAG3Do62Fv5US7E2/cSj7NOn/LJnroJtE1rR4kuZbFtjf89lq38GZtX/aB+JVp4A8NT6bo+oS7vNvtQ+4qr994l/ib/YrnlW5Y8xrGmco/jDRfDssS6nB975FT+81ep6x+yd8TvGHwhvfHN9p+l+EtA8pbiKG4lf7Q1q3/AC1dU/4BXM/tq/sx2PwF8UaJZy+JZfEkt/B5qu8CRJEy/I6bE/2/m/4HX0H8GfiJrvj79kfUfDWoXcl5FbW1/pse753dfK3Iv/j1efWrcvvROqnH7J5D/wAE7/i5qXwd+I2p+HLaf7ZpmswS70m/hniTejr/AOP/APfdfaPwNtpNS+PXjjXpF+fUpbVmb+83lV8g/sY/st+Km8ZaL4h1pf7HiZmSC0mX9826J03t/dWv0I+D/hK88PeI5Yr6JUdm3xTI29JV/vo9RHmjXD7B9Bp91afRRXpnKFFFFABRRRQAUUUUAFFFFABRRRQAUUUUAFFFFABRRRQAUUUUAFFFFABRRRQAUUUUAFFFFABRRRQAUUUUAFFFFABRRRQAUUUUAFFFFABRRRQAUUUUAFFFFABRRRQAUUUUAFFFFABRRRQBzfxBTf4N1Zf+mDV8lyV9eeNE8zwrqa/9MGr44mvIt331rGQEslNqt9si/wCeq/8AfVN+3xf89f8Ax6stQLrvRVL7fF/z1X/vqnpfxf8APVaNQLvmUx3qr9sg/wCeq0x7+D/nqtGoF3zKb5lUv7Qg/wCeq0f2lB/eWjUDO8ReIV02J4IJdl6y71+XftXf87/3fk/26xbi51Oz+13itqyae0S/Y5bi6+fzf9uJn+dXf+DZ/wChVa8SQtftutp28q4X7PeQw7PNaL/Y3fLu/wDZXrKufPkt7fT5f7UfSllVIkh+zpcL8ibN/wDD5X3/APgWyuWXNzHt4b2cYancaJqX2+zRpWZ7uL5J0eLyn83/AHP4azNb8T3mlXjxRWavFu+SbZcP/wCOJF/7PTfD26zilnvLn7Td3DfNvZH2qv3E+VEpmt6TZ6xcRS+fHC8Tb2fyEfd8nyferX3uU4Y+yjX/ALpXsPHkry/6ZZslv83zw2t1v3L/ALDRf7dasPjTTpGiXytQTzfu79OuE/8AZK59PCVsjSr/AGhH9nl+/CtnEnzf79Ns/B9tZy+fFqCpcRNvidLOL5ay9875fVJnQP450qGVFb7cjt/043H/AMRWhYeIbPVW22zSO+3f88TJ/wChJWJ/xNfK2r4l+f8Av/YYq0LC5ltrfbeXn2yXd/rvK2VtHmPOqRpRj7ozxDr0+mzWiwSrCku7du2f30RPnb7q/PWVbeObz7fEsu17ddryuiom5W+58+/av+//ALlS63uvNSstu57fa0U7wts2rvib+/u/g/gqrqVq1tqVvLp8DOir8z+ajvu+fe77n+b7/wDfqJcx24f2XLGMjutN1KLVbVZ4t2zcyMj/AMLL9+vYPg2n/E+X/ZtVrwLwrt0rS0gaVd+5nZN2/Z/cT/vivoD4Jyedqzsv3fIirppnm1eXn9w9zooorpMQooooAKKKKACiiigAooooAKKKKACiiigAooooAKKKKACiiigAooooAKKKKACiiigAooooAKKKKACiiigAooooAKKKKACiiigAooooAKKKKACiiigAooooAKKKKACiiigAooooAKKKKACiiigAooprZ2nHWgCIY4zxjtTHwzbQc9yMV8f/ABf+M3xe/Z78aW9/rkFt4l8BSS4+021t5Mqp/dYqcLJ/463tX0j8Mfip4e+LXhuDW/D1+t3bSDa6fdkibHKuv8LVx08TCpUlS2kj38ZkeKwmFp43SVKf2o6q/Z9n6ncL0paSjIrsPAGK3vS/SoyDtyeD0rCa6uNNuj5p3wyHhvSvnsyzWOWckqsHyS3fb1NYw59joadwKr29wtzGrocg88VP+lezRrQrwU4O6Zm1YdRRRXQIKKKKACiiigAooooAKKKKACiiigAooooAKKKKACiiigAoorlfHnxC0D4b+HbrXPEWpQ6bptv96aV/vNz8qr/E3+zQB0c00dvG8srKiINzM38NeNeJv2tvhB4X8O6xrFz480ye30uX7PPFazebK0v9xEX5n/4D8tfDH7R37X3i79oCa78P+F1n8N+Ct3lSp9y4v1/6at/Av+zXk/hv4RQfY/8ATlj+zsvzPcL8/wDwCr5QGftgftXav+1FeRad4c8Lx+HvD9lL5sF3cLv1Cf8A33X/AFS/7Cf9918pJrFz4Yt/Intmtr376u/31/26+4/7e8D+CYrfTPCuh/29rdwvyIkXmvurM1X9i3xV8co7vWtcvI9H1XyG+w2lpBvRW/6av/d/3Kog+R/CWvW2q6lKuqxSPabvtDTWipvtWb+NU/u7/vJ/6DXUJ4qi8Mat9ss5Ptktq2+L5WTdVR/hvq/w78UXGn6xZyaVqthL5U9u/wDC38Do/wDEr/w1Kk0WlLdtHbQebcL5TO6/OtOXwjPub9mf9nfwp8ePhfe/EHxh4y1DUrq8Seyi0m0la3Swbb9xkX5t/wB2vjLwZfr4H+NOn3mlRNpU2k6su1E+/Ftl+evp39hW5uf+EZ8YWcSyfYreW3uGbd8is29Nmz/gH/jldn4A/Yt0zUvHXiPxVfK2q3F5fXF7a2+3bFBud3T/AHmrwYa1JUzul8MZGT+1X8HNe+OmqeEotMljSW1nn+1Xdw3+qiZE/h/i+5XufwN/Zji8F/DH+xbG8nfUvt3m77iL/W7kTf8Ad+6vyV7FqXgPSNN1a01pW+zJK8X+iO2/du++/wDs11fjjTru3sYtQ0Zm2+Vtntlf5Z0/+KWlGMp0OX7UQlL3+Yz/AAZ4Mgh8KzNbbU1CL7s23fsZa8i1j4leKtB+Jdvc3iM/lf6O2np9zb/s12Hwc8YahZ+ILvTpVb+z5W3rv++rV6n4o+G+n+JLqK8eJfNT+Ot/ZyxMYy+GRHNySlE6fRdSTWNPiuo/4lrRrM0TSk0eySBf4a069I5gooooAKKKKACiiigAooooAKKKKACiiigAooooAKKKKACiiigAooooAKKKKACiiigAooooAKKKKACiiigAooooAKKKKACiiigAooooAKKKKACiiigAooooAKKKKACiiigAooooAKKKKAMjxUu/w7qY/wCmD/8AoNfB15ebLh/m/ir7215fM0PUF/vQP/6DX5536TpdS/um+838Nc1QCw95s/jpv26s94Z/+eTf980JbXP/ADyb/vmp1IND7ZR9u/2qz/sFzt/1Tf8AfNOSwuf+eDf981kBe+2UfbKqfYbz/nhJ/wB80f2def8APBqALH2v/ao+2VX+wXf/ADyb/vmj+zbz/ni3/fNAzn5tSsftEu7xZPD83+pS6t/l/wDHKr3OpWqWsrQeMZ/tG391vurfZu/2/krqP7Ku/wDng3/fNH9l33/PvL/3zTlE7o1uQ8kfxx4oW3+WdprhoN6/8TG3RFZtnyO/+x8+7/cp6ePPEP2x182d7f7VF/zFokdbf+P+P5m+5Xraabff88JP++acmm33/PKSsvZv+Y9GOZUv+fKOHv8AxC0N1KsGvXjxK3yv9uR/l+T5/vp/t/JVJPEl87Ju1zydzfx6j8i/5+SvSP7Nvm/hko/su+/55yVXKc8cZCPu8p51D4tvPNRv7cldF+9/xMYkf+D7n/j/AM9OTxVefZ9za83m+Uu6FL6L73z7/m/u/c/77r0P+x77/nnJTLnQb65t5Yv9Jh81dm+FnR/++6fKH1ul/KcPYeJ2mukiu/EMiWjbv3yX0SP/AMDT/brYTWNK3f8AI2X3/gcn/wARWgngm+/5+9Zfd/0+NT5PBNy8rt9p1ZN38KXkqJS98JVqE5fyl3w9qVtMsrW2pz6kn8TzT+btr6o+Afz3Dt/0wi/9Ar5dttEvoYki2zvtX78zO7/9919VfAWFoZLhX+8qKv8A44ldNM82UuaR7dRRRXSQFFFFABRRRQAUUUUAFFFFABRRRQAUUUUAFFFFABRRRQAUUUUAFFFFABRRRQAUUUUAFFFFABRRRQAUUUUAFFFFABRRRQAUUUUAFFFFABRRRQAUUUUAFFFFABRRRQAUUUUAFFFFABRRRQAUUUUAFFFFAGH4h8PWHirSbjTdTto72xuE2SxSrlXWvhv4lfBXxl+yd4qn8dfDKa4vPDDfPf6S5aTZH/dK/wASf7X3lr75fPbA96SSNZ0KsNy/7QrhxOHWIWnuyWzPo8nzyvlMpQtz0pfFCXwy/wCD5nkXwE/aG8PfHbQxcafKtrqduP8AS9Nmb97E3/sw/wBoV68PlyepzXxd8d/2TtV8I64PiJ8IZZdM1u3dp59LtW2pJ/eKKPX+KP7rV3v7Nv7WmnfFaOPw9r6DRvGdv8k1pNlFnK/eaPd3/wBn7wrGhiJRl7Gv8X5nsZlkdDFUJZnkz5qX2o/ah6912Z9MdahuLdbhCjDIPFTDBX1pf0rsrUYV4OnUXus+GTsc20M+jzeYg3wN95a2bO8iu1DRnj61NPGsibWGVNYV1Yy6XN59vzH3Wvz6rRxXDNT2uHXtMM/iXWPmvI6OaNb4viOhoqjp+oJex5H3qu19zg8ZQx1KNahK8Wc8oyjK0iSikpa9AkKKKKACiiigAooooAKKKKACiiigAooooAKKKKACvhv/AIKbQ6no/hfwn4sjtGv9C0ueW31GFV3rEsuzbLt/4BX3JXMePvBun+PPDN/o2p2q3dldRNFLC/3WWgD8htK8beGtB0NNQtoPtNw3zrbv/DWI+seM/ipceRpGn3Myfd2W67Il/wB9/u19oW37BPh7S/EfmrZz39uvyRQ3Ev7qJf8Ac/8Ai6+gvBv7P+maHaxRNBFDFF8qwwrtVa25iT56/ZL/AGb5dD0NP7Xtrb+1ZZWeeaFf4f4E319l6D4J07RLfy4oFrQ0fQbPRItltEqVp1iUfLP7V37IOh/G63t9Ri3abrtn/qL63i3vt/uOn8S18i6J/wAE9dQfWUi1rV2ubJW+aG0g8p5f+B1+rrpuqv8AYIN27yFq+YD55+EHwR0j4T6HNpUGm2lnp95B5WyX7u5f77feZq73wDZ6VomrXem2LN9n/wCWTS/+P13fiDRV1jTXg+5/drw280rXtN8VWir5nlRN99P4q82UJxrc0DpjKMo8sjY+JGg32iNLLZxedbytvVP+eVdb8K7+81Xw8kGoLvdF2b3Wuwt7RNS02JbyPe+35qtWenQWKbYIlStKdCNOftERKpKUeWRi2fgfTLO/+1LEvmtXSKNqgU6iusxCiiigAooooAKKKKACiiigAooooAKKKKACiiigAooooAKKKKACiiigAooooAKKKKACiiigAooooAKKKKACiiigAooooAKKKKACiiigAooooAKKKKACiiigAooooAKKKKACiiigAooooAKKKKAIbmHzoXj/AL1fP/iT4FahNqksunssNuzbtm2voailZAfMP/Ch9e/5+V/79LT/APhQuvf8/n/kJa+m6KnlA+ZP+FD69/z8r/36Wnr8B/EMf/L9/wCQlr6YrMbXtNXUBp7X9ot6Rn7M06eb/wB8ZzRygfPn/CivEP8Az/f+Qk/+Ipf+FEeIP+f5v+/S19K0m2jlA+a/+FEeIP8An+b/AL9LTv8AhRPiD/oIf+Qk/wDiK+k6KXLED5r/AOFE69/z/f8AkJP/AIil/wCFD69/z/N/3ylfSdFPlA+b/wDhQ+vf9BBv++Uo/wCFB69/0EG/75WvpCijlA+b/wDhQevf9BGT/vlKE+Amuf8AQQk/75SvpCijlA+b/wDhQuuf9BGSj/hQuuf9BGSvf7jVLSzkSOe6hhmb7qyyKrNV1ZMij3SnGSV2fOH/AAz7rn/QQko/4Z913/oJz19J0UcpJ83p8AdcRty6nPXqnw18Dy+Ebebz5WmmlbeztXeUVYBRRRQAUUUUAFFFFABRRRQAUUUUAFFFFABRRRQAUUUUAFFFFABRRRQAUUUUAFFFFABRRRQAUUUUAFFFFABRRRQAUUUUAFFFFABRRRQAUUUUAFFFFABRRRQAUUUUAFFFFABRRRQAUUUUAFFFFABRRRQAUUUUAJRS0UAQSZKYA3GvmD9pL9kW0+JLP4n8KP8A2L42t8SxzQsYluGXO3dt+63bzOtfT7n5RmkZR83BPHrWFahDEQ5JnqZbmmKyrELEYWVn+D8n5Hxz+z/+11f6frg+H/xWjbRvE1u6W8eoTqI1lb+FH/usf4W+63/oX2KsizRh0IdWGRg141+0F+zb4d+O2ikToNP16Ff9D1SJPnQ/3W/vL/s186/Cr9oDxd+zX4nj+H/xVjmn0ZZNllq7fP5cf8Lb/wCNP/Hl/wDHa82NWrhJezr6x6S/zPs8Rl+D4joyxuUrkrrWdL/26Hl5H3rSFQeDyKzdH1i012xgu7OeK5tpU8xJon3KynuGrT9M17DipI/OpRlTlyyWpg6hpsltJ9otPlZfvIO9WtP1RLyPaSVkX7y+laTLuXGax9Q0klvtFv8ALMv61+e4rLsTkteWPyxc1N/HT/WPZ+R0RlGpHlma/G4etPrI03VhNiKf5Za1h+dfVZbmVDM6Kq0JX/NeTMZRlB2ZJRXHeLPiNong3VdM07Umv5NQ1GOWe1g0/S7q9kdItglbbBE+3b5qfe/vUeF/iFo3jKCOTR5ry4SR7iF2ksJ4vs80DqksUu9F8qQM/wBx9rN823O049kzOxoory+x+PXhDUJrfyb3Ult7i/fTItQuNFvIrN7lJmg8v7Q0Qi/1qsn3vmb7tAHqFFY+m6kuoQzGP7QPJme2Yz20kPzq20ld6ruX/aX5W/hqpfeLdN0nUorO8nnglmuYrSIy2sipJLKrsio+3a/Ctnaflx82KAOjorH17WbTw3o2oarfy+RY2MElzcy7WbbGi7nbavooNaiyB1Vl+61AElFFFABRRRQAUUUUAFI3SlooA+b/ANsj42a/8E/BOkal4dW0+2Xd+sEn2yMyLs8uVuzD+7XtngvU59c8L6VfXJHn3FtHJIyjqzIpr5Z/4KVx/wDFsfDb9/7WUf8AkCavqH4eyK3gbQQvG2xhz/3wtebTqSlipxXw2R9ljcJQp5BhMRGPvylNN+lrHU0UUV6R8aFfFf7Gf7Vnjn47/Hv4y+D/ABL/AGb/AGR4SupYNP8AsVt5UrBbqWIeY275vlQdlr7Ur8x/+CYf/J3X7TX/AGEZf/ThcUAfpxVZrGCRt7RLuqzRQAwcVlajqElteWyKPlZjurVxxxXPaz/yELX/AHv/AGYV8hxNiquFwanRlyvmj+aN6UVKWp0S/dFOpsf3RTq+rhrFMwCiiitACiiigAooooAKKKKACiiigAooooAKKKKACiiigAooooAKKKKACiiigAooooAKKKKACiiigAooooAKKKKACiiigAooooAKKKKACiiigAooooAKKKKACiiigAooooAKKKKACiiigAooooAKKKKACiiigAr8yfix/wApnvhr/wBgyL/0iu6/TavzM+L3/KZz4af9gyL/ANJLugD9M6KKb/DQBw/hn41eAvHGs3GjeG/HHhvXtXhDeZp+l6vBdXEe3726JH3DFd1XwD8J9ds59A+EEcHjTwTr19p2vwY8J6PZKuupvaWJ2lnW6lb90sjSt+6i3LFtbbmux0D4oa34u8faPaQ+N7u/svEcut2V5pYvbU3FqqW9w0P+ixW7/ZWTykVN87M3z70ZvuAH2DHewzMmyaNtyeau1/vL/e/3auV8F+EdavfA/g2DXPC3im61HXl+Fuk/YIp7lJ03JPcJdOqrE+/7Lu3bdjbP4kf7tdjofjLxhqk1xpNj8R7fVdKn1bR7NdU0jU11W6gacy/aIvtP2KCD51WJlUbnjZ2+6jItAH1fY6ra30t3HbXcVzJazfZ7hY5FbypdqNsb+621lbb/ALValfInjLx34u0XxBNoUfiVdH8Pr4mubK88Q6pqEWm/6qwsnht3uvssqI8ryyv9xd3lbVdfuN7l8CdX1fXvhdol/reqW+t38olX+1LRX23USTOsUuWii3M0SpuZY1R2yyDYy0Aek0UUlAHwz+21J5v7Qvwei/6fY/8A0ohr7gh/1cf+6K+Fv2yj5v7UHwki9bq1P/k6lfdNv/ql+grycL/Hrf4l+R95n9o5VliX8kv/AEpk9FFFesfBhRRRQAUUUUAFFFFABRRRQAUUUUAFFFFABRRRQAUUUUAFFFFABRRRQAUUUUAFFFFABRRRQAUUUUAFFFFABRRRQAUUUUAFFFFABRRRQAUUUUAFFFFABRRRQAUUUUAFFFFABRRRQAUUUUAFFFFABRRRQAUUUUAFFFFABRRRQAlFLRQBB6fL17VwPxa+Dvh74xeHJNH120WaM/NFKBtkhfs6N1VvevQjnb1qNh8vDY96mUYzjyyNsPiK2FqxrUZcso9T8+9N1z4g/sJ+KItM1UTeIvhrdz/uJ0XIj3dl/wCeb5/h+63tX238P/iFovxI8M2ut6FfRX1jcLuWSI5x0+Vl/hb2rS8UeE9K8aaHdaRrVnDqOn3ClJYZ03Kwr4W8YfDXx7+xd4quPFfgZ7jWfAU7772wc7vLT+64/wDQZF/4F/teP+8y/wCH3ofl/wAA/R+bB8XQ5Z8tLG99o1f8pfgz9AeOh4p38PAry34I/Hbw78bvD63+j3CrcRoouLOR/wB9A+PuuPX3r1BV4OD1r16dSNWPNE/O8Thq+CqyoYiPLKPQztT0tLn94mFlXo1V9N1Ro5Db3XyyL/Ea2ivAFUNR02O8T+7J/C1fDZlk9XDV3mWVe7U+1HpP/gkxqKUeSZ5d8R/CWs+J/jB4JutK1fWNAtrXR9WWbVNJgt5NjPLZFIm+0QSou7Y/Rd3yVxHxI+EM+h2Vzp+h2+sau974e197vU/ma4nvLm4sG3M8SrtlbY21UVfli+XGyvebTUpbCTyLo/L/AAtW6jB1yMY9q9rKc4pZnF8nuzj8UXumTKEoHlHwt8Gp4F+InjvT9H0X+xvDEn2G6tYLaAxWrXDLL9odOilm2xbtn8X3q8e0WTVPE3wc1n4W2vhPxRbeIrzWtRV7vUNEurOztoZdXml+1JdSosT7Yn3psZmb5a+vqK+iMj5AuvD8ena1qknjLwxqWtaK+p6/dafp9vbO8sF097vivdv/ACy+T7l192L+8u+sXw98ORrGh+C9X1rwfda9pVivhC9QTac1667LCWJ3RNjbtjSrv2fc+9X1r4i8D+H/ABg1u2v6BputC33eT/aFpHceVu+9t3r8v3V5rejRYVVVVVRflVVoA+HovCHivUNY8Qakng6fSb/VNG1yw1ODT9Auo5fOa2Z4Ibi8lldtR+f7kqKsX8Kfe219wW/y28QP91anooAKKKKACiiigAooooAKKKKAPjj/AIKWf8ku8N/9hhf/AERNX1B8N/8AkR9B/wCvKH/0Ba+X/wDgpZ/yS7w3/wBhhf8A0RNX1B8N/wDkR9B/68of/QFryqX++z/wo+8x/wDyTWC/x1P/AG06eiiivVPgwr8x/wDgmH/yd1+01/2EZf8A04XFfpxX5j/8Ew/+Tuv2mv8AsIy/+nC4oA/TiiiigBo71zutf8hO2+q/zFdEO9c7rH/IVt/+A/zFfCcY/wC4Q/xw/M6KHxHRR/dFOpsf3RTq+3h8KMHuFFFFaCCiiigAooooAKKKKACiiigAooooAKKKKACiiigAooooAKKKKACiiigAooooAKKKKACiiigAooooAKKKKACiiigAooooAKKKKACiiigAooooAKKKKACiiigAooooAKKKKACiiigAooooAKKKKACiiigAr8zvjF/ymZ+F/wD2C4v/AElvK/TGvzM+Mn/KZj4Xf9gmL/0lvKAP0zooooAKKKKACiiigAooooAKKKKAPgv9rj95+198KI+32ix/9LRX3Zb58lP90fyr4X/akXzv2zfhYv8Ade0b/wAmmr7pt/8AVp/uj+VeVgv4lb1Pu+Iv+Rdlq/6dv/0pk9FFFeqfCBRRRQAUUUUAFFFFABRRRQAUUUUAFFFFABRRRQAUUUUAFFFFABRRRQAUUUUAFFFFABRRRQAUUUUAFFFFABRRRQAUUUUAFFFFABRRRQAUUUUAFFFFABRRRQAUUUUAFFFFABRRRQAUUUUAFFFFABRRRQAUUUUAFFFFABRRRQAUUUUAFcVN8SNLt/F03h+O01a7vIZI4ria002ea3gZkDKryqm1flZW6/xV2tfNvi7w3q//AAsLUv8AhHvD3iTSvFl74l03UhrSahcS6VPYx/Z0umb/AJZJ+4ili+zuu5m2Mv8AC6AHr9v8R9Am8J2HiVb0vpd/LBBBIIn3vLLMsSR7Pvb/ADX27f4a6i6tYr2F4pY1liddpVl3Ky14ZofgPV4Pi0PDjaNIvgXTNTuPF1tfO37p7qdflt1/vbbiW9n/ANj/AEevfcigcW4u6Phr40fst+IvhF4jf4jfB15LaS33S3Wiw/3P4vLX+KP/AKZf9816/wDs5/tU6F8bdPWxuz/Y3iy1QfadNdv9Zj7zx/3l/wBn7y17+0YkAyMj0r5T/aO/ZBPiXUD40+HjnQvGNs/n7bd/JW6f+9u/hk/2v4ujf3q8WpRq4WXtcP8AD9qP+R+iYXNMJn1GOBzl8tRaQq9V5T7rz3R9Xsw9OaYZAVJwT6ivkz9nP9rltcv/APhBviUjaJ4ytpPISW4Xy1um/usv8En+z91v4c19Ygq21lO8Yr08PXp4iN4HyGaZTisor+xxEfR9JLun1RHeWUd5GA4+jY6Vjw3M2jz+XL80P8LV0JxgZqG4tI7uPY67lNfK5rkksRNY3Avkrx6/zeT7o4adS3uy+EdDMk6hlOQamDVzp8/RJv8AnpbtW1a3Ud1H5iHcK0ynOo4yTwuJXJXjuv1XdEVKfL70di3RRRX1pkFFFFABRRRQAUUUUAFFFFABRXg+ifHfU/EuoeJIdHj8M6jLp51VLLSYdXb+0LtrOV4vueVtXc6ru+b5N612Vr8VbPWrzwBBoyrd/wDCVWz6qvmNtaCwWJXaU+/my20e3/pr/s0AfP3/AAUs/wCSXeG/+wwv/oiavp/4cf8AIjaD/wBeUP8A6LWvmD/gpZ/yS7w3/wBhhf8A0RNXucnje3+HnwY0nWbiFrp/s9lZWtsrbXuLqdo4LeLf/DvllRd3bdXlUv8AfZ/4Ufe47/kmsF/jqf8Atp6pRXl2oeMPHPhnTtTv9b8M6U1jaaRc6g1zpmqNKIp4l3/Z2WSFGZW5/er/AHeUWsPwj+0IfE3h/wADXTaObHVta1ZtF1jTJrkM+k3SWU906dPn/wBSm37u5JVavVPgj22vzH/4Jh/8ndftNf8AYRl/9OFxX114V+OviiXwr4G8X6/4d0i08L+KJLKHzNP1GWW6s5bx0S3LxNCquvmyojbX+Xdu+avkT/gmOwj/AGu/2nGP3V1Gf/04XFAH6c0V4jD8cteuvAi/ES38O2Nx4CYfbVlTUX+3tpf/AD++V5Wz7n73yt33P4t3yVt3fxhlj8E/EvxAumRufB815FHD5/y3XkWqT/e2/Lu37aAPUWrnNV/5C8H1X+dcDrnxE8dw+LvDWlaZo/h+W11+CW4tprvUJ0eNY4kdtyrD/t13Wpbv7Wtt23fhd236ivguMf8AcaX+OH5nTQ+I6dfuinU1fuinV9zT+FHMFFFFaAFFFFABRRRQAUUUUAFFFFABRRRQAUUUUAFFFFABRRRQAUUUUAFFFFABRRRQAUUUUAFFFFABRRRQAUUUUAFFFFABRRRQAUUUUAFFFFABRRRQAUUUUAFFFFABRRRQAUUUUAFFFFABRRRQAV5xqXxt8MaXJqRkm1Ka00u4+y32pWulXU9pbSfxh5UQrhP42+7H/GVr0evmPULrx74H8Az+DfD9jr1p4ttb2/l0290/SYryy1RZZZZYnluJf3UH+sXzfNZG3b9m+gD2fTfij4Z1vxF4r8P2mpLNqnhlYn1W22NvgSWLzUf/AGlZf7tYl38evC8MmyGHWtRCafb6rK+maJdXaxW86O8Tt5SNyyo3y/e9q8r8RfDnxTb3PxC8baVo8kvjOx1BZoLdV2DWrJtKsorq0Rv9p4m2N/z1hT/aqf4f+INT+F/iJk1Pwb4qvpb7wroMEEel6RLcJ58EVwssLy/6qJlZ0++y0AfRGia5Y+JNHstV0u5jvdNvYUuLa4hbcksTLuVl+tfnJ8af+Uy/wp/7BMX/AKT3tfeXwX8M33hD4Z6FpeqwrBqUUTSXFuj70geV2laJW/iVN+3/AIDXwb8bP+Uyfwp/7BMX/pPe0AfphRRRQAUUUUAFFFFABRRRQAUUUlAHwv8AtFr537cHwzX+4ts3/keSvqc/GHwi2meIruHWI7uHw5drYai1rG8+y6ZU226hB+9kJljXYm47m2/e4r5e+O3779vD4bx+ltG3/j89eyGfUPgvY/FXV9B8F3eoQC+s/wCydH0qzcCf/QrWL5FiRv3Svu3MiNt2v8rYrzMJ/Erf4j7riL/ccuX/AE6/9uZ32l/GLwvq+qQ6VHdXFrqc14+nfYb2zlglS4WD7R5bq68FovnX+8v3c10tj4k0/VNa1PSraZpbvTGiS74bbG0ib1Td/e2bW+jr/erwTR9AufEHw31zxHa6brd948tdXg8QySavpFxpcl1eQKn7q1il+5E1urW69fvtv3Mz16v8HNDuNP8ACMuq6lZPp+ueIruXWdQt5v8AWxSy42Qt/tRRLFF/2yr0z4U9AooooAKKKKACiiigAooooAKKKKACiiigAooooAKKKKACiiigAooooAKKKKACiiigAooooAKKKKACiiigAooooAKKKKACiiigAooooAKKKKACiiigAooooAKKKKACiiigAooooAKKKKACiiigAooooAKKKKACiiigAooooAKKKKACiiigAooooAKSlpKAPn39ov8AZZ0T46WJvIiuleKIE/0bUY0xu/2JP7y/+PLXi/wb/aa8S/BPxPH8OfjBHJFHAfKtdcmO4Bf4TI38Uf8A01/76/2fuPYNwOSMCvNfjR8DfDfxs8Ntpmt2o8xAzW15EuJoH/vK3/svevLr4WXN7XD+7L8z7fK89p1KH9mZvHnofZf2oecfLuj0C1vIb6FJYJUmikXcsitlWFWlyqn+E+9fAPhH4gePP2J/FkPhjxpHca34BnfbaX0Q3eUv95P7v+1G3/AP9r7l8H+LtI8c6Da6vot9FqGn3C7o5omyprXD4uNb3H7sl0POznIquV8teD56E/hmtn/k+6NmaJJo9jDcGrBuLeXSJDJAN0P8S10R+71xSGMMuDzXjZrk0MySqU3yVo/DJb/8MfPQnylWxvo76MNH+K+lWwo24xWBeafLp832i0P+8taGm6ol4uM7XXqtcOWZ1ONX+z8yXLWXXpLzX+RUqenNDY06KKK+2MAooooAKKKKACiiigDx2x+HHie78ZeHLrxDqum3OleGdQur3TrmxthFdXjzwyxKs6bfLjCLO33P9Y6o3ycq1z4X/Ci78B+KPEV/eait9Zyu0Gi24TDWNm0stw8X/fyXb8v8MEVerUUAfHH/AAUs/wCSXeG/+wwv/oiavcLjwLB8RPgvouky3D2ckcVjf2t1Gm8291bSRXFvLt/i2yxIdv8AFXh//BSz/kl3hv8A7DC/+iJq+n/hv/yI+g/9eUP/AKAteVS/32f+FH3uP/5JnBf46n/tp5FrPwL8TeMPEWoa7qw8NaVqrabd2AuNL+1O+oNLatbo0u87Yo13bvKCy/dX56va18A7qb4k/DvxXp2qxWa6ONmuWTIxTUdllcW9vKv/AE1Tz3X/AGkf/YWvd6K9U+CPnTwP8G/Hf/CGeCfBniy58O2/hrwxLYTb9HkuJbq+aydJbfd5qKsS+bFE7D5s7NtfKP8AwTHUSftd/tOKfutqM/8A6cLiv05r8x/+CYf/ACd1+01/2EZf/ThcUAfYcPwX8VWfgNPhjaatpUHw9W3/ALPS+8qRtSXTcbPsez/V7vK/d/aN33f+WW75qb40+D3i7UrXxt4e0DVdFsPCfjNpTfXFxBL9t07zbdLeXyFX93LuVNy7tm1mP3693ooA4jUvBck3jLwbqtvNHHY6Ha3Vu0bD5m81IkTb/wB8Voal/wAhuL/gP/oVdJXPaj/yGIPwr4Di/wD3Wj/jj+Z00fiOiX7opaRfuilr7yHwo5haKKKsAooooAKKKKACiiigAooooAKKKKACiiigAooooAKKKKACiiigAooooAKKKKACiiigAooooAKKKKACiiigAooooAKKKKACiiigAooooAKKKKACiiigAooooAKKKKACiiigAooooAKKKKACiiigAooooAK/NH44f8pkPhJ/2CYv/RV7X6XV+aXx0/5THfCL/sERf+ib2gD9LaKKKACiiigAooooAKKKKACiikoA+I/i8vnf8FAvh8v9ywRv/SmvtgD5RXxP8Tz53/BQ7wGn/POwU/8Ajl5X20PumvMwf8Sr/iPueJP91y6P/Tlf+lSH0UlLXpnwwUUUUAFFFFABRRRQAUUUUAFFFFABRRRQAUUUUAFFFFABRRRQAUUUUAFFFFABRRRQAUUUUAFFFFABRRRQAUUUUAFFFFABRRRQAUUUUAFFFFABRRRQAUUUUAFFFFABRRRQAUUUUAFFFFABRRRQAUUUUAFFFFABRRRQAUUUUAFFFFABRRRQAUUUUAFFFFACUUtFAHJePPAeifETw/caNr9jHqFhcDbIjjp1+Zf7re9fD+teHPH37DHiyXWNAafXvhvdTqZ7WR+Ix/t/882/uyfxfxdlr9BzndjgVn6tpVprVhNZ30EdzbzKySRSruVlbqprz8RhY1vej7s11Pqcmz6plvNh68faYefxQe3quz7M5L4R/GLw78ZvDaax4evFljX5ZrdjiWB/7ki/wmu8X0/KvhL4qfs+eLP2cfFEnxD+Eskz6Yrbr7Rl/eARj7y7f+Wkf/jy/wDoP0F+z3+05oHx40kJCy6f4ghT/SdLlb50/wBpf7y1lh8VK/scR7s/z9DtzTIIew/tPKpe0w//AJNDykv12PbeNvPSsTUtLMbG4tuJF/hXvW4wDULjpXNmmV0M0pezq7r4ZdU+6PjadSUHoZWm6utxmOX5Zl/h9a1gwbmsjUtJ8z99D8sy9Peo9N1Y+Ybe4wsy/rXzeBzTEZXWjl+bdfhn0fr2ZtKEZrmgb1FIp3Clr9BvfY5QooopgFFFFABRRRQB8cf8FLP+SXeG/wDsML/6Imr6g+G//Ij6D/15Q/8AoC18v/8ABSz/AJJd4b/7DC/+iJq+oPhv/wAiPoP/AF5Q/wDoC15VL/fZ/wCFH3mP/wCSawX+Op/7adPRRRXqnwYV+Y//AATD/wCTuv2mv+wjL/6cLiv04r8x/wDgmH/yd1+01/2EZf8A04XFAH6cUUUUAR/4Vz95/wAh2H6Cug/wrAuv+Q9B/u18Jxd/u9D/AK+w/M6KO7OiX7opaRfuilr7mOyOcKKKKoAooooAKKKKACiiigAooooAKKKKACiiigAooooAKKKKACiiigAooooAKKKSgBaKKKACiiigAooooAKKKKACiiigAooooAKKKKACiiigAooooAKKKKACiiigAooooAKKKKACiiigAooooAKKKKACiiigAr80fjv/AMpi/hB/2B7f/wBAva/S6vzU+Pn/ACmI+Df/AGB4P/QL+gD9K6KKKACiiigAooooAKKKKACiikoA+H/Hz+d/wUX8HD/nnZf+0bmvtw9q+HPFjeb/AMFHPDi/887b/wBtpa+5f4hXlYD4qv8AiZ97xWuWlly/6cQ/NjqWiivVPggooooAKKKKACiiigAooooAKKKKACiiigAooooAKKKKACiiigAooooAKKKKACiiigAooooAKKKKACiiigAooooAKKKKACiiigAooooAKKKKACiiigAoopjPs+9QA+imeZR5lAD6KZu+WmJcRP8AckVv+BUATUUzev8Aep26gBaKKKACiiigAooooAKKTIpaACiiigAooooAKKKKACikzRmgBaKTNGaAFopM0ZoAWikzRmgBaSlooAquFkjdJMNxyuOK+QP2hP2SLmDVh8QfhY8mj+KLWX7RLZ27bEuD/Eyf3W/2fut3r7DPHXFBI5XHSuevh6eIVpns5TnGKyev7bDy/wAUfsyXZrqfLf7Nv7XVv8Qph4T8ZBNE8Z25MDRzDyVuXXG7arfdf/pn1r6gjXdGShG3ttr52/aS/ZP0r4xQtruildE8Y2o3wXseVWcrnasm39G+8tcp+yv8dfGTeLpPhd8QtJvm12yiZ49T8vjy1/57f+O7ZP464KNarSqexr7dJH0uYZdgc0w8s0yp8jWs6X8vnHvH8j67X7tZupaWl6uV4dejVpdPpSZFa47AUMxouhiI3TPhIylGXNEwrHVJLWX7Pd/Kf4WrbV/MTjmql9Yw30OG/Bqi0m3ktInSaVXCn5T/AHa+ZyynmWW4j6jW9+j9mfVeT/RmknGS5lueffEDxx4kt/E1h4d8N3Ok2F3cXVvbSXWqafLeonmRXUv3Enh/htf73/LX/Z+bLt/H3i2XUtBlGoeHxpcUepHWYBp0xmZbGSWCW4t5vtG1A8vk7YnjbarP87ba9B1nwJofiS+afVbG01RZI1Rra+t454mZC/lvtZfvLvl/77atGDwzo8NqlvBplmtulv8AZFjW3TasH/PLp9z/AGa+4MDxVfi/448O6DqXiHxGNEu7G3kvLP8AsjTdPninintrWWd28/7RL5q7rd12rCrfP/sfN3PgfxfrOpXlhpmufZ5tRmjuvtD21i9l5csEsXy+U0svytHMh/1rfd/2tqdJD4F8M2+pXWpR+H9Lj1G63fabtLKLzp933t77dzbv1pNO8H6RoupWlzp9pDYrawS21vb2kaxQRrK6vKVRRjczIn/fP+9kA6eiio/MT++v/fVAHxx/wUsb/i2Phpf+osv/AKJmr6k+HqhfBHh8DvYQk/8Afta8u/ak+AV38fvCWl6TY6pHpUtlfLdNJNEZA48t124z/t16v4V0l9B8P6Zp8zq8lrBHCXXoSqBa86nRnHEzqdJWPrcZjaFTI8LhIy9+Eptr1tY6GiiivRPkgr8x/wDgmH/yd1+01/2EZf8A04XFfpxXyd+yv+xzq/7PPxo+KHjW/wDENnq9v4zuJLiK3t7dle13XDy7WZvvf63/AMdoA+qp7hbaGSR/uxruavFtM+KHizUtXTUzdaFD4ajGl+bp7afN9rl+3MoTbcfaNi7PNT/lk27Y33d3ye2/K1cjpPw28M6XcWd2mi6fcahZqsVvfzWcTXEUS/6pFl27tqL8q80Aeb/DH9omy+JWtak+nXWk6jpB8Rf2HbS6ZdrK6Qtp6XUUsjIzfM7+au35dvT7yNu9Xnx/b0J/2aiuvC2ky6xb6l9kjS6humvN0KqgkuPK8jzXx951i+TLfw4/urt0ZNP8zUUufMG1V+7XyPEGDr4yFGNGN+WcX8k9TWjJRvzGrS0lLX1q2MgooopgFFFFABRRRQAUVF5is2zcu7+7UtABRRRQAUUUUAFFFFABRRRQAUUUUAFFFFABRRWN4q1j/hG/DOsassfm/YbOW62f3tiM2P0oA11PtTW+lfJ0v7Xni7+yvtyeCD5e3ftZfn2/7nm7q45/+Ciky9fDqL9Ym/8AjtckcVTl8JnXqQw/8V8p9x7vf9KN3uPyr4d/4eNfK7NoSjb/ANO7f/HaZ/w8c3/d0iEnsv2dvm/8i1p7aBzfXsN/Oj7nyKT8K+JtN/b+v9aWU2OjWL+V97eCv/tWm2f7e+s31vJPFoNlsRtnzxuu/wD3f3tZ/WYHTGpCfwyPtn8qPyr4jt/2+9butLutQTw/ai3t/vboH3f98eburPs/+CiWqalJ5dtoNq77vlX7HK3/ALVp/WYh7Sn/ADI+693+1Ru/2q+Fbr/godq+mzJFe6Fa2rsN22WzlX/2rUMf/BR+7bpp9iP961l/+O1f1iJn9Ypf8/EfeO2jbXwkn/BRi8mfamnae3/btL/8dqyn/BQfUn/5h1h/4BT/APx2o+sxNPaUv5kfce7HU0bs9DXxLb/t565dO6x6XYvsXc22yn/+O0y8/b71TT1haez01fNXcv8Aos//AMdp/WIC9pT350fcHHpRzXw4v/BQi9kbb9h0v/wEuP8A4uuki/bK8SSXFxB/YVrNLb/61IbK4bb/AOP1EsXSh8RpTtW+Bn1/xSnkV8+fBf8AaHv/AIqeKYtNaHT1g2SGX7PHKkqsq9PmavoL+GtadSNWPNAuUXHRjqKKK3JCiiigAooooAKKKKACiiigAooooAKKKKACiiigAooooAK+N/ip+yr418Zft+fDz4x2D6Z/wiGg6dHa3iy3TLd71F191Nn/AE3T+KvsiigAooooAKKKKACiiigAooooAKKKKAPkfVPg34xvP24LDx0mit/wilumG1Ezw4/49HT/AFe7zPvNt+7X1hGwYcc4prKGnHyg++eakAA4A5rmo4eNHm5ftO56+Y5pXzP2Ptkv3UFCNv5V38yaiiiuk8gKKKKACiiigAooooAKKKKACiiigAooooAKKKKACiiigAooooAKKKKACiiigAooooAKKKKACiiigAooooAKKKKACiiigAooooAKKKKACiiigAooooAbXy1+3brE+n+E/CNsuqz6Ja3usxW9zewy7fKib7z/APAa+pfT6V8X/wDBTiRl+GvhnH/QR/8AZawrfw5HJinalI+cP2po7r4O+PbHTfCPxD1nUbK4tftD/wDE2eV4v+Bq/wDHXkT/ALRvxN0Szla28deIE2r8v+nS1xsdWPDelLr3iay0xl3/AGpmT513/wAD/wAFeFGpLmPlpYhyn+7909F0H9rb4reKriLSNQ8WX01o8Fwr/N87/unb79ZWlftD/FLwM1xFpniW7ht52aXY8SOn+2/zJXmPgP5PFtov+zcJ/wCQnroPE/8Ax+W6r/zwl/8ARr161D3on0uCqSnH3zvof20vjBbLuXxZO+7+/BF/8RUtz+3P8Z5rWWBfFjQ7l2edDAiOv+4+yvEtNTzrW4X+69V3T5q6zvPYrf8AbO+Ntu25fiHq2P8AbZH/APQ0res/2/PjhZ/8zj9p/wCu1nbv/wCyV8+U/wAurA+2dB/4KneMbSzt49R8Laff3CIqSTLO8XmN/e27K6vS/wDgqpczSIlz4JVB/EyXm7/2Svz78ut3wfZxXniC0ikVXRt25H/3KAP0+8D/APBRv4f+JbW7l1Kx1TRfsqpvleFZU+b/AHW3V7N4D/aQ8D/ErVrTTdD1SS4vrpGlihltZYiyqu4n5lHavx+8Nxxf8IzrbRR7Plt93+18719yfA347ad8X/j18PLez8PDQpNP064huNrLtZlt3+5j+D5a4aleUavJE82pWlGtycx92rhu+R9KduHTNcn8QPEGq+G/Dz3mjaY2qXSsoW3RWYuM/wCzXln/AAuzx/8A9CJdH/thL/8AEV5+LzahgZ8lVSb8k2fS4TLq2Khzwcfm0vzPoGivAf8Ahdvj3/oQ7r/v3N/8RR/wuzx7/wBCHdf9+5v/AIiuL/WPCdpf+Av/ACO3+xcT3j/4FH/M99z70Z9/0rwP/hdnjz/oQbr/AL9zf/EUf8Lu8d/9CBef9+5//iKf+seC7T/8Bf8AkT/YuJ7x/wDAo/5nvu4ev6UZH+RXgX/C7vHX/Qg3n/fub/4im/8AC7/Hf/Qg3n/fub/4il/rHg+0v/AX/kP+xcT3j/4FH/M994o4rwT/AIXj46/6EK8/79zf/EUf8Lx8c/8AQgXv/fuX/wCIp/6x4L+WX/gL/wAg/sXFd4/+BR/zPe+KOK8E/wCF5eOP+hAv/wDv1L/8RTv+F5eN/wDoQL//AL9zf/EUv9Y8F/LL/wABf+Qf2Liu8f8AwKP+Z7zxRxXg3/C8vG//AET++/79zf8AxFH/AAvLxt/0T/UP+/cv/wART/1jwX8sv/AX/kH9i4rvH/wKP+Z7zxRxXgn/AAvXxr/0T/UP+/c//wAap3/C9PGn/QgX/wD37n/+NUv9Y8F/LL/wF/5C/sTFd4/+BR/zPe9w9KNw9K8C/wCF7eNP+hAv/wDv3P8A/GqT/he3jT/oQL7/AL5m/wDjVP8A1iwXaX/gL/yD+xMV3j/4Ev8AM993D/Io3/5xXgX/AAvjxn/0T++/75n/APjVL/wvfxj/ANCDff8AfM//AMap/wCseA7y/wDAX/kP+xMX3j/4Ev8AM973Cqv2G2+0G4EKeewwZNnzbfSvDv8AhfPjD/oQb7/vmf8A+NUf8L78Ycf8UBfflP8A/GqFxFgJO3vf+Av/ACD+xcbHZx/8CX+Z71J/u8/w1x95qk811LLLfT2FhFO0Ua2kW95WT77N8jfJXXLI0kKtt2Fl/KvOfG1nc3nhxILGCR3+1XDs8P8Avv8AJ/wP7tfTx1VzwDd/4SHQ0Xd/wku0fe/16f8AxNUdN8VafqmqXtlFql2jwSrEru8WydmT+CvM9VuoIfBD2cujT2epywMitMv+tZkf91V3xBrS/Y4L7SPD8+pXuk3SXFylou952T5tn+y1UB7L9j8tfm1W5+X725k/+JrwrxJ+1V4F0Xxp/YFl4guNbltYmuNTu7F0e306Jf4pZf73+yv9+vH/ANnj9tLxR8cf2jrjwlrWkW2i6BJYXCRaZ5X+kRSo6f612/2d/wAlePftRfDHSfhXb6tovwtRbzQJdYSXxStvLvfTGTymt7V/+mXzu/8AvfLQB+mGnwf2hYwXMWoXflTxrKv3Put/wCrP9mtu/wCQhd/+Of8AxFc/oniiCx0XQ7R4pndrO1w6JuX5vkrlfjJ8dNK+Dtva3OpzR2lvK/lNcXKvt83b8ifL/E1AHpX9lv8A9BC6/wC+k/8AiKxrj7TbXjwJdzbN1uqu2zeu5n3/AMFSeCfE6+KtBt9QRdnm/e2q3/s1S6h/yFn/AOutr/6NegDSbSpFX/kIXf8A30n/AMRXPa54q8PeGbn7LqvipdPuNu/ZcTojbf8Avmuxm/1deO3trbN8bNea9to76L+xNO3W7pv3fvb37lAHRP8AEnwei7m8awpu+7+/T/4mj/hY3hHeqN41h3N91fPT/wCJqK5sLGOxt2ktLeZJIGij+6/lNu+/Vu602xTUfJns7aa6ZoniuNi/uvufxfw/c/4FQBCnxG8IySbE8aQs6/eVZ03f+g0R/ErwfMu5fGkL7W2/LOn/AMTT4dP099YMEdpbQ3qyM0t1sTcy/wB2qtvpunzWd2tnZ2lt5VqySv8AKiSt/f3/AN3/AG6AJ1+I3hF4vNTxrDs/v+en/wATR/wsnwfHHvbxrCq/3vPTb/6DUUdrpk1ndXMGnww2Syxb7Taqbtv+f+BU/wCx6ZDbQXcljbvp7Sy7bLyk+X/gH9773y0AOf4k+Dk+941hTd/03T/4mj/hYvhDfsbxrHvb+Hz0/wDiaivLCxt7W38+0tLnzYP9Gfan7jc/yf8AAf8Abp9zptp/asMMlpbves0DLdbE+Vfk3r/wL56AH/8ACxfCHnNF/wAJnH5q/wAPnpu/9BpE+JPg6Tft8awvs+9+/T5f/HaWGxtP7SeBYLdNQWWVmutifMrb9i//AGFMs7HTriO9Szs7S28qD/SX+X9//nb96gB3/CyfB7x718aQ7V/i89Nv/oNEnxK8Hxx728aQorfxeem3/wBBpq2umzWd3dw2UMWnq8X+ieUifd+98n+1/wCyUjWumx2FpczWVvLZNLJttfKR/vfd+X/ZoAfJ8SPCMLbW8awrubb806f/ABNH/CyvB/neV/wmkPm/3fPTd/6DUU2n2NtZ2n26xtrvdbKkTfJ+6b+9v/8AZ6tvYWK6wkLWlpNqXmr/AKVsTeq/3f8A7GgCH/hZXg7d5X/Caw7v7vnp/wDE0Wvi3w/r119m0vxt5l63yIiTxN83+5tot9LsP7YaOC1t4bpWleW42L8y/P8AJ/tfwf8AfFcbr32bRdU8L3djZ2ySwXWyXZtTz28p/n/2qAPU/DN/cXySx3m37XaytFME+7/sP/wJfm/4HXR1x3gS6n1BtTuriPyWlnX91/2ySuxoAKKKKACiiigAooooAKKKKACiiigAooooAT+GsHxtcRWvhHW553CQx2M7yM38KiNs1vHNcj8Wm/4tX4x/7At5/wCiHrOUeaPKHNye8fLdtYaVcql80qu7fP8AaEb+H/4mvkL4pfYW8b6q2nyxzW7Ts++H7lZM3jCWzsIrGLVZLZVX97b/AGrYjf8AAKwptYsftHlNeQeb/c82vGwmFlQnzSkfH59mkswoqlCm+51HgPwrP4z8RRaLZzwW1xdK217htifKm/8A9kruJvgPqvhiKLV9Q1XTYbK3ulSeaFnd4vnRHf7n+3XKfCu50FPFVoniW5ubPQpd3nzWjP5v3Pk2Oterar/wrTSdJ/tCz1DWb+W3l837JfXUr28sW9PkdG/vpW9epKMuWJhk2X4fE4f2lX4vUz7zRfDmieF7uCx8caXN9sv0uPJSDfLuXZsf/d+f7lVLm5bxJpPhy+vLyXYurXSTzJa7Il2vK+9P7397ZWVf3/g7UrC7l0zw0ujyrKr2dw8r71b7+z/xz/x+rXglJb63e8voLT+zIr6V1mu9Tli2s0X91d/39/36y/xHvUqkKcuSH6lu5vG0e3tGXT57mW406301nSKJ0aBn++n7371cfoNtrUPh+0WC2trayWBr1nRv3qrF8j/I38X72okSKwurS2aVbm0ilbdbpE6f7ifc/e/PXZal4q0h9S+zf2mqX0Xhn7LPbzWOyWKVXi+R0/8AZ6vm5SZSjif+3Txfxo+qzapE19LHc7l/deSyP8v/AAGu48PfByLxJ8G9Q8VQXjQ3tmrboXi+T5f9vfWb509+tlfRRXLyrEz2e+xSJJ23/Oibfvfx12vg/wCIEXhX4I6xodzZ3M1xfwM8CQ7N7VdWUuX3TysvwsZYz998J8vw+JL6zlRll+dW3/dr6Q8PeKoNS8K2kn9pyW13axKlro00SO95ud3d5f8Av6//AAHZXy59gvpr/wApdMu/N/uba+hvA3g2K2sH1PU57vTdTsFWKK31CDe7S/c2fK/y/wCz/uVzT/vH1lSMacebDxXmOTWvO8R2WkQTz3+ptdN/onkJ9n2/c379/wB5627/AFL7Tq3h+DU1+3v57JseB5UVf4E8r5N2z/fqppOqxap4jTRZ7aP7Fb3UssTpst7jds/jlrj9S1XxRbay9tbTwJp9u2/ZtR9qq+z/AIF81Ll97mPMoSp1YSUT1PxJo/gyw8K3d9BrUlzrCr82kvFsSJt/3NjfdX/gdegeGLZr/wAB6PLpE7Q/6Mjs9v8A89f49/8AwOvP7+HQU0PUJ2WCbzYLKKKFbyL5Zdn71/8AdevP7XXtS8Pb4NM1C5sIm+8lpdNsrnrYeVePumlPM4ZdV5px919j7U/ZzhtIfjhKsO37c+nh7xE+6su1q+w/Wvz2/YV1CK4+Mkyp5m5rFnd5n3Mzba/Qv+VetgafsqfKehHFRxkfbR6jqKKK9EsKKKKACiiigAooooAKKKKACiiigAooooAKKKKACiiigAooooAKKK5/xB4otNBtZmJSe6Vd0dqrfOzen+zQBv7RRtFcD4f+L+j6tJDbXyXXh/UZW2Ja6tH5Xmv/AHYpf9VL/wAAY13wYGldALRRRTAKKKKACiiigAooooAKKKKACiiigAooooAKKKKACiiigArOi1C2n1Gayjnje5hRHlhVhujV92wsv+1tf/vmtGvIL7xY/g/4xa0Ljw94hv7fVrPT4oL3TdKlubcOjXG7fKo2pt3p96gD07T9SttVtUntLmG7gYsFlgferbTtYbh6Nn8q0a+OPEUutafDqkWur4nudShgtRpT6bqDp9hZ9Sn3eeqypt3p5X+t/wBaqbF3fcrTPgH4i2/g3V73Q/7cg8Y6jeeLITLcX8+3ynvbh9P2o77E+RYvKb5du/7y72oA+tKK8W/Z30fWdK03W31KfVXtLiaLyLfUrCWz8pliCv5aS3U8n90N91S6Oy7txdvaMigBaKTIoyKAFopM0UALRRRQAUVxvxK8bTfD/wAJ3WtxeGtc8UvA0Y/srw7bJcXsu5tvyIzKvy/e+92r50b/AIKLeHIdN1bUbr4SfFW007SNQ/svUr640SzSKxuNyL5Urfa/lb96n/fdAH17RTUbcoNFADqKKKACiiigAooooAKKKKACiiigAooooAKKKKACiiigAooooAZXxd/wU6/5Jn4a/wCwj/7LX2jXxd/wU4/5J34XX/qI/wDstYVv4cjjxn8GR+cH8NGm+M28A69Za9FbR38tnLvW3m+5LR/DXJeJElmlmVfn2xV4VOPNI+Kj8ZsfD2ZbzxHFP9yVlldU/wCAPv8A/Z66DxT/AMf9t/1wb/0a9cf8Lt3/AAlFurfwrL/6Keuy8Vf8hK3/AOuD/wDo169aj8J9fl/ws4V/FWleG5fI1CdoZZ181dkW/wCWqn/CZ+Hpm3Lqqp/vwS//ABFcV8SP+Rgh/wCvVK5Gu6MT0j2ZPEmhv93WrT/gay//ABFSrrelP93V7H/v7XilPq+UD21NQs3+7qFo/wDuXSV2Hge2lj8TaZKy/uZVZ4n/AIGXY/3K+Za9r/Z1uZZryGKWVniinbykdvu7kqJRA9I8M/8AIr67/vW//ob19GfsOaHqFn+0J4bmurOW2hmtbiWLzf418p/nr518N/8AIr67/wBu/wD6G9fUv7FM0E3xy8H+VqF3f7dMuEf7Wv8Aqm8p/kT/AGa8Sr/vMTyvq8auKlKX2T9LNoxik8tf7q/lT6K9nlR6o3Yv90flSeWn90flT6KXLHsO7MXxJrdj4V8O6rrmoOsVhpttLdzv/dijQs//AKCa434K+PtT8eeG7s+IdMg0bxPp119n1HTbd96wF0SeLv8AxQyxf8C3Vf8Aip4Bf4meEv8AhHv7Ql0/T7y8t21DyQ2+e1jlV5bdWU/KJduxm/uu9UPCPwlh8D+PtR17RtQuV03VrCO31Czvri4vJZLiJ/3MqSyysy4R5VZe/wAn92jkj2C7OsXWo77SdQvNJgOqS2rXEKW4/debPEzK0QZunzqV3fdrhfhT8RtV8WeKvE/h7WRo9xqGix2r3FxoUryW8Espl3Wb7v8AlrF5XzNxu3r8qfdruDa6tdaTqME1/Hb38rXEVtfWNv8A8e6MW8ptkm5WdF2FiflZlPyj7tcJZeBfGel6zqHii71TSdU8TSafa6XAlnpzwW7RpLvlklDXG5mbc20bsR/7eafLHsF2UfEHxO8U6R8SNP8ADR0/RA+uS3UGm6eZme+giigldb+42tt8hniWPYnzfvU+bduRdHS/i9N4i8P/AA5nsdMS31jxVLtubC43MbBYone8Dbf4onTyv991qbVvhv4j8SeLNIm1fxFZXehaNrR1mziXTtl7/qnRLd5d+3anmv8AOqbnXarfxM8vhD4US+F/iR4j8RPqv2vTbkyPpWm+Vt+wNcOst78/8Xmyor/7OKOSPYLs9L8tf7g/KvH/ABv8bE8H+NNQ8MC0hv8AXZ7exTQdLWQRTajdz/aiy7m4WNFt97P/AArv+821K7i58D6Ze+MLfxTJNqw1Szh8iKGHWL1LLbhvv2ay+Q7fO3zNEW+7/dWuV8XfBDSPGniDxVql6yw3msabY2NvfW8YS6sHtZZpYpopf7yyyo6/7UdLkj2C7OtbWJPDfhqxufE0lv8AbP3FvczWEEnktPIyxjYnzNt3vj5vasj4heLr3w7eeH9H0Wxgv/EGu3UlvareS7LeBY4mkluJdvzFUCgbV5ZnUfLksupDbeJYPCmlWs+pabc+I4xbre332N0t59rr57pF5u5Ny7tvzttZl+9iqPjzwZd+JptE1HR9Uj0fXtFu3uLO5uLf7RAysjRywyxh1ZkZH/hddrKjfwbSckew7s4X4ifED4ifC/4f6rqV14d0fxBrFreabb2D6bK8MWoi5u0geHynbdFKu75fmdTvT/aWq3jb9oOS18Mz614VtrW+tW8L3GvW736OmJElij8qVdysu3e25fvblxVHT/2WbfT/ABB4j1+NvD+i3+sX+k3ctv4f0YWkLfY9Q+2u8vzs0s8jF1835ei/LU/iv9mOTVPEXjy70bX4tM0vxJpElpFpc1pvhs7yWVZLidNrL8spiRmT+/vb+Kjkj2FdnV+HfFXjHQ/G+leHPGsWh3Y1mCeXT9S0JJYk8yLazxSxSs/Oxtysr/wN8tereUn9wflXmWj+B/E2oePNP8SeLNW02+GlW00WnWOk2MsEcUkuzzZZGklfe21dqY27dz53Z+X0/Io5I9guxvlp/dH5UeWn90flT6KXJHsF2M8tf7o/Kjy1/uj8qfRRyR7BdjKx9HX/AEWVt3/LeX/0N62Kx9H/AOPV2/6by/8Aob1oI5T4neE/D/irT4LbXr9rS0WVVdPNRPNVpU+Rt38O9V+7R4F8L6B4Ihul02/81bp9586dWx3/APZ2b5vm+auXmmbWLyKXUINCmuLfzYmuNZVHTb8joiVN/Y+hpZ6PPZ6Z4VS7lWV5XuIk8r7/APBQBpeJPgb4V8ReNNM8ZwWK6b4t0190GrWnyOy7fuS7f9an+y9fBX7UXwH+JOm+LZb5vh3oWpW+qXkTz+JPDNrcebO2/wD5axNK/lN/uJt/2699+IV9qWj+GfFutNq9pbReRbrFb/apYrdVivbffudX+7/edNvyvVi+8eS2fjf4eLa6npaPeRXD/udTuHllXyvvxJ92WD/bf5qAPddaW4tPDOmWMKJp+rS6Z5UV80HnPayqq/w7G+6z15/4z8Ht8cNavdB1PStE1TTtNit7pk1b7Unmzskqeb8jpt2bP7nzf3lqzput6rqviqyinvLnZ5VxL5NvF5r/AH0/v/drqPhr5v8Aws7xg0vmeb9jsP8AWpsf79x9+gCr8NfFclj4ZezltLa2axupbR/s6z7G2/Ijrv37f++67GG8fUJLe8lVUeVbCXb/AHdzvvrzXwA1y+l6w0Ut3s/ta6+S0gR0+/Xoulf8g3TPu/NBYfI9AHavMu3bXg3xg8X6j8HfGWpeOpfDd1rWgNpllaPNbzwp5DpLcf32Vv8Al4Wua/bM/auuf2b9N0ex0XT4L/xBqm50S7Z/KiiX77/7Vee/s9/t2av8XdP1jRtT0HT08QQNatbS/P8AZ51luEgfen3k2O60Ae5xeMPGN5Zo8Hwy1n9/AyN/p9h8qu+7ev8ApFXZPFnjLfLAvww117SZ0eVmvbDeu3Z93/SP9mrkOvfEoxyytZeGYpfLWVYvNnfzVb7tPfxN8TEj2/YPDP2vzPJ+z+bP97Zv+9/u0AUP+Eu8ZPcRI3ww1tLWGVpVZLyw3t/5MVX/AOEk8Z3Fq9rP8MNbSJbV7dWhv7Bt27/euK1/+Ek+JkkMXl6d4Ze4dCzw+bOu3b/tUv8AwlXxF/1kVt4ZmtFTdLNvuMr/AMBoAzX8XeNpmlnb4Y63DcM0T+St9YbG2/33+0UQ+MvGsLQ3K/C7W/tatLuh+32HlfN/28f7Na8evfEp7zyvsfhf7P5vk+dvuPvf7tQR+KviP+8a5s/DNtb+U8sc2+4bcq/7NAGY/ijxktv5UXwx1p/NidJfNvLD5d39z/SP9qibxV4t81Yv+FZa68XmxS7nvLDf+62f9PHzfdrUj8UfEzy38+w8Mw3HyeVF5s7b91YfjL/hbHizwnqGlWc+haJqt1/o63FnJL50DbN+9Gb5aALEPi7xcn7iX4Xa69urSusyXlhv+b/Y+0f7VE3izxreQ7JfhnrcKxRbIvJvLD5v9/8A0j/ZrEuPjV4p8L6XqdjqemabLqunRxqrQzu8Uv8AD/47/FXYQ+JviVCrrPY+G0+TdBse4bzaAM1/GHjaaKWVvhhraXbNE6ol9YOny/7f2ik/4S7xxCsMqfC7WJrhZZXaF7+w2Lu/2/tH/slaS+JPickUqz6f4XS7RlTyfNuP4vu/NSf8JJ8T5I0WKx8Lvdszo1u0twm3b/tUAZaeJvGVnGkUXwz1qZWtVt5WlvbD+H+Nf9I/2qm/4S7xhHJ5Mfwx11rTzUlaZ72w835f+3j/AGavN4n+JMyxNZ2Hhu5RokuG+a4Xarf5apP+Ek+JUk/7q08Ly2itse433Hyt/u0AZX/CWeMPtCeb8MddS3jaVkdLyw3vu3/e/wBI+X71Y91D4v8AGF9otpP4L1LQIrNfmu7i6snRl2OmNiSt8zbv92upbxH8SlumiktPC6QsXWKTzbj59v8A6D91q4fwzr3xE8A6pcT+JbnT9VtNcna9td87t9jXZv8AKT/Z+WgD1z4b2Emm2N7bSrsaK427fl37fKTZv2fLu2bfu129cT8ONYl1q3vbyeJYZZ5UdkT7q/ukrZ8XalNoPhfWtStlV57OzluI0f7u5EZqAN2ivAPDvjm+uviJLoVt47Gs61BrFzYXXh6QWbG1tUtXdLqWKKJZ1+dYvmZ9rebt/jSq3h/4ieJJLzwra6x4oRL24uri2SGK2ghGsMuotbyoqurt+6t083bE27+JmZaAPoiiub8D6lPqfhu1lun864jeW3ebG3zfKleLzf8AgWzd/wACrpKACivmH4oXV3qn7RGraRNN49uLC18L6bd2lp4NvpbdIp5bq/SR5VWVFO4RRff/ALlc55nivUPiBY6L43uPiBeavZeD9KuZ7bwdqDW6RXktxerK8/kSpEzt5UX+z8jfw0AfYNFfLXg/xT4z8G/Fbw0fHGs3n2ZvDdjp+p2Lyr9nt7yd72VLqXb8vmbbJYmZPkZpa7T9mjxB4g8SQ+PbvxBeXkssviL7Ra2d4+42FvPYWlwlqv8AdCeb/wB9b6APcaKKKACiiigBrVxfxo+X4Q+Ov+wFff8ApO9do3WuL+Nn/JH/AB1/2Ab/AP8ASd6CJ7H4ZeM/Ei2fiqKLbGnmyrFPNu+dVi2f/YVy6TfatU1iXdvTzfv1d1C20zVfFFu15FOl3cTtLP5P39q79/8A6BWLpXz2uoTxbtnmsi7686expTpx5T0X4H+Kp9KupYGZZv8ATIntUuPKdPN+5/F/D8/+7X1hqXxc1zx5ocuiroto6RTrpsU26JE3RJ8n8f8AH5VfF/wxexRdVkvvtLusUssH2dUf96ifJX0Xo/wivvEk7wRahp9tb3l18txqd1+9ZvK3unyo/wB+s+WMviPm8VWq0Kklh9eY2vE3xa1XUvh3aaLeWNskUW21imhb51aJ6m/Zy1SdPiD5reXcy3EVxEiP/e2b65Gz+HN9qvhzxBqEV5p8KeGd1vOksro8+13+dPk+auK0fWLmz1L7ZbTyWdxF92aGXY61fs4zjKMT5epjMRRxUKuIPe9bvNX034R+JZ5WWG3i8SSvBMm9JVb7Rv8AmrxHVfENz/b2oarBeSPqF/F5U9w6o7yq2z7/AMn+xV7w9f3Piq/l0y5vruaylZpZbeGX/Wy7Hff/ALX3Kydb8PfZr/XVgnbytLXftm++3zolRGMYe7I9ipWq4+UalH3Y7HXeG315PDlvLbauqPYM1xp0O5N67vkfYmz5q599Y1Ww1aK2a+b7RpqtbwfN/ql/uVieFfjNrWlXnh+zsYraGKCXyvu/6/dK7/vf+/r1d+wT/wBsyqqtNK0v3IV37t1RH3pe8dOYUKmGpU+STOp0rS9c0G4fUYNQg+1tE0TJ5u+WJWR//iKv22m+IYVvby5vNQv7dlivVe4i+RvnT53/ANne710F/qq6TpafaVa2iWdkV7hdjy/I/wB9F+b+5/4/VXWPGEE2zSrm2nvNQls1Tfb6i+yKVnR9mxk/8cqPdlL4Tb2c6NBx59DM8NpFHcarczzwWztt+RPvtu/uV1fifVZYfKWVfJlWBrWW0SCL5ZU+T7//AABKx7O21KHSZVlgtNHRYIrdftFm/wAyqn32dU+9/t/e+emaP45vPFtncX1zYwWzrut23qiJEjOm9/8AbasZe9I78HTlQp6DE0eLbpnm/a4XXd9s2ajEm75P4PnrPTSZUs4vtj3P+tl83/TkdGTZ8ifK/wB6urs5oryzsvNW+dGia4aa32JEsvzpv2f7iJWF4q17WvKtJ/tl3+9ZrjfMuz5m2b3T/vitqfvSPOzCVKhT5pfaPYf2C/s6/HC5RWZB9jl8tJG+av0ebpX5gfsTzNJ+0x4f+bO62vN3/fhq/T5u1epS2OzKJc2Fix1FFFbntBXzh+0Z+218P/2b/EWi6BrepQy67fXloLmykeWNrKwld1e9LLE6sqbfuD5mr6PrjviF8NdG+JcGhQawsxTR9YtdathBJs/0i3ffFux1XPagC34F8baH8SPCemeJfDmox6touoRedaX0Ssqyr93PzfN1zXTUUUAFFFFABRRRQAUUUlAC0UUUAFFFFABRRRQAUUx321wHin4saV4d1BtLh8zU9cFq11Fp1ouXdfn2lm+6iuybN7lU3fxUAd+7qi/NXy98V7jw54J8ZadPpvi/VodZvblriXw8073tvqLskuy3V5dyWrvKm1f3qJ9+tvWNd8WeKr17bWWm020uNOZf7E05GaLzW83/AFt75Xy/Js+5t2t/G1YWsaDBYeF9Q0jRdIVLRbVt2n6fsSxuN2/eksvlbvnTerv95d+6uaUjaMTgtY+Kni2bxBo6zy3fgPUFiaVPBs1gupJqnzuiO9/Ejraq77Yvn+43+8ldf4N/aWv9JvtK0rxXo1xouq37s+3TEl1LTIIB8oe4vVTyovuPu+f5Nnzba8w8H6rY+A/sWhtotz4esryC48rwtpjPq+iSys//AB9XV7sfb9x1ZHdlVfmfbWTZvY22lw2MGn/2JaP9ole08HKlx4Gl3fL/AMTSX7u3/nqibtqbPu1HKXzH3F4T+J2j+KrBbyzvbS9tHbZ9q0+4W4h3f7y110d1FcrujkV0/vK1fnVouvS6J9hvLa++wS26tL/bngWfZ4DsG/v3qLL97/nr8y/wfe/i9L8AftFa1Y6bb3k8lj4w8PxM76n468NzxRaZZqvzOjoz7mZf4vu/fTajfxa80okcsT7R4oJFeT/Db45aL8RNBXWNJuhqulPI0P2u3jeP5l+98jqrV6Tp2sWmqRhradZRj7v8VaKUSJRcTRoooqyAooooAKKKKACiiigD5z/aO+IXxa8Ga7pMHw+8OPrVjcW7tcsli84ik3cfMvtXkK/Hj9ppf+ZGf/wSy/8Axdfc1DIPTFeLWwNSrNyjVcT06ONhRhyypRkfDX/C8f2nv+hJf/wSy/8AxdH/AAu79p7/AKEqT/wSv/8AF19zY9qMe1c39l1/+giRr9eh/wA+Ynwz/wALq/ae/wChOl/8FD03/hc37UX/AEJ83/gpP+NfdG0elG0elH9l1/8AoIkH9oQ/58x+4+Fv+FwftRf9ClN/4KaP+FvftSf9CrN/4Kq+6No9BRtHoKP7Lq/9BEg/tCH/AD5j9x+f+peKP2g9a1ix1fUPhxZ32qWH/HrqFx4eiluIP912+Zf+AVsf8LY/am/6Fmb/AMFS190bR6CjaPQUf2XV/wCgiQ/7Qh/z5j9x8Lf8LQ/ao/6Fyb/wVxU7/hZ37VH/AELs3/gsir7o2CjYKP7Jqf8AQRP7xfX4f8+Y/cfCn/Czf2q/+heuP/BZFR/wsj9qv/oA3H/gsgr7r8selHl+wp/2TL/oIn94/wC0If8APmP3Hwn/AMLC/au/6Adx/wCC6Cl/4T39rH/oDXP/AILrWvunb/sijb/sij+yJ/8AQRP7xf2lD/nzH7j4Vbx5+1e33tJuP/Bfa16n+zn4k+OGreNLqL4jWMtvoi2LPEz2sEf7/em35k6/Jvr6W2/jS8CtaOXSpTUnVlL5kVsdCtDlVGMfQ5P4lfEzwz8H/CV14p8XatHo2g2rIlxeyRu6oWYKuQis33mFfA9jYeHP2lPit4r8GfDD46aXf+APF+sQ+K9d8N/2PP8A2ijRPC0ywTuiLslaKL733f8Avrf96fFbxVrvgvwPf6z4a8Np4s1a1COmlzanFpyum4b2aeX5ECpub5v7tfOWh+JPiVr3xjbxlcfAD+x/Fej6K2ntFa+PNOl+1RTyxOqXCqm75djujN/t/wB6vdPKPsH7oAopaKACiiigAooooAKKKKACiiigAooooAKKKKACiiigAooooAKKKKAG18X/APBTj/km/hf/ALCJ/wDQa+0K+L/+Cmn/ACTrw1/1/n/0Guet/CkcWM/gyPzhdK5zXrZ2t7tv4Nv393/jldLJWPrX/INuP+uT14EfdkfFR+Iq/DOFk8W2m7/nlL/wL909dV4q/wCP62/64N/6Neud+Hv/ACNFp/1yl/8ARTV0vif59Si2/wDPBv8A0N69nD/CfYZb8Ej5/wDiR/yMi/8AXqlcpXW/Ej/kY0/69oq5WvRj8J6QyiiiqAfHXtP7OP8AyEP+3pv/AEVXi1e0fs3v/wATT/t6b/0VUyA9L0F9vhXxB/27/wDob19afsZ3NzcfHDwX5+o2d9t0aXyltV/1SeU/yP8A7VfJWi/8ilr3/bv/AOhvX1l+xjaS2vxw8GmXSodK3aPO6+S3/Hx+6f8AetXg1f8AeonHSl/tU/Q+xv2oPiV45+FPwnu/EHw88HS+O/Esd1BHHo8VtLOzxs3zvsi+b5RXxv8A8N5ftd/9GuX/AP4J9Sr9KKWvbOw/Nb/hvL9rj/o13UP/AAT6lS/8N6fta/8ARrWp/wDgn1L/AOJr9KKKAPzX/wCG9v2tP+jWtV/8E+pf/E0f8N8ftZf9Gsat/wCCfUv/AIiv0oooA/Nb/hvv9rH/AKNY1f8A8E2qf/EUn/Df37WH/RrGr/8Agm1T/wCIr9KqKAPzV/4b/wD2rv8Ao1fWv/BLqn/xFL/w8A/as/6NX1v/AMEmqf8AxFfpTXj8fjTxv421DV7jwbbaHa6Pomo3GmsNaSV5dUkg+SURPG6rAqy7ot7LLyjfLQB8bf8ADwT9qr/o1TXP/BLqn/xqj/h4N+1T/wBGqa7/AOCXVP8A41X1xp/xy1WL46TeBtc0SPS9KuNOsWtNSjnDGLUZVldrOXnqyRPsZf8Ank/99K53wv8AFz4l/EnVPD1l4cm8K6S914cTXL3+1tPup9ztcyxbYtlwmxfk/i3UAfNP/Dwb9qj/AKNS17/wS6p/8ao/4eFftS/9Go6//wCCXVP/AI1X3h8LfG0vj3wy19dWy2Oo2V9daXf2kchlSK5gmaKXa+1d67k3K21flYcV3NAH5rf8PCv2pf8Ao1HX/wDwS6p/8ao/4eGftR/9Go+Iv/BNqn/xmv0pooA/Nb/h4d+1D/0al4g/8E+qf/Gad/w8S/ab/wCjU/EH/gp1T/4xX6T0UAfmv/w8V/aZ/wCjVNf/APBVqn/xim/8PGP2lv8Ao1XxB/4LNT/+MV+lVFAH5qf8PGv2lP8Ao1bxB/4LNS/+R6P+Hj37SH/Rq+vf+C7Uv/kev0rooAqWszXFrBJImx2VWZP7tZ+j/JZyt/03l/4D871sM2Grn9N1C0htZUnuY0fzZfldtv8AG9AFi50fT9Ss3gntoZomb5kdd9Y+peGdB03TZbyLRbN/s8TyxJ5C/erP+G80r6berLKvmrPvX5v4a6W8udPvLWVGvLbbKv3HlSgD50+P3iqf/hWt6iWltZ/apbB5bt7PzZV/0iJ/+Pdf9bs2/c/irKazXxN46+H+lT6ncpFdJdO0K6H5Ts/lP+983/lg3/TvWt8TvCt545t5dB0iKBLjz7WJXtLzypf3To77Jf4W+R9tW7DwlqEPxI8KT7dUR9JaWKf7RqKPb/vYnRHdPvSy7/46sCzDqFzZ+H9Q8eS6TJqMdnBcTRWNwvy/Z0Vt7+avyq37qtvxNf8AhGHxNpv/ABILua91KJvMmtJ3tUVYv9rem5vnroH8Ny2/ha40KdVTTJW8prF7xU3RPE/mpu/uu7VzqJfTabFFOuiWGp291si/1W9vn+TY7fxbEaoAzL680i2t7vSNA09fDyWEvmtNM0T/AGrdv/23bdv/AL9etvbJDcRQRfuYl+x7U/u/O9eeXkN5I1xtnsZneWWXZb/Z2l/2N713c2sQf2skEDtNKzWqfuV37drvv3baAPM/2rP2TrD9pTStNk/tQ6Jrul7/ALNeeV5qFW+8jLurh/gb+wjY/CLQ9Wln8RS3/iW8e3ZL6GBVitVilWVUVG/vsibv92vqPR/Emm69539n6ha3/kttl+zy79rf7X92tG4h/wBHf5v4aAPFvC/hvxJrFlqbSeMZCIj5Su1rbysqr/B8n93bVew0Xxj/AMITe6leeM2+3QSPcfaIbCLc3yfI/wAyf3P9mu28JQwwxa1H58k0O7/Wv8ny7H/zuql4Yt/tng3W7WBZZnllZVheVUl+4n937tAHKalZ+JbbwNb61F4xnT/nq6Wafd/j+bZu/wDHata9oPiezXTZV8XbIrpV8y0e1iVH2/w7dnzV3Fr4Q/4SDwXb6XeNPbt96Xzfmf8A3ar+PLVdOj0SNbu5Ey/6Ou3/AJa/d++/8H+9QBydz4d8VW3i+0g/4TP91Kyv9ne1t9+7+/sq1Y+FdfuNavrFvGbTQW8WwQ/YYG2q+x2+X/4ut3WpIo/iBpRMrCVkVSv97/d/iqvpsyv8VNQiiWb/AFX713Zfl+RPuUAc7peg+KLy111ZPGM8j2u5Flazi/h3bF+58tZlnY+OpvA0upf8JfeW2oWsu/Z9gg3y/wAH8Sf+y13XhX922uqrNc26+a3zJt3fO+9NjU34RzReIvCMsssUflNdMn2fbu2bf4aAOR0L4LTeJvB+oXOp+JLt9W1ZU8y4a2i/deW/Hybf++qu6T4f8RXWo6xZTeNZJpbZmiXdaxNtTd/47XstnaxWdusMUaxRL91EXbVVrCCGS4lito0lf7zJF87UAeJ6HZ+LNV8OaneXPiq5S4t281XmsbffL/cdP4dv92nPpviz/hDW1VvFlzbX1vK2xEsLdJZWZ/ufN/HW94D1Jbzw54onW2VEt5ZYvsm1P4U/jrd+GLx634DspLmK2uUlZn8pF3otAHDa3oviWx0vRLrT/GDPFPtiZYrVNksWzd/c+areuaP4l03xNaQf8JZM9rPtZkWwi2I2/wCR9lb3xavItD0bSlitLbZ9siii3xfJAv8Afru/7Ntrl7eWeCOaWJflmdfnWgDy5PDevTeJpbRvHF35uzcqvZ2+yJm+/s/i3Vi+F/A+s6t4sNprPi6+1W00j/UJLZ26f31/hT5v/Hq9Fhh8z4gSyQQKiRJ803z/ADNs/wC+ar+DbpZvG2vf6P5WxlTdt+//ALVAG34P0saPNqtr5zT7br7zf7USNXQ3EEV1C8MsayxSLtZWXKsvpWNZySpda40C75PtS7V/7YxUG81TP+oBFfNZlnVLLZqE6c5f4U2axpuRpWNnHp9nFbQbhHCixrvZmbav+03WrbR+YrK38VYX27Uv+eAo+36l/wA8K8n/AFtwv/Pmf/gDK9izT03TbXR7G3sbKBba1t41iiijGFRF4VRV/dXO/wBpah/z7mk/tLUv+eP/AI6af+tmF/59T/8AAWHsZDrfwjplr4vv/Esduy6vfWVvYTzea2HggeZ4k2/d4a4l/wC+qW38K6bb+KrzxEkDDV7yzgsJ5t7YaGJ5XRNv3eGml/76pn9p6j/zwH5Gj+09R/54D8jR/rbhP+fU/wDwFj9jIyvFnwp8OeObfWI9ZsZLpdWgtba8VLmWPckErywgFW+Xa8jn5fWtrR/C+naBfaxdWUPlTatdLeXbbmbdKsUcQP8As/JElRf2nqP/ADx/Q0n9qaj/AM8f/HGo/wBb8H/z6n/4Aw9gzoqK53+1NR/54/8AjjUf2tf/APPE/wDftqX+t2D/AOfU/wDwBj9gzpMijIrm/wC1r/8A54f+OGj+1r//AJ4f+OGp/wBcMD/JP/wBh7CR0K5rjvi9am++E/jSGNgry6JeorN0+aBxWgurahux5H/jhrM+MVxcWvwf8cT2+0XMehXzx7vu7xbuV/Wvdy3NqOaRk6UZK38ysY1KfL8R+D9nqS6PNb6hbW1tNqFxZ3Cb0b51/db9/wB/73/xb1zmj7rbwy6z/JK0rP8APT5te1XQUtLm8ttPe4WJoovtcCypt+//ABfe/jrMttei1i1e2ggbzW+fZDFXdIuMo8vMdh4F8H6jrGg3GoW1zBbQ28uxt8qI7K1e1/Df4it4b1bT7yfT11L7Gu1kuH3/ACqjp/F/v/8AjlcD8KNK0q68HourwXyJLOr/AOiRP5u1f7n8Nd38MdL0y21bUG8Q6R4ke33MkUOnxJ80TI6/Pu/i+7XNGvD3oyPksyy3FVK0a2EOm0HxtPbeHfGtj/Y0kyeI2R4nZfng3vK6bPk+ff8A+yVwmq+EtV0TSUub6xubNLpl8qaaJ0SVWf8Ag3V6rD4e0qzuLS80W08XpcRXUXlfa4InRbdf76fxt87/APfdbHifR9X8T+FdMsdIsddv5fI+zsms3SeVBKuz/VJ/d+SrjiKUPtHl1clxdWnzVbylHyPF/AepJZ6sjRQK93uWKB5ot6RM3332fxVoarC02ueMFlvNjssu5IWSL/lqnybK6DSvgb46trdJ10rfbttlbZdIm7+P+/Ur/BPxskupyxeHo/8ATN0X+tid1+ff8nz/AOxUyxFKcviR34TDYnD0o+4+a/Y+b9KvIE1yyXz/AJ1nX/f+/X0HoKXOm6zd6vA0b29vA3zzT/635E37HX+KsrxJNPpuvaZbXnh9dKuNJnV54U+fd8n9z+9XS2fhvWtB2af5ti9vf2rbt8sT7Yvk3/Jv3K33Ko7sRi/rEow5SK88SaZ4nv7TbYqiMzJFDNveVfubHd/4v46880fxDqeq+KEs2ZU+ZvnSL5/l3v8Af+9Xqul6Oz+IIrnz2s7iWKK3Xzm2PuV0il2f7j/L/wAArQs/7Vh0v7ZJebLuzl83fu+eVd/+5838fz1HwmtKT5Ze2iW7aaC88G3vnzrDe2s6o03nujysv8ez7v8A33WVYfCvUPEP9lTwSx2EVu0t1P8Av97youz5H/h/3fkrV8SabLbeINQ+0zxonlfZ2ht9+yL+N3/u7aqWd/Fol5p+lWzNZ/ZV3z3bz/unXY/95N3z/wAP+/WHwnXGUvd5onFXkNy/iO4tlXZKsv2dYYfkp/2GWZrSVp1mt5W8rzreXzdv9+uwm1vRWvL2Czuf+Jms/wDy8RfZ/K3bHTzX/wB/fXKeG9Vs3v00q5ZdB0xZ5Zf+Jejvulb/AL7atJVJRl7vwnz+IwMJqXtZe9L4ex0PgL4hXPwM+Jlr4j0zT21t7b7RbxRyMyLIrJt3/LXusv8AwUe8VSrt/wCEAgH0upP/AIisD9im4bUvjxa2txK13EttdOom/u7WWv0U/su1XpbQj1/diq9hiKkuelW5V6H6ZwtnGTYHLY0MXl3tZxb97ncevax8Ef8ADxzxd/0IcP8A4FSf/EUf8PG/GH/Qi2//AIESf/G6++/scH/PvD/3wKX7JB/z7xf98Cj6pjf+gj/yU+w/1k4e/wChRH/wZL/I+Af+HjHjP/oRrf8A7+zf/G6P+HiHjr+HwJbn/tpL/wDE19/fZIP+feL/AL4FH2SD/n3i/wC+BT+qY3/oI/8AJQ/1k4e/6FEf/Bsv8j4B/wCHhXj9vu+Bof8AyN/hTv8Ah4J8RG+74Dj/AO+Zv/ia+/fsVv8A88I/++BR9it/+eEf/fAp/VMZ/wBBH/kqF/rJw/8A9CiP/gyX+R8Bf8N/fEtvu+AYz/2yuP8ACj/hvr4n/wAPw+j/AO/Nx/hX379ht/8AnjH/AN8Cj7Db/wDPGP8A74FL6ni/+gj/AMlQv9ZMh/6FMf8AwZL/ACPgT/hvH4qfw/D5f+/Fz/hTf+G7viw33fh6v/gLc/4V9+/2fbf88Iv++BR/Z9t/zwi/74FH1PFf9BH/AJKhf6y5F/0KI/8Agcj4E/4bo+L38Pw8X/wCu/8ACk/4bi+Mn8Pw7H/gvuv/AIqvvz7LB/zxj/IUfZYf+eEf/fIo+p4n/oIf3In/AFjyT/oUx/8AA5Hh37Lvxm8V/F7QdYuPFehDQrq1uFjhhEEsZdSobd+8+te7fNn2qCG1SHBVUjbP8IxmptvJANerShKEeWUuY+CxtelisRKtQp8kZfZ3sTUUVzvjDxBP4c0K4v4NNutTliZF+z2qbm+Zwu7r91c7m/2Qa2OM33bau6vOfGHxq8O+F7qXTYLpNX19YPPi0WyuIvtMmfuDazrjd/tV81fGb4wfEPUL7WrO+83RPBXlKi33hlpX1tW+R98UWzbt3/Lvf5dv8avXC2HirXNE0G4WDXLzUtCltlllh895fHMvzp9+L7vyOn8aMvlVHMXyn0f4g1zXfG95d2d/fSabp8tn5UujWKusyvKn/LW9if8AdfI/ybNrbvmRmqCz0r7BZ/2ZBE1slvEtv/Zliry2Mv8A18XDW+7+P5vut/vV5PD8coP+EfeKCxkuZfKV18F+bF/bcq/IkqS2u/5W375fkfb5T/6quJufG2oarLLocVzY22n3UDeb8MtqW+vS7tjvEkqyqsX/AD1XZt+X/lkzfeyNT2vxZ8TtA8Gat/wi9zPaJ4tv4P8AQ/Cenr/o90zb9iO/2favm/7e1a8n8Q+P9e1vWbLQ9Xlbwl4gvImRfAFjAl1Y6irfc+0X6xbYll+dfk3bfvb1/h5ewvItNaLwFp8q6bb3EH7/AODl2yS31/u2O+/Umf8Adb0/e7PlZVT7n96LZBoOqWngmKVfCqXUWyX4L+Ul0mqMyJ9/Uv8All5qbG/2Nn8NAFiFZfDF1pnhVdPn8K3GpK0q+ENDie98OX+7eu+/uvKf5X2bZf8AW7VRPu/wy7JbDUtHgaC+0q7ZZXi0nwKry+A5f9vVH2fd/wCe/wB790iViIkXh7VLLwd5TeA7u8Xf/wAKqtFS/wBM1nd9x7i/8ptqy7Nrb923Z99f4Or8N+EpbO1t9MuopvA3m7ml8EeHpYrjw9fq3yb719nzK+zbL/rflT+GgDmnuWmvNPvp4GS6s1l233w3nf8A4QG1/wBvVE3p8yfel+7ui2feqGzuft8un69PAviTUNNWX/isvh7efZ/C2ibfmR7q1+0IreV/rZU2qrLsX5q7a8+HS2zafFpUsnh5LdWuP7P8FyxReGZWbf8A8fsW/wDe/c/e7H3eVs+7XD6roOp6DqXh+fUrO5+1287JZv8ACdnTwza/f2S39vvRv+uuzb+6T79Z80TUsaPqv/CTXWn+I91p8RbvTVbz/ib4elSytPD+35032G/960X+t+4u7ft+au68AfGzxQ8UU/hzVY/ivoVvOz6j4p2/2VLYf34ltVi3S7ETfvTdu37a89RJfFV5pWoamtj451jTZWSz1D4ZTvb6Tp3z/wDL0iyou7e+7/lluVP9a38LHT/hYV/DeahFpvxy1jTZ/wBxqHhu8i01NJVt7ojxb9su997K7pt+TbvrQD66+GX7V2k+MdOlurOeW/sop/s+67ge1ldv9nf96vZvD/xG0TxEyRwXaxXTf8u8/wAr1+ZlhqUHxIvJWsZ9P/aB1Wwl2NcOsWi/2WrP8n3k2zrK+/8AvKvlf7daHhL4i61dXmp6f4T8RyfEXU7effff29E+mpYKr7PkfykWXe/+2v3PuUveiZ8sZH6mbqXiviz4e/tRTWt9facuoXKJpy/v4tbtnht1+fZtSWXZ/n+Gvf8Aw18fvDetQw/2hcro0sn3HuJB9nf/AHZfu/8AfWKuNS5l7OR6rRUEUyTKrRsro3zKyt1qetjMKKKKACiikoAWiiigAooooAKKguLhLWCSWQ4WNdzVxHhn4teF/FmkeE9V0nUvtNn4rdhpkoidfNZYnldG4+RlWJ/vf3dtAHfUVjWPiPTNUiL2epWt2qzNb7oJ1f8Aer95OP4v9ms5viN4ZXxF/Yn9t2P9qfZmu/sxnUERLL5Rb/v58v1oA6qisW18S6Vf3VtbW+qWVxPdW/2iCGK6R3lj/vov8S/7VbVABRRRQAUUUUAFFFFAHj37UXg/WPHHwc1XTdC0W38S3kV1Z37aFd3n2SHU4re6inltXl+6vmojJ8/y8/NxXgH7IPwL8X6T8Sj8SfEljounazrMerX+vXNnqi3t21xeXSfZ9Pbyvk8q3it1bO770u1f4695/az+Huv/ABS+A/iDw34cT7VqN3JatLY/avsv263S4iee383+DzYldP8AgVeGfsxfs0a78Jf2lPEuraX4Lj8B+BraLUbVJodRR11xZbtHtP8AR0dtiwRKy7n+b56APtqiiigAorkfiB8TfCvwr0eHVfGHiHTfDOnXE62sV3q1ytvE0pVmCb2/i2o5/wCA1xH/AA2Z8CP+iveDP/B1B/8AFUAey0V41/w2Z8CP+iveDP8AwdQf/FUf8NmfAj/or3gz/wAHUH/xVAHstFeNf8NmfAj/AKK94M/8HUH/AMVR/wANmfAj/or3gz/wdQf/ABVAHstFeNf8NmfAj/or3gz/AMHUH/xVH/DZnwI/6K94M/8AB1B/8VQB7LRXDeLvi54K8A+G7DxB4l8WaPoXh/UXVLTUtQvUhgnZ0LoEdjtbcis1cn/w2Z8CP+iveDP/AAdQf/FUAey0V41/w2Z8CP8Aor3gz/wdQf8AxVH/AA2Z8CP+iveDP/B1B/8AFUAey0V41/w2Z8CP+iveDP8AwdQf/FUf8NmfAj/or3gz/wAHUH/xVAHstFeNf8NmfAj/AKK94M/8HUH/AMVR/wANmfAj/or3gz/wdQf/ABVAHstFZ2m6ha6xZQX1pPHcWlzGssE8bbkkRhuVlrRoAZXxh/wUyX/i3fhr/r/P/oNfZ9fGH/BTT/knfhr/AK/z/wCg1hW/hyOPGfwZH5zSViax/wAeFx/1yatusrUraW5t5YoImmlZW2Ii73avnI/EfE/bK/w+/wCRosf92X/0U9dL4q/5CUX/AFwb/wBGvXOfD1P+Krsv92X/ANFPXR+Kv+QlF/1wb/0a9e5hvhPr8t+CR4J8SP8AkY0/69oq5Wuo+JH/ACMf/bCKuUkr0YnphTP4qKKoB9ezfs3/APIS/wC3l/8A0VXjNe0fs3/8hT/t6f8A9FVMgPTdB/5FHXf+3f8A9Devqr9ieGyT43+EmtYL6F/7Mn837X/E3lP9z/Zr5V0H/kUdd/7d/wD0N6+rf2Lrlbj44eDf+J02rbNJuE2um37P+6f91Xg1v96icFL/AHqfofpCsjfxKQPcin7/AO7XEfFDxFrfhrw1JeaBpn9ragrKFtwrNuXPzfdrxz/hdXxY/wChIdvrayH/ANmr6/C5bVxcOeEl82kfUYLKa+Ohz05RXq0vzPpzd70bvevmT/hdnxZ/6Eh//AaT/wCKo/4XZ8Wf+hIf/wABpP8A4qun+xsR/NH/AMCR6H+ruK/nh/4HH/M+m93vRu96+ZP+F2fFn/oSH/8AAaT/AOKo/wCF2fFn/oSH/wDAaT/4qj+xsR/NH/wJB/q7iv54f+Bx/wAz6b3e9G73r5k/4XZ8Wf8AoSH/APAaT/4qj/hdnxZ/6Eh//AaT/wCKo/sbEfzR/wDAkH+ruK/nh/4HH/M+m/M968U8TfAyXVrbxJpMFxoF74b128k1P+yPEvh86lHbXsmTLKmZ0UqzfPtZPlZ3+b5ttcf/AMLs+LP/AEJD/wDgNJ/8VR/wuz4s/wDQkP8A+A0n/wAVR/Y2I/mj/wCBIP8AV3Ffzw/8Dj/mdbpP7Num6b4d1PQpdVuZbC50XSdItLiOJIrizlsEdYrpG+75u5kdfl+Vkqn4J+Avi34cr4en0fxjplzf6b4ci0C5n1LRJHW5ZJ3l89Ujuk2ffPyfN9a53/hdfxZ/6Eh//AaT/wCKo/4XZ8Wf+hIf/wABpP8A4ql/Y2I/nj/4Eg/1dxX88P8AwOP+Z7V8MfBC+A/C6ae90b6/muZ9Qv7wx+X9pup5Xllfb/Cu922p/CoUdq7Ld718yf8AC7Piz/0JD/8AgNJ/8VR/wuz4s/8AQkP/AOA0n/xVP+xsR/NH/wACQf6u4r+eH/gcf8z6b3e9G73r5ek+O3xSjuYoX8GbJXVmSNreTc+37235qZafHj4n6lZw3lp4RS5tpo0linhgkdJFYZV1ZW+ZcU/7FxH80f8AwJB/q5i/54f+Bx/zPqTd70bvevkW1/ao8YahdajZW+k6bc3Omq739vFJue1VTtbzV3fJs/i3Vp6d+0B8TNZsIr3T/Ccd9ZTL5kV1axSSxSL6qyn5qf8AYmJW8o/+BIf+rmLW8of+Bx/zPqfd70bvevk68/aU8fWGoW9ld+HrO2vbif7PBazbllkl2q/lqu75n2Mrbf8AbWrOqftBfEnQbC41DUvC0VjY2675ri6ikiiiQfxM7NtWl/YmJ/mj/wCBIP8AVzF/zw/8Dj/mfVG73o3e9fJth+0t491jTYNRstBsrrTZ5khhuoGZ4pZGbZtV1bazb/l21ft/jx8UbpZWh8HecsUjI/lwSNtZfvL9771H9iYn+aP/AIEg/wBXMX/PD/wOP+Z7z4z8cWng2TSY7i3u7uXU7r7JbQ2cW9nl2PLj/vmJqwPDPiTT5mu2vbG4guZbx9kVza/vfv8A+xurzmHxRr3iy++Gt34i0z+yLuPxXLEkO1huX+zbv5/m/wCB161YLus9QZv+gi//AKHXj1KUqU5Ql0Pm61F0KkqUt0M1jWF024ils9G1K8/cSxMlva7P7n97bTv7Y0jR9Nt/t1m1siqqM81tsTd/wKtjWNFe+uofLlVF/wBr+D/bT/arzrxzc2fiSPU9F1Xy7yyt5/8Aj3eLejbf79YmJz/jyax3C5+2LYWksqts+x74m/evv81/+WS7d1ZvwfXwnN48lfSr7T7m9/tO4/49Pvr+6+4n/TL/ANmqfx5ZaH8N/g/fW2h+H9N021ia1ZWhtluP9fLEsr+V95vvvWVN48bQbrTNMs5Vs5tc82VprfTPs+1fK3/I/wB1W+T7j/36APTvDFnpGpazqf8AaH2a5l8rYvnL86rvf/O6sG//AOEes7fRP7KaKaJb5U3zS/ZUX90/3NqfM2z+CpfEGmW+qXXg9ri/s7jdYyrsuoEle4+5tf7j/KtN8Npqt1rmoRweLLaayiiVF0/7jo2xvm+4lAFfS7jRv+EluPMs2eZYHiT7Peb9kXz70dGVNrf99V3vhnWNBTULq2s7v/TJW+VXulfzfvfc+auj0lY5rOJlnW4l2qkrq/8AF/HWZrEMX9oyuyL8rWvz7f8Apq9AHB/A27W41TxCi6qt+kU7osMapmD96/yNt+9XsNwvnRvH/wCy15xonh5vDFnqsGlKsMt5uvV8lt/zM/8AuVo6bqGvQ+GbcSxL/aLRSyt9oZtyqv3f/QqAKFxdaV8OLW+gvrhm+1K0rPFBt2/w/wAXy1D4D8QaHZ6ZdTxXsjpPP5u+4X737pPnT5vubGX/AL6rld8HjC4itvEt5cpZNBvZ3ZE3S7/ubKm03QbFJL2z02eS5tLddkVw8qPtbfs+f/Z2JQB3cnxQ0qPSf7TjS++ztF5q7rGX7v8AC7fJ8q1BcR3PjyG1nikWzaAusqoz/wCw6/eRf7q1wCfDeL/hGbTSpdXg/dNE7P8A2jL/AH03/wDAX/ufdrpPHdx4m8MtF/wjeoQpG0FxO/26Dz/Nl/deUv8ADsT7+5v9ygDe1rwte3nj7R9Vi3JaW6bZ/wB78rt/D8n/ALNWdpsF4nxY1WWWWP7K1t+6h83zfn+Tc33f3X3a6fwfr0/iTSftMsCwyqzIyK25K5zR9Nlb4sa3fSsrw+QsSrMvz/wfcoAd4H2atf8AiW3iaTyop2g3u+7727dt/hrsPD+ipoulxWSSeckX8e1U/wDQa53w3pcXg+81L7dNbRXGqXTPE/m/PL/cWn+FdV1W51TVYr5t/lL+62fc++6/+yUAdr5nyqV27abJCsyt975lrlfA+panfafI+qhPtqtj5fu4++v/AI61dLNdCG3ab+BFZm+WgDE03wZb6Vo8+mRyO8E2/c7Bd3zVo6Lo8elafFaRtuSJdq/Kqf8AoNQaD4kg8Saf9rtEmWL/AKbJsettfuUAYOveF4NeexeSRkazn+0LtVfmb/ar5/0346eI7f8Aag+JHg67kjvPDmg6Emq2tv5So6ts+dN/92vqGvizS7iDTf26Pi7eTwLcRQeFIpnhf7kqqn3KAO3+E/7eHws+J0kFnLqbeFdYl+T7DrG2JGb/AGZfutX0TY+U+yWB43Rv40/ir8p/7B/Z2+Pcnm6Rqt38IvEtx/y6ah+90+Vv9l/4a+6v2O/hv4i+Ffwli8Pa/rNnraW91L/Z13Yz+bE1q33Nj0Ae0aL/AMhPWf8Ar5X/ANFJWxgelcna6m2l+ILu2u12LeSq8E38D/Iisn+98ldUjbl3UgHbR6UbR6UtFTyx7AN2D0o2D0paKOSPYBNg9KNg9KWijkj2ATYPSjYPSloo5I9gE2D0o2D0paKOSPYBNg9KNg9KdRS9nHsAzaPSuM+M23/hUPjnd93+wr7d/wCA712dcV8bCF+Dvjot93+wb/P/AIDvT5YpaEydo3Z+D/7THh6ew8ZaPZrqH2m3bSbV4vl+6uz7j/7Veb6DpV5purW7RXLJ82zzof4Vr0j4kf21441y01D5r+48j7OkMMX3UX7if981SsPhv4hs4k1G+s57O3VVlV3i3/Lv2b6833oRtIwo4zC4iP7uWh6b8VvA2s/C7xxLpC3U76eyq63EPyRbmRHf/wBDqppOqancXH7jUNQfyl82Xynb7i/erX8XeHdc1aPSb/UNVa/u9RnSKTzvub2/9lrJ0fUrzw/qTywyL9ot5XgZk+438L0UYU6lPmPgs2rYrD17uUox9T0zWPENnr1xd33hrWvEFnpVrFaxNDcK2/czuj/x/wC5WbqXiTXPD2qXFnB4h1b/AEWVk+eWX738dHjj43XPiq3fdpGn6a7RLbr9kV0/j376x9V1iXxDqV3qE+1JbqVpW2LsT5qunhl9qJhi815qXNRnLm+Z2EPxCb/hCPsP9p67NrbSqm9JX8pYv++60JvENtpum6rBLZ6peXFgq3TTPfP5v8fybP8Avv8A77rhNH8Qy22pafpkVnHN9olVPn+X+P8Ajr07w3psHhLxJe6HrWuaTpuoXUEV6s1xKksMsSvs2O7On9/7n+3XBiaEI6QPpckx1XEOMqq5uhmeKv7Ih1eJmttS0q4uvK2onzp5TfJL8/8AufdrqNS8hNDliW2nfyrO6SL/AEVPlVtnlf8AAvk/zvrJ8YJY3/xEspdNnj1WyaziilfT54kiibe/3Pv1F4n8VS+G7DUJdTvLz7I0uz7Rbz29xLub5/4NlXHmhTiegoxniJ8seU5zw9YSx6y8vkNrDrB5s/nL+6270d9m7/b2bq6vWNulae9nBFbQvLp1x5CpKm9f3u9E+597/YrE0Tx/pmq+FYrGz+03KNdbJX1Bt7qvzu77FokhtNV1LUFs5YJrhr5nWG4s3T5fk+58/wB77nyf7dWVGn7P91+Z22lXM/iH7XLcwQebLa/3YvmZrfZs+5/frj9buZ7zx5b3ltLJMrWayypCyJ8qp89Zlh/wkOmrdwaheQTRW6/Z1eGB9kW1Nnmvt/4A1S6DNrVzpt35t9HDqbxSpFMmmb03b/nTZs2/7P8AwOo5jqrUZTjy8xb1jT/+EVt73XrOCBL2WeJN80qXG791v+5s/uVn+CYZ9N8TWV40rabLPudbu4i+T7n+1sX/AMfqw9nqtnpqQX265vbWX9/DNBsi2qibPk2f79Z95r1nNa3dtB9puZZ7r7Wz3zI/kf7CVEoycbR6nhYmtTU+epLllDZdz6A/Yt+b9pB3a5W5f7HdfvY/uy/7dfot/hX5p/sRTTwftEaZFLuTfZXA2ONv/LLdX6WDtXs4ePJA7Mpqe1oOXmSUtJS10HuhRRRQAUUUUAFFFFABRRRQAUUUUAFJS0UAFRtHvVlb+KpK5nXvG2m6C3lNJ9ou/wDn3i+//wACoA8V1uG2hW9+3QMlva/P9oT59v31f/d2J82//fryfxz8KPDmt+JtQ0jStTj0HxnKq6hPfaN5UWrfZ23pv83Z8yv93f8AK399/wC96V458YRaP4g0+1aebTX8QLcW8Vxt326yr88W7/a+d9vzru+f/gPnvjyx0XxUyX2oae1gl5oV1EviTRpX2Wq7JXlRH/ubE/j2/fT/AIDjE1PLPFXhXVfCVvqba5p8n/CPxbbdfEPhbzZfGN19/ZLK+xPlfZtZ/u/w72rPeadFlglVtS0L7GqLaaZ5r/EHb/B9offuX5/lbf8AL5Xy16roPiTWrPTbTUPtNp45+H9voEVxBq1vL/p0txE7o7vLvT7+z5n+X7n+/VK8+GPhDxneXd94H1yPQfGF/Auq3WraMsSax9nld0ffu/hd/lZ02t8n32/iZZ5/Df7LeXSFuV1XQvsOz/hDfNd/Hn3/AJ0d/N3Ku/5vkfb5X/LKpbCZXtbfwnbarBpWhXFnsl+GurN/xU0u7Y7xfaPN3Rb3/ers2/L/AMsm/iPGGg6h4Jl1i58Q2K6PoVuq27fELRm3+Kbx/wCDfti+Vn+62/b8v/LV/wCJqW1z/wAIr/avy3/g/wDs7evibbK/jxot+z5Pk/gf5fubfK/jrPlNTsPDHh628N+GZfCulLJomlNLsl8EX372W6ZtnyPdN80Xm/w79rL8mxPuVsWHkeG4U0Nv+KS+0fd8Gur3EV/u+RPNuP4fN+78+7bsrj/DupX0PhK0bT5VufCjQM/2TXvNfxtPF/y1S3T7v+7s+Xb9/wDjq1Z+KpZtDt/7MaDR9Kl81JfD3i/ZFr2ors+dLWJXTdvT5YtjxfN/ermlGpINTrvGGvad4VaK21WSfwrd3ESpa6TDK7W94zb0TzXXfu3v8vz+b/uf3uM+JfiptB1a0g8Ry6t4VlupfKsYfD3myxXm133+bt3qv30X59zbX+4n8XM/8JPeQ28MGkXjfC7T7qVvtWjePIokvtU++n+j7pdqrs+X5PK+b+OqEKW3g+3RdIlk+AlpdXX7+HxJFFdPq2z+55ru3yb/AJtny/vU+eiNH+YrmHeJ4ZdHW0n8X2OpeDPNvm8iH4P+bsnb+P7bt/i/u/xfO/yVla3bXP2eVfGNiyWlveK8Fp8HGuIrtWb/AJ/0/wC+NrP827fUtykHgaw+06Z5n7P1pdSr/wATaZrfUk1n+4iJ8+3Z9/8Adbl+f7/3Kx3s7Pwrb3urrZx/BnTL1V2+OrGWK9TW93zoiRL/AKpZf+Pj5Pl+SuonUseJHufE630Hiq2tvGdpFKstj4e8BtLFrEDN/Hfxebu+RPlbf5rq38a/xHid18T2c2ka5c6f8S4rdVl074e2jJZaxYMqf8vEvmuzNEnysnzN/F/BTXjitrW915rNfCvhe6gV/wDhaGhyxfbtU+f7726xbl81/vJsXayff/vXYdKn17QZdVtvIm8GS2f7/wAeWO+LxNOqv8/3YtzNv+Vvk27U+/QBFearFrF1b+Grm8tPEOqrEr2Pwq1Rbe3fTtqfc+2rv+aKL5vv7mX79aFn4tvvDHiq00hb6503xXcWqRWvgOZXl0mBW+RE+0RRbduz5v8Ae+V3+/UOjwz614V0+2sZ7abwJK39nz3fiSK6TxNefxukTr977/y7Pl+Ta6fI9Ztnr1j4bbT/AAB4QgubyW/0m/1extLfUftHmsqPsS4ut/yq8sW3ZE/y/wAb1Zkez+BPjF4y8M28VjpH2SHxAjOk9lYz7tKi2v8APuVt3zfN9yL5vmr7m8B6xceJvA/h/VrtY4ry/sYLqVIvuBnRWYL7c1+V/wAOns0+J3w0bxDqEmseMG8M3XyaStv/AGZZr5su93eL5d334vk+Xclfqd8OYfs/w+8Mx/3NMtV/8hJSiZSOloopK2IMPVvFWk6GyR6hqdnYSsMqlxcLGx/76qmPiN4V/wChj0rH/X5H/wDFVx3xW+BNh8VNQsLy61K4sHtUaMJDGr7stnNcR/wxfo3/AEMOoZ/3Er3MLh8tqUlKvWcZduW54GIxGZQqONGipR9T2r/hZHhX/oZNJ/8AAyP/AOKpP+FleEv+hm0n/wADY/8A4qvGf+GL9H/6GC//AO+EpP8AhjDRP+g/qH/fC11fVMo/6CX/AOAnP9azb/oHj957L/ws/wAI/wDQz6R/4HRf/FUn/C0fB/8A0M+kf+B0X/xVeN/8MY6H/wBB7UP++I/8KX/hjLRP+g9qH/fuP/Cj6rlH/QTL/wABD61m3/Plfeesah8TPCF1p91AvinRt8sTKv8Ap8Xdf96vm3UvAdmt14UttG8c+HNM07+zbiPV4hqMe+21FtKlsku7f5v4/NXcv/TJH+8zGu6/4Yy0L/oO6l/3zH/hS/8ADGOg/wDQe1L/AL4i/wDiKPquUf8AQRL/AMB/4IfWs2/58r7zjPCFnZ+FXtdaguPDcGp2d1pwbTx4mt3SeKCKeF/KKQxImz7R8m9dz7Nrbflqmvhy1vdD+yalqvhKWTU3ne+j/taCWKLfr32/yTvH7xHiZl/4B92vQf8AhjPQf+g9qf8A3zF/8RR/wxn4f/6Dupf98xf/ABFL6vk//QRL/wAB/wCCL6xm3/Plfec3Y6Nodp8YLvXJtf0O40mbW4tXtb2HW7aI2sS2qRCLyfK3s25Nvyy7WSVs4+430D/wtbwZ/wBDVo//AIHxf/FV5F/wxloH/Qd1L/vmL/4il/4Y00D/AKDupf8AfMX/AMRS+r5P/wBBEv8AwH/glfWc2/58x+89d/4Wv4L/AOhq0f8A8GEX/wAVR/wtfwX/ANDVo/8A4MIv/iq8j/4Yz8P/APQd1P8A75i/+Io/4Yz8O/8AQd1T/wAhf/EUfVso/wCgiX/gP/BD6zm3/PmP3nrf/C1/Bf8A0NWj/wDgfF/8VR/wtfwX/wBDVo//AIHxf/FV5H/wxl4c/wCg3qn/AJD/APiKX/hjHw7/ANBzVPzi/wDiKX1fKP8AoIl/4D/wQ+s5t/z5j956y3xU8F7f+Rq0f/wPi/8AiquaJ440DxFctbaZrdjqE6pvaO1uUkbb/e+U143/AMMZ+HP+g5qn/kL/AOIrq/hn8AdI+F2uT6nY6jeXk8kDW7JcbAu0srfwqP7tc9ehlsablQqylL/DY3oVsxlUjGtTUY+po/Hr4uRfA/4Yap4rOlza1cQPBa2mm27qj3VzPKsUUW7+Hc7r81eLeOP20tZ+G3i610TUfhzJdQaNZ6VP451Cz1RPK8Py3zrHFFEuzN0VJ3fLt+WvR/2vLXwhdfs+eKf+E31S/wBG0OP7PML7ShuvYbpLhHtjAv8AFL5vl7V9a+V/2bdD+Hfx6udb8JeJtT+JS+OL/XLfxLrg8Z6XFpVxr0Vj+6S3Kxb1+zxPs3xblbdXiHvn6LUUUUAfA3/BZRfM/Zt8GL5DXH/FbWf7pF3M3+hXvy/jX5p+PJtA8XafFfWXws1DRdWiSKL7JZ20sMT/AOkSy3Evyp/d8qJf7u9/vbUr9P8A/grh/wAkP+G//ZQdO/8ASW9r53SHwZ/amnq0t3/Z/wBhi89/n837VvTzf9n+/wDc/h2fxUAfJrDwzNPd3V38PdYuZ3iaOBP7IaJF3NL87LFKi/Ijqn+15St8lZX9neFgYnHw38RTBp2aUNBKm2L5vu7W+9v2f3fl+X/br69Sw8MfZU83U7vzWgV/ki+RZf40+5/nZWf4ns9Ks9Zli0O8kv8ATF2+VcTRbHb5Pn+SgD4X8WeC7288SalNoPhfWrLRpJ2a0t7i2d5Yos/KrYH3qxf+ED8Sf9C/qn/gFL/8TX3ZRQB8J/8ACB+JP+hf1T/wCl/+JrW1jw2dJ8MRs2gaxb3eV+0317AyQr/srX2tXnf7QH/JJ9Z/7d//AEalAH1f/wAFKUd/2Bvgg3ktOi6lozMqLu+X+yrivz48deL/AAT4wsIr6z8B/wBi6rEsEP2Gz3Qwv/pEstxNlU/u+VEq/wAO9/vbUr9Kf2+IfO/YX+C0W/ZvvdGTf/3DJ6/P2b4bz20UUsstzDFKqyqz2fyMrb9j/f8A9h/++KAOei8UfD/7dfXeoeFbq9mMXkWq/wBnrbou55fmaKKVV+RWiX+82z+Cs1tX+Hq3EZbwbqTpJcyNLv3oyRfNsRdsv3t+3+78vy/7ddc/gDy1iZrmdPNXev8Aov3vvp/f/wBh/wDvirGlfDG51u4eDT2u7+VV3slvZu77d+zf9/8AvulAHhniqztrrxNqc2g6ZeWeiyTu1nbXC75Y4i3yq1Yv9m3n/PnN/wB+2r6F/wCEAZHlV7mffF/rU+y/d/g/v1F/whEf/P8AN/34/wDs6APn/wDs28/585v+/bVu3FvYR+HoYLbTb46o5/f3Esfyf7q17F/whEf/AEEG/wC/H/2dVdV8MxabYSzreNNt/g8rZ/7PQB+9fwdtwfhD4A3bkeLQ7Ftudv8Ay6ovzf57V3tcn8Jv+SU+DP8AsC2X/ohK6ygBpr4p/wCCnbsvw58L46fbm/8AQK+1jXxT/wAFPP8Akm/hn/sI/wDstYVv4bObE/wZH52WtnczWrzrbSPEv3pkX5Frb+G+if8ACQ+PtK0//n4Zk+9s/wCWT1d8KyRP4L1uLz1SVfn2P/7JXFPqt5oLPqGn3Mlne26u8VxC2x1rwuXlkj4/3Y1IyK/gmHyfGkUX937Qn/kJ63/FX/IUi/64N/6NesD4db38W2jN8/yy/wDop66Dxb/yF4v+uD/+jXr1sP8ACfUYD4JHz/8AEj/kY/8AthFXI11fxI/5GP8A7YRVylejH4T0Qp9Mp9UA/wDhr2X9m/8A5Cn/AG8/+0q8ar2j9m//AJCR/wCvr/2lUyA9N0H/AJFHXf8At3/9DevrH9jb7Wvxw8FfavsPzaPP5X9n7fu+U/8Arf8Aar5R8PJu8K62u7/n3/8AQ3r6n/Ytt1tvjl4N26PJpXm6TcNud932j90/72vBq/71E46Uf9qn6H6T7Qw5GaTy1/ur+VO7Ute2dp4X8cvifr3gvxj4P0DRfEHhHwlFrFrf3E+p+LrOS4hzB9n2RJturf5m89v4m+5W58Jfi7aePfDmjXF49uNRv7fULqNtPRza3UFpci3a4iLcqj74nVW52v1bG6tDxt4B1zxB488NeKNC1yw0a80ezvbJ4dQ017yOdLl7dv4LiLay/Z/9r79c5pfwS1jQbqLUtO8U2qa7I2p/bribSGe3l+3TRSyeVELhfK2NAm352/j3bmbNO7DmZtaP8ePCuvNpQ06PVL6LUbaxulubbS55YoEvP+PfzWVPk3/+O/x7a1/F3xK0XwXfWVlfJe3Oo3kM9xHaWFjLdSrBEVEsrLGv3V3p7nd8u6vNLb9l2W3s/B1sniCx83w5Y6TZRatHoph1PbZ7NyRXUU6MkU2354n81fnau/8AFvgLVdU8V2XiPQddh0nVoNPuNNka8sPtkMkUro4baJYmV0aLj5tvzN8vdS7HzM53wv8AH7RJ/Cfh691wTx3t5pFjqWp3Gn6dO1jp32pF2+bJ8wjXcT1b5V+d9q/NXbeLvHGl+DJtPhukuru91CR0trHT7VrmeUIhd2CIM7VXGW/2kX7zKD5Lbfsr2+m2NraxX+iXiyafptjfT6r4ahvbiZrWJIXe3aV9sXmxxKNjpKqkbq9N8ZeArrW/E2geItH1ODSdc0iK6tYpLuze6gkgnCeajIssTZ3xRNu3/wAH+1Rdi5mcd4b/AGhtJuvBOk6vqsN097dWEurXC6Ppc9ylpZrM8azShNzKvyfd++219q/I+3ej+OnhObxHPpMb30pgv7fSp7+OwlayiuZ4klgQz7dmWWWL6b03feXPN6L8BvEHhvQTY6X4yt47q50RdH1K7uNGMvnlZriVJ4l89fKf/SpeG3r9z+7Vy1/Z6ttN0PVtKtNZeGyuvEuk+IId1tveBbBbBUt/v/PvGnj5/wDpr907fmLsOZmra/HzwZcNM81zd6dYpbXl0NTvrCaKzdLX/j62ysu35P12vt3bWxR0H412IsfEN3r3n2ElrNBNZ6Z/Y11FetZ3DiK1/dPlppZZA4+VF2MdjL8m56nif9nW08YeBdJ8M32sPHZ29tqdrO0NqqvKt5FKh27mZU2ebu/i3bBVOT9muHUdK1CO+bwzFfTfYXt203wrBa2ytay+aPtEXms86u3yunmquz7m1vnouw5mdRJ8c/DcaxRLa6xPqbzz27aPDpkr3sTQKjzFotuQqq8bbud3mps3b1z3mk3cGrabaX0SyeTcxrKnnRNE21l3fMjDcvX7rdK8d1D9nNL/AEr7FLN4VkWS+nvZbc+EoksUZ4kiV4kjlWWKVPL/ANb5+752/wBjZ6x4Q0NvCfhXR9FkvrjVJNOs4rVr67bdLOURV3v/ALTUXYczPLPF/wAJ/G2veNNX1DTdf06wtbhZEs7rUGubwW8Ui2qvb/Y1eJNrfZ5v3qSq/wC//wBj5u5+G/hXVvB3w78L6Fqc2n32oaZZxWlzcabC1tb/ACJtXyomZ+wUfM3+1/s15n44sPF2ueLNWSa61i10613bY/7Ga9svIW4sJVKpEyST+akVwjIGZl+b5P8Anr654Ve7m8PaA2oWv9l3bWyebZ28GyJTs+6U+byv93dx93c1F5D5pHll58KfF2p6PqOlzJo1pax32qXdjcQ3cksl2Lu4ldYpUaDbFhZvvK0vzqrfw13Phnwfq+l/Di70VruPTtXuI7ryriGZrv7K8rOyfvXVHmZNw/ev8zkbm5NeYf2DqV1bXlvFZ6xpWoQ3+py6pe/2ZcMl1atqHmwRbd6/at8Sp/qmZlj81Pk37W9N0RvEGm/Ca5ljtiNeW3vJbCzaIrt+eVrSLYzfL8piXazcY20+aQc0jkdI+E/iqx8S2utyyW1rJJfxS3MMevXU/lRKkCv87xbrjeInXyn2p86t95V29z8QfDeqeJfCOuafp0Fmt9M8Ztftdy6xSbGR8N8jeVnay/KrdmriPCvh/UNY1HRv7Vh1W+SPULnUf7c1awW2u3ii8r7PEwVV8re77tqqu7yn+VN22us+KFrcXPg/UUgjv9RI1KxeW3itXdvIW5t3mRFRd0q+Vvz97PzL/s0XkHNIyb34X6j4khh1LWLPR4Na/wCEjs9ZjWORrhbOOL7OjrFK8SNudLc/wL9/b/tV1vgTwdD4L0u7063trS0s2vZZra3s49kccTN8q7f4fwridG8PalN/Z11Yw6xp2jReJ2urPT5HaDbZtb7H3xffWLzfNdIn+7vT5V2ps1fg9E0lvrV4lpqGkwXVyvlaXfWt1E9qqps3M06/vZX27nZdy7v43++xeQc0iL4uqq+MPhUAAP8AipG6f9g+6rdsH2WuoL/1Ef8A2epPHngqPxlNokv9oT6ddaTef2hbTW6p8r+U8Xzbv9mVqxfB/h/dFqDalrU9zdx3kv775Yv4/k+WpJOt1bXm024t12K6N88jO2z5f9j+83+zXk/j6w1nQbrUL6R4Esrq88qJPId93m/Kn3bhf4v9mu98RWd5dXMMFjrskDeVLOzNFFL9zZ/8VVhdHstd0m0bUNSkuQypPslaLZu+9/coA8t+MHhiPUPCtzp73NzpupbbNJLtrpbW3g2yxPvWX+BtsT7W/hauf17w3Pba94Uvv+Ehnm+yxSyrbprsX79Wi2ebs2fvZf8AprXcfEbwquvaHrE95qd29l59vEr2/lebEy3CbJd+z+B/mrFvJo7DxN4UuYm1K5uIp5UitJrmLyp7hon/AHr/ALrd8/8AsbUoAZ4k+InhzTdL0zUJdM8Ra3LpemXV276fKm/7PFs83cjPF5v+5s3f7FXPBM3hbxJr3OkeI9O1O/jiX/iYSOyOnlb0+dXdV2K7fLv3LVLxj8P/ABzrlu9/4al0BJrq1nT/AEppdkErr+6l+582x93y/wAVbHw6+Hfiq0vorzxKukwvFLAyppkj/wACfO+7/bf+GgD1/SNDttFtnhtvM2u7St5sjMdzda5H4m3Eln4d1+5t5GhnigiZJU+8rb3ruPOb7u7mvPPip9rk8O695Vs0lvJZ7vO/gTbv30AU/CPwo099F0+8XXPEiXF1bRSytFq1wm9mTd/eq/qvwd0y4t2afWvEk3lKzJv1i4bb/wCP113hP/kVdF/684P/AEBa077P2G429djUAePaDpv9sLo8t95l5EumfvZt371tlw9cV8QNNih+ImheVOum/K0qwzS+VuXY/wD302yuqh1iDw3puhXl3p89zaNZsnkwrv3bZXeug8Aa9a+IbXxBqFjbSQ28X7rZNFs2sm9tn/fDpQBzVz/wjU2my+Vp+pfa2X777/K//ZrM8eeFb7Xre0a6+17LeC6t97y3Cfaom8p/s7pFs279n333fc/26lt/iDqEPhrTtR/s/ZdzvFu/4kqpt3sn3/n+VP8AarbuLi78aWWjtc3c9t9o32s/9nxrsdXl2vv/ALv3P++noA7v4a3UF5ocgisWsFil2+V5m/8A2v611v2eP+7WT4d0eDRbWWODdteTzGzt/wDZa3KAPJfjVqVtY2lvAt59m1OWJv7O2you24/hf5v/AEKvJfFXw18XWPhnTLnwf4n8UT+Jbq8tf7VhvL5ti2u//Stm/wD2d+zZ/er2D4wX19o0MuoWeizal9ns3f8Acweb5u10fyn/ALq/LXnvjb9ov/hFfCfh/ULG11TWNV1K6tYJ7T7HLsgilfbLL/qv+WX/ALJQB1vgXwZceEfGWmxaTq+v6joksEv2tdYuHlRW2fJt3V6drVz9m0fUJ/v+VBK+z/dSuD0X4mQap44stB0+W9u4pbWWW5muYGTytv8Atbdtd3q0NzeabexWrLFcPA6xM33Ffb8tAHlHgfxJfw+JJra48OatpUSzqk8M11byxReanyfduPm/4Ale4L9yvGfDHgfxnYeKIry7tvD8On+arr9knneWJNnzp86fxV0+veP7jS76S2jt4HcS+UN8+z++3/stAHoH8NfDczs37aHxrVVZ93g1f/RVfYvhvxA3iTSXutnk/MyV8r/H74C/ErS/jI3xd+El5aTaw9mtrfaTffculT+7/e+6lAHx78H/ANl3StY8E3HxB+K2vXPgzwU8v2fTnhi33d/Kz7EdF2O23/gLb6+yNFvtH/4J6/Bu9tte1G48SW91q0r6TDbptuLhGX7jbvlTZ/FXw1+0J8Rfil448eaLB8S7G50SXTZ4orbT/sr29vF86fc/vf79foV+2r+zbqv7RXw90qDRbuKHxBpM7XFtFM2yKXcmx03/AMNAGX8B/wBs7wt+0tfal4Xm0a78PeIIrZruG3ml81JVVvvpKqL8yV9UWH7yxgZv4o1/lXwX+xz+xP4v+D/jS98Z+M5bS0ltbO4t7PT7Sfzd27+N3/3a+9NP/wCPG3/65r/KgC1RRRQAUUU3cPWgB1FM3r/eo3r/AHloAfRTN6/3lpPOT++v/fVAElFR+dH/AH1/76pPOj/56L/31QBLRUXnR/8APRf++qT7RF/z0X/vqgB47Vw/xx/5Iv48/wCwDf8A/pO9dmtxFx+8X/vquT+MEYk+EvjRG+62i3qnP/XB6mRnU+GSZ+MdnDP4Z8qeTWYNBuLxPKiS4lVPNVv4Hr3X9n7StBudeuND8Q+f/bcvm3S+Sz7512J8+9f9yX/vivnTx94Dtvipf2Gof8JLBpb2sGyeG4/2P40r2v4S694a0S/luX1dbC902z+xRahNs3t9zZsRv+B7q+fnVqtKJ51HA5bhUqlOX47nYP488K6D4013T18UX1taWs/lbJp7j733H+f/AGH315F8dPFGjeJvG32rQLqS809LVIvNd5X+f+P5pfmr1K58Z/DBLi4naXSJpbqX9+9xYo8srf39+z+/XnvxI1XwX4i+I1xc6VY/adE+w2+1NGtfKTzdnz/Iv+3WtCfJ9lnj5zH63Q5OdbnkV5D50UXys+1v4FrfhuVaJFXzP++XrtrC88AWcqfafD2qf8DV0/8AZ61X8TfDmG6lgi8OSXm1tm9L59jVvLHf3GfNU8n5o/xl+J5os1zb6laXNssiXETb1fbV7xVokupappl5Y6Ld+JP3Evn29pE7urts/gX+H/4uvWNNvPA8zJKvgfUpv9y8emXPxC8PaDqztpXheBLLaqNb6hK+9Zf4/uv/ALn/AHxWPt3V93lPYwmGjl9SM5VFK3a5xXhGwT+1JZf+EcvtB8qVZYtOmX54tqfx+bsbb/F/wOuymsG8YXG6Wxh+yM2yB7ezT7R/qkT53/2Nj7a5XVvElt45utQaBdL0dGibajzuiMy/P8m7f83yba29HsLH7VpTW2tW1gl/AtwyJv2ROv8Ayyf/AGnqJcx9FQrxnOU/slqwSxsdLTyFkhuIvKibZB5SOrRP/Hv+98//AKHWx9jnmdG1CWTfeL9qW++1I/kS79jumz5tuxIv9r5KieFoVltmZUiinV2mltfNeJld9/yfxb/krE+06ZpsulSxaraW37pEurhN+xmZN/zps+8n3f8AvipjLl+IupU5/eibEPgnT9Ya7/shrbVZZ55YmtIZ3R9vz7Hd2+Xb8if98VY8VeHok1R4vs1tC9rbfaN+k33muq/+Offd0+Sqj+J7H+1kvLGXUJre4/1r/ZYt67U/ubNv8f8AcrK037ddXUu7T9UsPtEXlfaLS1T++nzv8n3fk/g+amYyrwl7pUhS+0+J11CfUElaVkZEZ9jfJ8nz/wDjtaHhXw3pWj+HNd8S+JYmvLfS2WL7JaNs82Vv9utC/wBb1O2luLSK71S8t22ytbvZv8rfx/wJ8r1F4b16ezbU9PbwhczeGtSVUutPuGd3bb/Gj7PvVy1p1JU+WBFDDYOjiY1cRLmie9/se2ug+MPidovjHQIryx2xXVrdWlxLvRf3Xyba+9cZr4J/ZR8WIvxe8PeGtK8PyeHtEitbqVYpmZ3kbyv71fe27rXq5d7X2P7w95zw85OWG+EfRRRXqgFFFcP8TfjJ4K+Dem2t/wCNvEmn+GrO8m+zwTahLsSSTaW2j8KAO4oqpa3kd9bxXEDrLBKqyRuv8StVugAooooAKKKKACiiigAooooAjb7pr591vwzcwre/2Ysdhre2Xyvtav8AZ2l/geVF/h3/ANz5v9uvoas7UtIttWj2XMSv/db+JaiUeYuMrHyR4g1XxH4e0v4dNrniXTdH1u61aKyvrfa/2TUWl3u8SbU+VtiPt3/7v3nrhPDzrpus+F4p7W5+HWuteappS6DdxO+n6i3lRP8AJuf7r74tr/MrbHr6i+IvwZ0zxjpqWeqadHrlhFOtwkM33opU+66f7X+7Xz7f/B/xH4GutKXw99m8W6JL4ubVb7RvEMUTy2FvP9/7PLL91on3y/Jtb/e+fdkUcPZ6JpGn6l4fvIH/AOFUeMLzw7qmn6cmnzxf2TKv+kOj/L8rbHf7Quz+/wDco8YXOmJ4o0S+vNPvvDep6l4Iv7eDx14bunlsYPK813R0gTa2yKLzVdHVvn2/3Ntf4b39tat4S8PeHtQXSrKLX9W0rUfBfi+dPNlXYm9Ld/K+bYj7vn+b96/zt8+6XwCjW918P7TSJ7vwZcLa6tpV54D177RLaXn332fOm1v3sqbd/wDDv+f+9YHrHw/8T3k3g/wvc6nc/wBvaf8A2Et63im03/vWVPnff8jKz7Pm37f/AEPbyWpfCjwh8Qr+Xxt4JvLHSvHuqRfarXxC8CS31uq/upXe1lfbu+R4mfYu3/aqb4Y3P2HTfDWn3OlSeA/EDaZeWq+GbiL/AEFmV7j50dnf5d77v4l27P8AgV28s9A03XvClzqDR+CfFFxBdWunPbrEluzN9o/gX5fvu7Ns+9v/ANzavhkOMjy/xDoN94Pv7i58R+Ho7zULWBZbz4x3Etrb3Fn8ibJfsWx9zRfIvz/M2z5P4Kz9BvP+Eq0NNcs7a0+K+lWqy/bPiVqEsVlfaXtTe6JbyxOzfZ/9am/d9/5K9rs/EmtaUvgfQ/EumR+JLLVvtFvP4kt5/N2/P+6R9qfNv37W+79zc/8AHXLXPwr8J/GaLT/HHgnXL65TTVaKzh0+8ltbRbiJ96JLbrs/j+9s2sy0cxR5r4Rv28eWq3PhNbb45Jaz7LrWfGn+j3Gnf3IrdJYt21/vfxfMn3P71TQdYXxst7B4AvpPivd2dzvvE+Jqy+VYL/A9v5sSfM/z7vnX7ifJVvxn4buXXTG+MWg32vX0V0yad/wreK98qL5/nS4+5tb7m3+L5Pv10GpfDTVfHLS2PxivNN8T2277Rouk+Hori3vt38bvtdPl2bPv7lX+/Umupx9neS61rOt6H4HudW8W+M4m36jpPxFW6uNHg2v8/wBn3RJ8yP8AIu/b8u+tW5m0jwB/aHizV9Q1LW9Ylg2atp82sPL4etZWf50RJU+6j/dT5tv8CVz/AMV/2qPDngm1h8K2NyupS2cS2q6DpN0zW8Cr8iJdXv3pW2J/qov+Bu1fLPxd+KOtfELw+k+pzqluq/uLG0XyreD/AHIl+Va1jGUjOUuU67xt+2Z42ufFV23hrxHHZ6JEqpElvYpEm37nyIyO23/frs/hv8ZtP+Ivi2XxD4q0HT/+Et0mxbUovEKT3HlKtrFv3vaq+1mRE/gdVbZXxZDM22WLb975K94/Y/mvv+FzaZbWcEc11PY38VrDd/8AHuzfZZdiP/s76uUYxiYxlLmPqW2v9Q8XXWieJdT1GTw94a1nwzqMt59rnifU7pmSX91En8MSRbLjZEm3d9/c1cf4XvIr/wAP+B57NY/BPw/uPDeqW88M0sX9rX+1Jf8AVfJub/n4+T5dz/7ldH4V23PiD4X3k8//AAmfjP8As7UrX+0Le8T+z7D/AFv91Nsux38r+7t+5u+SmeDbaK58VfDeVW/4TzxgsGqW66sl5/xL9OVXff8AwbW2b0X5PlVf+AVH2Q+0P+DO7zfhI2i/ZvCvhK40W8RdP1OeKXU9UZZZW2fcRmX7lx8nyfP/ALlfqf4RXb4S0Nf7tjAP/HFr8i/H/wAQvD3wli0K+vNQ/wCEq+KGm2dxa2c01091b2qzyu/+xu2I+1X+Vf7n+z+u/hP/AJFjR/8Arzh/9AWiP8wjZoooqyQooooAKKKKACiiigAooooAKKKKACiiigAooooAKKKKACkpaKAPFv2trfwjN8CfEUvjfVL7RdDtXtrpdQ00brqK5juEe3MSfxt5qx/L/F0rwL9lG+8L+Kv2j/E+t6jP480rxdcR3+oaF4X8ZeHv7GS1sLm4R7qWAbn+0M0qRbnZl6/cr3D9tBfC8n7PPiBvFus6h4f0yOeylh1HSbf7TdwXi3UTWpii/jbzQny14RoP7SngzXP2r/Buq6jpPxObWLjQn0XT49W8MvaWtnuli+0XTLt3tvPlb2+5Fs/2qAPu2iiigD4Z/wCCuH/JDfhv/wBlB03/ANJb2vnp/hRqr2tpPZz2l5FLa29xK6S7PKaX7kT/AO3X0J/wVy/5Id8OP+yg6b/6S3tfKD2eoWcSeas8KS/d+X73yI//AKA60Ab2pfD3VdH03+07zy00/wA9rdrhG3/ddEf/ANDq1c/CvU081rOe2vLeLzf327yt+2Xyn+Rv9uudW21W8iSxX7TNEjNKtvtb5fk+d9n+4n/jlM/srU0v4rFoLlLuVlRYXV97bvuf990AS+IvD154X1aXT9QiWG7iVXZEbf8AeTfWfT3hupv3reY+7+Pb96ia2nttnmqybl3rvX/b2f8Asr0AdXY/C7WtV0PT9Ts1gmS83bYdyb1/epEm/wD397/8BR2ry39qjwTqPg/4Y6/Hd+U8S3CW6TRfcbZcbPl/74b/AC9dInmp92Vkrhf2hrO+/wCFM6leTpJ9illWKKV/uOySxb9v/fSUAfZf7dkLTfsS/A6JPvtfaMq/+C2avlzT/EnjO2a3X7NaPFEtvEqJsT91F9yL5f4fv/8Afb19V/tuf8mY/Ab/ALCeh/8AptmrxT/hYTTXVpPLYrD5WmJprfZJfKfar798X/PJvk+b+9vf+/QBxj/EXx69rcQRW2m23mqyedD/AK5fkdPkff8Ae+d/n+9UU3jzx/JqUWoQLY2F3FZ/2es1oqJti3o//siV6F/wsWz8202+GtPSKKJUZNqO7Muz59+z/wCK/wBvdWb4w8WweJ49MittIttHSzVkZLf/AJas2z5/uf7FAHH23jbxxbW/lLZ6b96J/nX/AJ5PvT+P/P8AvfNXGaroOuaxq97qE9tB9oup2uJdkvybmffXe0UAeb/8Ifq//PrH/wB/UrH8YeG9QsPD93PPAqRLt3fvf9uvYK5P4qf8iLqH/bL/ANGpQB+z3wm/5JT4M/7Atl/6ISusrj/hK3/Fq/BXy43aLZf8B/0dK7CgBv8ADXxZ/wAFO/8Akmvhn/sI/wDstfaf8NfFv/BTz/kmXhr/ALCP/stYVvgOTF/wZHwBok0U3hfU4GaTzov3sWy62J/Bv+T+KulvodPtvgJqEq21pc6hcRN++eL/AEi3VZf4Pk+7/t76xfDHyeFdSZY1+ZWRn3P/AHP++ae0zJ8I9dWVtNdGi2Qb5f8AS1+f50RP+Abq8iPxHy8PiJfs1j9q8M3NtBbWdw0UqSw28Wzd/o7/ADv8if8AfFYPir/kMxL/ANMpf/Q3q3Zu03iPQmVrFLfyJfktJd7s32d97v8A+g/8Aqv4u/5Dif8AXKX/ANDeu+ifT4P4WfPXxI/5GP8A7YRVyldb8SP+Rm/7YRVyvl16UfhOwZRT/LoqgCvaP2b/APkIp/19f+0q8Xr2r9m//kJJ/wBfn/tKpkB6h4f/AORV13/t3/8ARr19RfsSPaN8bvCX2a6vrlv7Mn837Wv3G8p/lT/Zr5d0H/kU9d/7d/8A0a9fU/7FtxPN8bPBqz6lbX/laPOiJbpt8hfKb5H/ANqvBrf7zE56f+8T9D788Z6tqej6S1xpVt9puOAsZUt39q88/wCFgeO36aM34Qn/AOKr2hV3Lzhqb5Z7Lt+gFfU0MRTpRtKCkfMZnkuLx9X2lHFzpR7Rt+p4z/wn3jz/AKA7/wDfhv8A4qj/AIT7x5/0B3/78N/8VXtXlp/dH5UeWn90flXT9dpf8+UeR/qtj/8AoZ1fw/yPFf8AhPvHn/QHf/vw3/xVH/CfePP+gO//AH4b/wCKr2ry0/uj8qPLT+6Pyo+u0v8Anyg/1WzD/oZ1fw/yPFf+E+8ef9Ad/wDvw3/xVH/CfePP+gO//fhv/iq9q8tP7o/Kjy0/uj8qPrtL/nyg/wBVsw/6GdX8P8jxX/hPvHn/AEB3/wC/Df8AxVH/AAn3jz/oDv8A9+G/+Kr2ry0/uj8qPLT+6Pyo+u0v+fKD/VbMP+hnV/D/ACPFf+E+8ef9Ad/+/Df/ABVH/CfePP8AoDv/AN+G/wDiq5/xx8ZPEWm/GTxD4StfGPgvwjpuladYXUcniHRp724unn8/f80d7AqqvlJ/D/HXumj/AGiTS7V7qa2vLholaS4tYmiikYr95EZn2r/wJqPrtL/nyhf6r5h/0M6v4f5Hlf8Awn3jz/oDv/34b/4qj/hPvHn/AEB3/wC/Df8AxVe1eWn90flR5af3R+VH12l/z5Q/9Vsw/wChnV/D/I8V/wCE+8ef9Ad/+/Df/FUf8J948/6A7/8Afhv/AIqvavLT+6Pyo8tP7o/Kj67S/wCfKD/VbMP+hnV/D/I8V/4T7x5/0B3/AO/Df/FUf8J948/6A7/9+G/+Kr2ry0/uj8qPLT+6Pyo+u0v+fKD/AFWzD/oZ1fw/yPFf+E+8ef8AQHf/AL8N/wDFUf8ACfePP+gO/wD34b/4qvavLT+6Pyrk9f1q/t/EVho+lWtpLPdWF1eeZdOyr+6e3UL8v97z/vf7NH12l/z5Qv8AVbMP+hnV/D/I4H/hPvHn/QHf/vw3/wAVR/wn3jz/AKA7/wDfg/8AxVaXhf4xr4i8S6bYXek3Gi299YW1zBNdWdw0Us8qu7W63Sx+RvTavy79zf3a9X8tP7q/lR9dpf8APlB/qtj/APoZ1fw/yOO8Da1q+tabLNq1oLa5V9qJsK/Lx61k+MrO+bwbqU+kfZodTWSV1uLj/fernjLxl/wrvw/NrPibXfDuh6Vbn95e6hI0MS+g3M33q5G58X6lc3Fjor2en3kWsLLLE/72Lcu522bfvL92vMnKM5cyVj7jBYephcPGlUnzyj9p7sm8G+H/ABnBcafLeavp9zp7Kzs6Lslf5P8AZ++v3GrP8K/DTxtpUqLqutQXO1vN3+e7/wC4m3Z9379amieLJ/BM17pGswYitY4po/s+6V4/NaX5P/HP/Hq86ufip4sXwB4g1DyPEn2uK8uvK8lbXe6q77Ht/k/1Xyfx/NWZ3n0tHZwW0G1YFhi++39yvJPEHxTluLoroukLf6e6/uprixlX+Dd/c+ZXrF1jWPENr8MdKubnULuzu7i6t/31vc73ZWid3/8A2K9a+GSbfh/4c/68Yl+Zf9mgDy+2+LXiNo4t2hww7Vi+T7HL8u5/n/j/AIK7jwP4+/t5pbTUozZ6j58qRKltKsUqo339zf7v96vRP4a8R+PV1fWOpaBJY3d3ZMqyvvtGXf8AwL/6DQB0mmeILP8A4WVdWKJO08sTbpfIxD8mz/lrs+Zv+BV0viaG01fSbvRZblbee/gkiRNy7/u/wrXK6LDqsnxDWVtKnTT/ACm/0vzV8ptyJ/D/AHq3tehtob67nlgV/K+yv93+670Acz4b0fxulrb2P/CS20MUEC+U/wBjR/lX5KtappPjqCLyovE9tcb4nff9jRNu3bXD+KvHupaWsmp6NYX5g8tXa3SRPO8pU81/v/8AoNXvE3ibWnji+0xXby2ayvO9psTd8nm7P++P/QKAO5svh5YzeFdP03UHkv0ig2ed/qm+b5ndf7tX9B8E2PhXTb2001ZfKumeWX7RO7uzsip95v8AcWvNdN+KHiVPD2p3f2HZe2d19li0/UGREb502fvV/wBl69F0XXtak0N5dY0qC21WKLzWht598Lf3Nj0AeD6b+z/4/tfilNez6vDN8P8A7L5UGg/2hLuilVF2bvk+dd9em6L8OdV0/WLeffbLZW7Lsj8+Vtv9/wDh/vb/APvuqlv8TfE/9vX2g6lpWk2GqxxxTKkV08yNE/8Ae+Rfmrs/DPiLUJtUurPVo7a2aKJXOxvutuoA7G2/iqxUEH3P4dlT0AYmr6kNP2RovnXEv+ri/wA/w1g6l44XSdNinn0ueZml8pordk/v7Pl3utQeOdVh0TVLeR4rmZbiLZOlv/Ev/stZ2i+H5vG2k/ab68uba1W6/wBFtLdUi8qJH+RH+9QBVh+Omm+Xu/sHVP8AVPcf8svuq7p/f/2K0rf4tWs6yyrouobIp/s7f6r77bP9v/bqGP4J6LAoxqOqRqYWhO2VPus+/wDuf3mq5D8JdNhWWJdQ1TY0v2hv3qfe+T/Y/wBigC7o/jb+2rKxu7axlRLqL7Q0MzfPt/2f71eZeM7mKbxpFIkTfZ5Z2/0vbvTdseuj1L/igUstK3Xupab5G+zZFTzYGV0/j/4HWdJ4ftbiOTxLZ+Yl7cRrO22NEmlZmeL5m3/KvzUAdz8Mf+Rf2r56J57f8fH367XyU/uivNPhrrUEMcugx2s8MtvLL5ruyf3/AODb/DWhffEqzsL+70+2tdS1e4teJ/7MtWuPKb+43+1QBv8AibwToPjKx+x67o9nqtr/AM8buFXFWtemWz0e7lLSRbYmw8O3evH8O7iuR03xPJ4j1yxn0ya7m0//AFVz9xUglRm3pKn3t33a7DxBbxXWi3sU+3yWibcW7cUAfO/iLwfqH7R37OvjnwiviSbSLjUX8hNWSJpfs/lNFL8i7lZvu/3v46+VLf8A4I1+ILi3jk/4aC1BN67tv9gS/wDybX3R8Jbye58O+IvNWL/j6dFa3R0iZfKT7itXqmn/APHjb/8AXNf5UAfmT/w5d1tvvftAXp/7l5//AJNo/wCHLerH73x/vz/3Lz//ACbX6gUUAfmD/wAOWtT/AIvj9qH/AIIG/wDk2j/hy3f/AMXx71E/9wBv/k2v0+ooA/LXWf8Agj3b+HbCXUNY/aFudOsIhmS6udI8qJfqzXtZcP8AwSt8L3Ok/wBrRftMRXOl/aIrL7bDaRND9odlRIt4vNu9mZVVf9oda/QD4wMmmeOPh54g1eJ5PCml3F695cBd0VjdNBtt7qX+6ir9oTf/AAtKleMfEzxBo/xwsNU0u40TQdU8OX+v+GopfEWhXL3FvqivqDL5X2jykV2iVV+4zbfNoA+dNZ/4JI+HvC63MmtftEyaWtrD9qne9sIoBFBu2+axe6+Vd3y7+mah8Kf8En/CPjjz/wDhHv2j/wDhITb7fPGk2sVx5e7+9sum217b8S9c1PSbn4haF4ummGoeGPCthHLrdwCkOoWf9qK0V1u/vbE2y/7aP/Dtr3TR/GWhfFT43eF9d8DapYeILDTdH1GDVNY0qZbi32yPb+RbtKnyu+9Hfbu+Xa396gD5B/4csWv8Xxq1n/wUr/8AJFL/AMOV7L+L40a3/wCCpf8A4/X6ZUUAfmh/w5Y0xuvxk13/AMFi/wDx2nf8OVdI/i+MWu/+C5P/AI7X6W0UAfm1Yf8ABGXRbG+trlfi3rjmCRZQracm07f+2tfevxaUt8L/ABiD/wBAa8/9EPXW1wP7QBK/An4jkdf+Eb1L/wBJZaUtiZR5lY/Fi+WfTZINK1jdbRRbpUVIl3/Mn/7NfUWg+GdBj0m08rTIE3RK7V+e83jPV3VPNvGm2/xv8719zeBtYnvPBuiztP5ztZxOz/8AAK+fxMpcsT5OGV/VJSlP7R3v2DT3i8prO2eL+48SVwvjma20rxf4EsbaCOGK/vLiKeFIk2Mv2d2rSfWG/hb/AIBXD/EK83+IvA1yzf6RFrGxf91reXf/AOgJXFCUjeNOJ69/YOkbt39n22//AK5JSW2g6RbS+bBp9pC7fedIkrnf7e2felVKl/th/vNWN5mns4HVpDBt+WKP/viufs7mC88darp7RxzJFY2svzqn8T3H/wARVSHW/OZ9sqvt/wBqs+z82Hxhe6mrf8fVjbxf7u15f/i6UQlBHdf2bZf8+cH/AH6Sn/Z4IV+WKNP+A1z/APasv9+l/tif++v/AHzVhqcJ8b9b/sTVNJ2y7HWBn2bvkb568k8GeJ2vvEH2mdpH/fxbt8u92/36qftjXN8mreGr6KVk/cSxf73zp/8AF1578K/EDalcfvZ2eVWVNj/w12Rj+55ipYaXs/aRkfoAkMW1PlX/AL5qXy/asRNSlT7zL/3zVmPUm/ieuKJgavl0fw1j/bJd3+v/AOAbad/aXy/NLTNDrvhZ408PeA/jb4Y1PxN4g0vw5p/2W8i+16tfRWsW7Z93dKy19Y/8NOfB3/orHgf/AMKOz/8AjtfDa/sq+H/2uNc03R/EGsalpWn6d5s+/THi812df9tH/uV0v/DlT4Sdf+E08af9/bP/AOR6+jwX8E9nDR5KZ9g/8NOfB3/orHgf/wAKSz/+O0f8NOfB3/orHgf/AMKSz/8AjtfH3/DlL4Sf9Dr40/7+2f8A8j0f8OUvhJ/0OvjT/v7Z/wDyPXedZ9g/8NOfB3/orHgf/wAKSz/+O1Uvf2ivgnqSqt18UPAM6r91ZfEFk3/tWvkn/hyl8JP+h18af9/bP/5Ho/4cpfCT/odfGn/f2z/+R6APr8ftOfBtV2r8WPA//hSWf/x2nf8ADTnwd/6Kx4H/APCks/8A47Xx9/w5S+En/Q6+NP8Av7Z//I9H/DlL4Sf9Dr40/wC/tn/8j0AfYP8Aw058Hf8AorHgf/wpLP8A+O0f8NOfB3/orHgf/wAKSz/+O18ff8OUvhJ/0OvjT/v7Z/8AyPR/w5S+En/Q6+NP+/tn/wDI9AH2D/w058Hf+iseB/8AwpLP/wCO0f8ADTnwd/6Kx4H/APCks/8A47Xx9/w5S+En/Q6+NP8Av7Z//I9H/DlL4Sf9Dr40/wC/tn/8j0AfYP8Aw058Hf8AorHgf/wpLP8A+O0f8NOfB3/orHgf/wAKSz/+O18ff8OUvhJ/0OvjT/v7Z/8AyPR/w5S+En/Q6+NP+/tn/wDI9AH2X4e+Ovw48YaxBpPh/wCIHhfXdVuN3lWOma1bXE8m1dzbERyzfL37V6HXxn+z9/wTH8Afs6fFjR/H2g+JvE2o6ppizrFb6jLbtC3mxPE27ZErfdevsygAooooAKx9Y8N2WtL+/j2S/wAMq/erYooA8W8cfBHStevtG1DU9MXVjol9FqWnXG90mguEdG3/AC/wfL92vnP/AIVL4s8B3Xgexltrb4l6FZ+JLh/teoRf8TDRrWVESJ0l3/N5T+bv+98uz5F/h+9awNY8LWWsM7Mnkzt/y1i6/wDAqjlL5j8/vhFqX9seH/h/beGpf+Ek0K313UtPvND8WLa2+rWa7It/lfP8zRI7s3lP92X7n93pfhL4ziv7PwPZ6LqapZS6tf2t9ofimeL+0FZdm9In2fNsSX/Zb50/269u+JP7POjeJNX8P6pqNnJBdaJrC61a32kv5TvP8m/zfl+fekSK2/8AgX71eDar4Y8WeCbrwUvjrSpPiLb2vjLfY+JNOnlS+063leJ4nuEVPmXzflZH+Xaif7FSBY8AaVpmif8ACCf8Ivrl34JsrfWryK+8J6nPceVOzIiPb/Mny7PkZUf+J64WzsLPTdB09dV0yT4J+INN8eN5T2lrcPp9/KyJ+9Tc/wAqvEiL8jeV/wABf5dKwmn17wvpjMv/AAunRNG8dNF9oWK6/tPSVV02b/4vkl/3lZdn3Vf5SbTdQh8H+MIPCcsHxa0+z8a/aLrwxrlrvuLBd8vmpE7P97f910/2/k+/QUdH+0zr3izwr8UvBUuh3lzbeH7y1lt9YS32O7L5qbNm5H2t877X2V8xftCfFrWba/1Dw9Yy/wBiaZdWsTypudLi63J8/wBolb5m/wBz5V/2K+iP22/G3/CH3ng+VmaH7RFcP/qPN+68X+2n9+vhzxteQfE7xlLrV4zfZIoFiXeuzzW3v/BWtGnzGVSp7Pc4qHw3Z6rZ+ay7Nvyb/wCNqxNY82G1e0nbf5XyNXousJFpSp9mbfb+V/d+7Xl+gq2vatFbTt88rf6566ZR5PdMo1OePMW/D3w61DW/E2lafFY3cyXkq/8AHuu9/K3/AH//AEOvcPgP4DvvAf7R3h/Q9cg2StBL5qQtvfbLay/+PfPX0H+zBo9jongu4vLyK2hi2rKtw/8Add3ryn4weNtD8B/Hq48dQXzXOtwS28tnpKLvlZlt0i/e/wDPJfv/AH/n/wBiuD2kvhOjliel+BXnsPh94E1eWVfh78P9La/efRri6f7XqMX3Ind/k+/8+7ftX/xzb4r4g+PU8+l2Xw3+EOlXNtpW77PAlpE1xcXTM/8AAn3md3/if5f9j5d1a/w++Dvxm/bv8Vf2jLK1n4ZSX97q12rJZQf9ck/5auv+dtfp3+zj+x34B/Zp0sNolh/aXiCVNt14gvkDXcvsv/PJf9lKuMf5iObmPkT9mD/gl9dalew+LvjXJNJLK32hfDiT7pZG/wCnqVf/AEBP++v4a/S22torOCOCBFSKNdqqv8K1ZoqwCiiigAoppYL1NN8xPUfnWTqQjo2OzJKKZ5if3h+dHmJ/e/Wl7an/ADBZj6KZ5if3v1o8xP7360e2p/zBZj68h+NXh28up/D19Z+JNe0NrjVbPTpodJvfKieOWXDnbt+9833q9a8xPUfnVG902y1JYVu4IrgQSrPH5gDbZF+6/wDvCj29L+YLM+f7X40eMdH8P61fx6IL7QNPsdRXT7q+lxcGWy3ruuJd/wC9814n37IkaL/b+9Wjq/xc8eeG7zxDFeWui6g+lz6dpsUdjazq091fSRLE/wA0vyRxb/mX+P8AvJXp3/CsfB/9oajff8I5pJvdQWZLyb7Gm6dZceaG9d+1d397bWhqng/QdatdUt77SLG7h1RUW+jngR1utv3PMH8W33p+3pfzBZmN8MfE2veJdCuj4g01dO1SzumtZPK2olx8qt5qx73aMfP9xm3fL713fNYWh+H9J8K2BstHsbfTrPe8vk2kaou9judsf3mJra85P7w/Op9vS/mQWY7NGab5yf3h+dHnJ/eH50vbUv5kFmOzRmm+cn94fnR5yf3h+dHtqX8yCzJKKj85f7w/OnBw3Q5qo1actFILM8G/bV1PVND/AGdfEd9pNna3l4lxZfvrzTl1GKwU3cKte/Z2Vt7QLmVf7rIG/hrwb9lbxh4puP2pde8Haz4xn+Jp0O31O3vNS1XSYlu9EaK6iS3VLpEX5bpNzNF/0yFfQ/7XfxQ134O/AXxB4o8O3um6dq0E9nAl9qq7re1SW4iieVk/i2q7Ntrz39m7xBqWqfEI29z+0p4L+KVtLaSzv4f8P6TYWs7SfJ+/LQSu3y/+zVsI+r6KKKAPhn/grh/yQ/4b/wDZQdO/9Jb2vm2z8f69Z+VtuVfyovKi85Ufyl8ryvk/4BX0h/wVx/5Ib8N/+ygab/6S3teDp458J3Ol2lteeFY/Nt7XyvtELbPNl8qJPNfa6f8APL/x9/79AGZZ/EjxHYNuivld/I+y73VH+X/L0XnxF1y8ltJ5ZYPtdreLerNtT5miRET/AL42VS8W63oeqtaf2Rpn9lJF5qS/Nv3bn3p/n/x+uf3p/eWgDsk+KniWHT7KzgvILa0s93kQwwRfuvn3/wDslYviTxJqfi3VP7Q1OVZrjbs3psT5f8vWPvT+8tG9P7y0AP2v/sf99Vx/7Rmuaje/Au60eedZLCxlSWBNi/K7yxb/AJv+A17f/wAJt4JufmufCv73bEnyNsT5X+f5FdPvpsX/AL7rxv8Aam1rQdQ+FOqroulNpsW213b5d7u/m/P/AOhp/wB8UAfX37a8bTfsb/AOJE3u+raGqqn/AGD5a81s7/7HpvlL4Maa4a1aLzprP/VfutibP73z/Nvf5vnr1X9sL/k0j9nfd/0G/D//AKQS1FNqXhV7NF3Mlx5T7Xhb+LZ8m/d975/7lAHzr/wius/9Aq7/AO/D0f8ACK6z/wBAq7/78PXtf2y2/wCe8f8A33R9stv+e8f/AH3QB4p/wiutf9Aq7/79NR/wiutf9Aq7/wC/TV7X9stv+e8f/fdH2y2/57x/990AeOab4b1WzvrSefRbu5iilV5YfKf5l3/cq7+17r1t4n+HNvJY6Hd2CWcUST3E0Gzc29Pn/wCB/wBz7q/wV63Z3lil1E08qvb+avm7G/hrh/2rtS0+5+COsLBc6fc3fnxf8eMXlJ5X2iLZQB+j/wAKY0k+FvgpmVW26PZsv+z/AKOldjXJ/Cb/AJJT4M/7Atl/6ISusoAZXxd/wU6/5Jr4a/7CP/stfaNfFv8AwU6/5Jv4Z/7CB/8AQawrfwpHJi/4Mj4G0GzvJvC+pywXnk2/zebb+Rv3bNn8dbN5cr/woPVYvI/e+ayNcbU2bd6fJ9/d/wAD2VjaDqUFn4S1i2lnjS4uGXbC6y72/wBza+1f+B1Vv7nQV+G+p2zNc/2xK3mqifc+X7n8H3djv/F96vFifKRl7xq+cr6p4PVYNj/Zbh2faibv3T/7b1leLP8AkPf9spf/AEN6r+HrnSJvEGhLpjTvLFBKkvnf9cn/APHvnerXir/kYP8AthL/AOhvXpUD6fBfDI+d/iR/yM3/AGwirl66j4kf8jN/26xVytelE75BTqbRVEBXtX7N/wDyEk/6/P8A2lXite1fs5/8hBP+vz/2lUyLPUND/wCRN13/AHYv/Rr17r+wD/ycXov/AFwuv/Sdq8N0P/kTdb/3Iv8A0a9e4fsB/wDJx2g/9cLr/wBJ3rxKn8eJ87if9/gfqv8AX8aG+7xXj37Tvjzx/wDD/wCF1xq/w38Px+JvEy3MEcdi9rJdK0bP87bI2VuFz3r45X9rr9shRz8Fosf9i9ff/H6+4y3IcRmdL2tKcIrb3pxi/wAWe7KqoOzP0oor81P+Gx/2wl+98FE/8JvUP/jtR/8ADaX7Xy/e+CDf+EvqX/x2vW/1Qx3/AD8pf+DIf5mf1iB+mH4UfhX5k/8ADb/7XK/f+Bz/APhJ6r/8dqT/AIbk/azT73wMl/8ACW1T/wCO0v8AVDH/APPyn/4Mh/mH1iB+mW6l3e1fmj/w3Z+1P/F8CJx/3Leqf/FVL/w3p+0+v3vgLdf+CDUqP9Ucw/np/wDgyH+ZXtoH6Ubm9KNzelfmz/w31+0qv3vgHef+CTU/8Kl/4eAftGp979n7UP8AwU6j/wDEU/8AU7Mv5qf/AIMh/wDJC+sQPsm8+Gfi2z+KHiPxZ4b8U6Lpya3ZWNpNZ6poU17s+zG42srpexfe+0H+H+CvRNNjvYbKCPUJobq8Ea+fNbwtDEzfxMqM7bV/2dzfWvz2/wCHgn7Qf8X7P2pD/uHah/8AEVJ/w8L+Pf8AF+z3qn/gHff/ABqn/qdmneH/AIMh/mHt4H6MUbjX51f8PEvjgv3v2edW/wDAa+/+M0//AIeMfGhPvfs7ax/3xef/ACPR/qbmvTk/8GQ/zF9YifolRX56f8PIPi+v3v2cta/O8/8AkWnf8PJfiuv3v2ctb/7+XX/yLS/1Ozf+WP8A4HD/AOSH9YgfoVj2ox7V+e//AA8s+Jy/e/Zw13/wJuv/AJDp/wDw8w+Iq/e/Zv1//wACrj/5DqP9Tc56U4/+Bw/+SF9YgfoJx6Vgax4TsdcvoLuZriG5ggmtkktbhomEcpQuvyn1iT/vmvhz/h5t49X7/wCzj4gX/t+n/wDkKm/8PPPHC/f/AGdNfX/t+n/+Qqf+pud/8+V/4HD/AOSD6xS7n2xZ/DvQ9Pm097a3kij0/wAv7LarcyfZ4vLj8pD5e7blV46dq66vz4P/AAVE8YL979nrXl/7fpv/AJDpP+Ho/ipfv/ADXV/7fpf/AJFq/wDUnPX/AMuF/wCBw/8Akg+s0u59XfHX9nPwH+0b4dt9H8daQdSFmXeyvY5GiuLKR+N8Tr/uqdrblOxNytXN3/w903w2fDFloawaLdS3M9vc6lbWFrFNdbEfa8u2LZ/tfc/i+XbWP+yr+1hqX7SWqa/aah8Pr/wUdKjikWS+naUXG9nHy7ok+7t/8er2KbwxY+IIYZb1JX+y3Nx5Xkysn3ndW+7XyuMwdfLq0sNiY8s4+j/I3jKM480TzBYbPQ/iA2k+JNSu9WF1Faw2915Sonn/AOlS72Zfu/c/j/irlX+FHh648B+INP8A9Ee3v766uG/cXjpPLvf96/8Auf7Hy/JXs914H8P6TcIIr26067ZFVm+0s37pd/yfPu+X53rEh8SfDOHw/f3MWrxQ6PZXDW9xMtzcbI23fOn+7977vy1xFHE+M/B//CH/AAvtF1G8g1JZby38qabzZU/1T7Pk/hr2r4YeV/wr7w55W3yvsMW3Z9z7lZXjbUEsfDlleafFBNaRL5sW/f8Ad2fJs21yOsal4z8J3Q0zSlW802CP91M9pueKLZ8m5t/97+KgD2/+GvA/2iXgXVPDv2nyPuy/8fCO38Sfd21LY+MviPNBbynTmk81Yt22xbZ9/wDe/wAf92ul8M6Pr/ia6i1PxC3kxWs88UVp9le3Z0/h3Nv+793+D+CgD0az/wCPW3/65LXJeOb/APs231W5/wCeS2r/APj712SfJ+7j+7XNeJr+DSf7QvLmXybe3W3llf8AurvegDyeT/hMb7TbjT7FbH+0IlZtn2zeiusX39+zdu3/ADbdlaD+IdXv9ZuFsfsiJeQfuLia6+fcyeUiPFs/56q7fJWn4b+KHhpbp7mJJ4YpYP8AXeQ/73+PfU/iL4oeGLiGJjHJexLG/wArWr/K3yfP92gBIfhnc+JPC+pWPidYrS6uJ/Ngm06dt8Cb0ZPnZPvb0/uVueG9F1C28P8AkM8mpG4g2NcXd+zzf99bP9qmWfxBm1jamiaNNrcSwRStdrcRInzf7z1Qs7zxxYWaW0Hh791EuxPmt/8A47QBzNz8PZdJmtdSTXtUm1O/l8h7i7ZLholX+D5k+7XP+OPAfizUrj+zdH1JtY1O3eKWeZ54rT5dj/xLE395fv8A9yu98QXWqnw+sepeFrtdjYW4S+iXY8r7f4H+789UNHaX4bt9u8QM2m6bBZs0tx573CMqPv8Am/u/foA9c0lZY7ONJ/8AXKiq1X64zwf8RfD3jaGVtG1BbxItu7erp/6FUem/FDw1qviq40Gz1LztYgiaV7fY33E2bm/8fWgDk/jwsUn9k+Y0qfe+7E8v/oKNW18PdSi03wTp/ms3zM23ZE2/7/8Ac2VifHS8itf7JZrnULZG3fPY3yWjf8CZq3vhva22q+DdPeTz3RWZ1Z598v3/AOJ1+9QB39vJ50KNt+9VK+1aGxy0oYfNtXYu7dV63VY41Vdv/AaztRsYNSG2fft/hdWZNtAHkXxrmgvdU8PzrLJ5ElncMvlwO+754v7qNWro+nT6j8P7W2s7uC2lbTIts17E/lf61/vp8ny/981kfG6a20nVPD8Cz6hZxLZ3Cr/Z+ora/Lvi+9v+9XNfFCaL/hQrySS7IvsNm32i7/0rYv21PneJf9atAHqHhPw9eeH7dGvdT02a7ZZZVWyi8pNzf3Nzt8q1N4QWXRdBsrW0WGFnVrqWa6/iZnevDLC5sf8AhY3wsWLUNNmeWC48qGHQnt3nXyn+eKX/AJYL/wBMq+jdB0221Dw3pv2mCObYm9Fmi37aAOWuPEmmeEfFV/qU6zxJqdnauLe3gd3aX/SGd9q/7Cr/AN80+++INp4p8H61c2rSWEKrFB9ruFVkZZdnzfLv/hf+7WV8Trm8tvEf+h2094nkRIyW8qI/3Lpv4vlpngPVov8AhX+oXM/l232WzWVvNiVUVlTf93/e/wDQKANL4d+cmj6/E0u+3il2wffV1T7On3kZf+Bf8Dr03T/+PG3/AOua/wAq82+GOrLrHhPVbnzWmuGb9/M/32byk/2Er0nT/wDjxt/+ua/yoAtUUUUAFFFFABRRRQAUUUUAFFFFABRRRQAV57+0J/yQf4l/9ixqX/pLLXoVeeftB/8AJAfiX/2LWqf+kstAH86/mV9YeD/Gdj4b+EehS318tt/oqovy18jo9fVfgD4I23j/AMA6FPfX2oTJ9lV1t4W+Ra8PExjy+8c2M+GJ3V54qs9N0uyvp2ZIpbXzfkX73yVyGseNtP8AEH/CNalbTs8VnqayvvX52+SWL/2euyvPgzp+rW+n2NzLczfYIvs8SJ9//gf/AHxVLxP+z3oOiLb/AGzT7uwuPPi2+b8m7dKif+z150eU8aPOZ+m/ETTdY+JFppFtJK9xFFKzL/B9yjxD8WtK8O3SWc6yXLyyvFvT+Gu40/4H6H4YX+3rbSvs3lL81x5vzqrfxun92rWlfs36R4wjvby20OO5iVt8s27Zuaj3R8tTm+E8/wBN+IVtZ+A5dalikubeK6ZFS3b564r4wfFfUNH/ALCvvDWoSWf2qBnlT5H/ALmz7++vcNE+FGhzab/Yen6Y32RWZ2tEZ/vL9+vPPj38H9F8MeF9VWXSmsNbsIFlg+b/AJZM/wB9P7y/fojy8xvh4y5/fj7p4f8A8L48cP8A8x6R/wDthF/8RVWb4u+L5vva9d72b+BtlcPUv8VepGnE9+NOH8psa34w1DxDdWn/AAkN5c6raW+/bC8v3d3+3XQeA5rSzW3ns4t8Xm7/AJ12bvn/AI64eZP3X8Ndb4Atmh02L5f4m/8AQ6mpy8pyYqP7s+y08N+I00G41f8Af/YlbZE7t97+5WfrfhjXrOw0+e+ikhuNSXfao8rojf8AA/71dRNrGoX/AIZ0/Q2luX0pWiuNibNjN/6FtqxqmvarqrafY3nmTaZatvi+Zdits+T/AGv79eVE8z92cvc+A9c024srPypP7Qupdio8rojNsR32fP8A7af991Lf+CdeTWYtIaJnlb52R23/AC/7Hz/N9yt6517U7/Vory8nk32u7yHef/VP8i/c/wBvan/fFZ6arqCX9xqDXLPqDfOsz3W//gH+zR7g/wB0e3fsO3l9p/xG1bQZZ4prS3illVVX5om+T5f/AB+vuj+KvhL9ifS5dP8AiZM/2XyYpbWd/NRt6St8n8VfdvevdwP8M9Sn8I6iiivTNAooooAKKKKACiiigAooooAKKKKACiiigAooooAKKKKACiiigArmdW8F2mobpIP9Gl/2futXTUUrAfIfxY/ZZtdS2XGgTyeBtaXWotffVtLXek90iOnzrvX7ys/92vDfi1Zy6DpHxIvPHWhyeEtPbxTZ3uk+MvC1rE8ssTPcJFLcJv8Am8pH2s/3v3tfpPNDFcRtHIgdG+8rVw/ij4aafrVjPbiCGe1nRkuLK7TzYpl/u/NWXLIs/PP/AIKOzQOvw3b+144YriC823bxb0l/49/n/wBmvieTw9qcksVz9sVLKJfv+b+6av1q/aM/Zd0P46aHZaVrf2nR9Q03d/Z19br/AKrfs3ps+6y/In/fFfFXxd/YY8VfC63lvPDkTeKvD8X71vs6/wClxf78X8X/AAD/AMdq6cvs8xFSJ4rpvgxptE/tO51rT7a3aLzfJeV/NZd7p9xk/wBirWlfBPRUt/8AhIbzXo9H0qL52vnZHi/ubE/vN/sJReTW3hjTf+J9te4SDZFpkLf6Xtbf/rX/AOWS/wC/83+x8+6uw+Bf7KfxH/ay1S3urS0g8L+DLV9i6jNBst4l/i+zr96V/wDa/wC+noqU5S+0EeXl+E4//hY2p6rcW/g74W6fqn+lbbeK4+eW+uv+uSf8sl/8e/21r7I/Zd/4JexQNa+J/i//AKTcs3nJ4bhk3ru/6epf4v8AdT/vtq+uv2e/2T/Af7N2kmLw5ppudZlTZd65eDfdz/8AAv4V/wBla9sojHk2Ay9H0ex8PafBYaZZw6fYW67Yra3jVEjX0VVFalFFWAUUUUAFFFFAHnvj/wAB6h4uvLWez1BbRYkKMrbvm5rlf+FJ61/0G1/8er2r9aQ+9fF4zhPLsfXliK3NzS/vM6I4icI8sTxb/hSWtf8AQcX/AMepf+FI6x/0HE/75avaPxorh/1IyntL/wACf+ZX1mZ4t/wo/WP+g4v/AHy1L/wo7Vv+g0v/AHy3+Ne0UU/9SMp7S/8AAn/mH1moeL/8KO1X/oNL/wB8tSf8KM1P/oN/+OtXtOPejHvT/wBR8o/ll/4E/wDMPrMzxf8A4UTqX/QcH/fpv/i6X/hROo/9Bxf+/Tf/ABde0fjR+NH+pGUdpf8AgT/zD6zM8Y/4UVf/APQdH/fpv/i6P+FFah/0HR/36b/4uvZqXmn/AKk5P/K//An/AJh9ZqHjP/Ch77/oNj/v0/8A8XSf8KHvv+g8v/fhv/i69n5o5qv9Scm/kf8A4E/8w+s1Dxn/AIULef8AQd/8gN/8XR/woW8/6Dv/AJAb/wCLr2bmjmp/1Iyb+R/+BP8AzF9ZqHjJ+Atz/wBB3P8A27//AGVdD4F+Gc3g3WJL19SF2ZIPJ2+Vs/iU/wB4+lehqo9ad92uvCcJ5Xgq0cRRi1Jf3n/mKVec48sjzv44+F9b8bfDnU9H8P6d4U1XVZGhMVr42sHvdMcK6s/mxJ8zHbnbj+LFfP8A8C/BfxC+GP7Q+k6P4q+Hnwn0nTdQ0W9nh1/4d+GprWWJo3hX7PLO/wB3fuDbf4th/u19jUV9oc4UUUUAfDP/AAVw/wCSH/Df/soOnf8ApLe189f8Ix4evP7Pa28QrbI0Fv8AbPtDfdlZPn2f7j7P++/9ivuP9tLwToPjT4b6FD4g0+PU7az1yC8gilkkQLcLDOEf5GX+835184/8Kf0x4oWXw5bP5sSyr/pMqfK2/Z/y1/2KAPKvD2g+F79tQgvteks5du+xmddiN+6d/wB79/b8+xf++6f4h8G6Do9nLLZ+L7bVZVVnWGFfv/c+T7/+3/449esJ8E7Z13r4VgdPvs/2yXYv3/4/N/upTrb4J2k14ts3hq2tpWg+0L9oupU+Xfs/56/7dAHjU2j+Hm0O7uYNXZL23tYnit3ZP3srbN//AHxvf/viuU/4FX0WnwZs3Z9vheB/m2f8fUvzf+RayrnwHoNndSwT6DAksTbGTz7j5W/7+0AeE/8AAq5f9obT9NX9n66vYdQZ9Zmutk9j97bEssWyX/Z/j+T/AGd1fT1n4A8OXlwkS6LbJ8rPvee4+Xam/wDv15p+2T8L9O8Mfs5a5qsemWNsJXt/IeG6lZ/+PhP4XagD13/goB/yYf8ABr/r60n/ANNVxX5oedL/AM9W/wC+6/S//goF/wAmH/Br/r60n/01XFfmbQA/zpf+erf990edL/z1b/vumUUAP86X/nq3/fdHnS/89W/77plFAD/Ol/56t/33Sb2f7zN/31TaKAP6HPhN/wAkp8Gf9gWy/wDRCV1lcn8Jv+SU+DP+wLZf+iErrKAGt1r4t/4Kcru+Gvhr/sI/+y19pN1r4y/4Kbf8kx8Of9hH/wBlrmrfw2cWM/gSPzehoTR5deuP7OtmVJbhWRXf/cp6fcrpfhReafpvxG0e51e8jsNPVpfNuJm2Iv7p68GPxHxVP3qsYyOH+HqMni20Vvvr5qf+QnrsPFX/ACMX/bC4/wDQ3rl/BjrN4+iaJt8TS3G3/vh663xUn/FTP/1wuP8A0OWvWw/wn2OX/DI+aviZ/wAjH/26xVyldX8TP+Rj/wC3WKuRr1I/CeiPoplPqgH17b+zn/yEE/6/P/aVeJV7b+zf/wAfKf8AX5/7SqZAepaP/wAibrf+7F/6Neva/wBgP/k47w//ANcLr/0nevFdK+TwXrf/AFyi/wDRr17V+wG3/GR3h/8A64XX/pO9eRV/jxPm8T/v0D9Xe1J5a/3RS0teofSDdq/3R+VG1f7o/KlzRmgBvlp/dH5UeWn90flTs0ZpgN8tP7o/Kjy0/uj8qdmjNADfLT+6Pyr5z+J3x8bwd8btT8H6h8QPAPw80m20Gw1SG48Wx7pryWe4u4pUQte267UW3i/hb79fR2a81uvhHp+qfEjxR4j1OWHUtP8AEGgWegz6TLbZRUglu3Zi+75t/wBq27dvy7P9o0XYHBa18fdds/hVpHiK10m1OuSabf65c2bW8rpPYWfEksC7lZfNLQPFu3fLL/FWpdfHOXT/AIgeJrZre0PhDSNJnkju9j/aJb6CCK6lTdu2snkXCf7W6KWun+HfwtvfC1s0Ota+fFAjsF0i2kuLPypktUllbbK29vNdkeJGf5d3lbv4q5Gf9mO3vPhf4Y8K3muzXd5o2sf2lJqi2+xrxGMqSwOm/wC49vM8H3v7rUXYHq3g1tYuPCOiv4jhtU1+SyifUUs4mSBLjYplRFZmbbu3AZZunU10Xlp/dH5U7NGaLsBvlp/cH5UeWn9xfyp2aM0XYDfLT+4v/fNHlp/cX/vmnZozRdgVriFvs8nkpH5235dw+XdXzp4h0m/uPAYsNI0vXxrF5oN1aanP5F5b3azsnzStP9yWXzPlTZuZd7+U22vpT8aM0KclswPm+xTxL/ws+5tfFWm6pqOk6c2nWr3q2Ms9rqKrFqjfaAkabN3zWvmqqfLL/sbK9Z+GdnLH4duN8F5Fbm9uTZxagrrOsHmts+WT5lX+4rfdTZXb0U/aSta4DFjVPurtrO0NgtnJub/lvL/6G1aVeE/tIeJ/FnhX4I67eeB5fJ8V+e32PylV5W/e/PsRvvVIG58YrpbGaK53O6S22xlVSyvtlR/4f8/PXzzZzXNz8ItYs4NX8Qb7i6uEs9kuzerJvRLd2T5YNjo2x/m276+atV+KH7UetbF1D+1rzavy/aNMsvl/8c/2a9y/aK1z4iaD8N/hfJ4FsbGHxA1ir6/Do1ra3HlXH2dE2bW37V++tAH2b8N9U0zxF4H0eSzntr+3gtYk3w/Mu5USszUvFUWtXGp2GjaNe6qvzW8+oQxolusqfw7ndN23/Z/2q+AvgT8Sv2h9O+Jfhqx1j7TaeFJ9Ri/tNLiwtbe3SBv9a7MqJ/DX3R4H1Gzm8IaNpL+Td3WkQra3ljLOqs8qJ/rfm+Vlb7+7/boAzYfDeuf2lqF42kXLvcbX2fJ8u3/lkv737tdJ4SutV8K6DFYS6BqFx5UkrbkaH+J3fb/rfururrNHuYLezSKW5h3fwp5qPt/2KzNSWKS8uP3sLyu37q789f3FADvCvjW28QXU9jcWl5pWqxDc9jfLsl2/302/Ky/7S1l/Fj/kVPEv/XrF/wChvVabUrPxD8WdGfTJI7k6XZ3CXdxG+5F83Zsi/wBpvkZqs/Fj/kVPEv8A16xf+hvQB13hP/kVNF/684P/AEBa0b7/AI85f92uT8K+MvD8fhjRlbXNNytnBn/TIv7g/wBqr9/408PtZy7dd01/l/5/E/8AiqAPOfBM2teGdLS8s9NttSt7xfl33jxOvlO+/wCRYnrqG8ZeKvN8v/hGtPd9yJvTU5dqs3/bvXIQ+PtP8P8Ahnw/YxJPeXV1bTypb2ltLcfut7rv+RHrVT4teHrhZZZ7xdKiW6iSVNTilt5VZdj/AHGSgC7q2reJfEkA0/8AsbTbZZJV3Tf2i7f6p1Z9v+j/AOzT/jF4Nu/H3hPU9O0yOOa4nsJ7Vd908SKzbP7tVP8AhM/DWtWDquuabc2is0Sv5v8AFK/yJ9yut0SS28M6dFbXk8NtcfM33v4d7UAcboN1r3h/wrF/wlWlWmlG1gSygTT52unnbZs/uJXPza9r0nxLtZ20G0s9PtbGW1s9T813eVpXifY8WxWRtibvvfwV6l9s0XxlpcyyRRX9lH88sVxFu2/xfdrkNN1jwZ4tvPLs9Pk03UIvKWK4aw8p9jP+62uyfdfZQBa1iO28YLprXNmty8EHmyukSOiq391Go0TxFJ4PtV0+fSpprWS6ZLO4tPK8qVWd9n8ddbJ4f22VpBDLJHLarsiuPvP/AMC/2az7zwF/aUdkJ9Tu4ri1la432yoqs7f76NQBztv8ctKmVGXStU+aKWXZsi/gfa/8dWn+NGmpfy2LaRqnmxT/AGVvki+9s3/36zb74O6DpUUPn69qVsirKqrvi/jbe/8ABWfN4V8K/wBs3Hm+KNS+1yyret80Xyt9xH/1VAGhfvbfEKHT9XubP7NZNA0VnDcRRS3E7Ptf/b2/Klef/F9Lix8G3Oh6Vp17czyx26D7DdKtxA0V0n+o/h3v/wAB+avTtPTStD0n/QdVk+z6Wn2Kd3XfL/sbP9qrWt+G4tQiivorO2ubKKJXW0uIN+77/wD8XQB5KthrVx8QfhujL4me3X7V5/2iWL7OsqxP/wAfX8TT/wC58ter+H71b7w/pk8b3ctp5DIv2Jvn81Xbfu/75rF8Paa1144tL8wabb/ZZ5beKxW1TzYF8r+GX+9v3/8AAawdatvEkPxAv9P8MWeraVpdwm976OWBbGe4b7+xXRmWX/x2gDoPEOj6n4q8SXFpY3NlDe2tnZtdJdwPLE277V8nyunzfMjVsaP4KvLDwze6dO1i8txbrBv+zbEl+T5mesTwjJf+FZrjTm0VknuJWe+1lp/NaW68r5GlbZ/uf7ta3hOTWNS8Ja0ur6kusO9t8rrAn3mi+dNq/wC1QBD8NfsP/CL6vFZail4kcrJJ5UqSxRPsTeiMv8P/AMVXpWn/APHjb/8AXNf5V5x8NXafwnqXm2vkzQuy/wCvllVvkVvvP/wGvR9P/wCPG3/65r/KgC1RRRQAUUUUAFFFFABRRRQAUUUUAFFFFABXnv7Qn/JBPiV/2LOpf+kstehVxPxe0G98UfCXxromnRiTUtT0W8sraNm27pJYHRF3N/tNQB/OKkP+zX6Efs//ABFg8AfBnR4p9Dn1X7RBFLA9vFv+Zd+9H/i//bryK6/4Jo/HjTreS4uPDen2sMIaSSV9atdqqv3m+9X0p8Of2SfidcfCbw7b2CWMUiQIwurPUbe4ikX/AGWV9rLXj4mEvsixHOo89OJS03xm1z4yuPFF9ouy0urrzf7M3JvWLYif9/f4v956seNvEkvjzVrSCKK5h0SzXfF9uRPNaVnR/wCF3+VNla/jL4K+K/hX4Ni1Lxg8FjZCWKyfU2nV/wB7K/lRfKu5vmd0qbQ/2Vfin4f+0M2g32quyjak2oWf8P8A28V5/sqv8p5alX5ZLl3OS8Q63eal4cuNDsdMW2e6iW3nvnuXlTb9z/VNv2ts/uVseHvGEvhiwexaxn1K0++tol19nRn/ANv/AGa1JP2S/iLLff2o3hW4/tBT5i2i6va//HdtWdQ/ZY+JfiGx/wBO8FbGX5ki/tW13f8AodTGlUn8JfLiOa5gfDrxPL4P1zUNVvtPgm/tRpXntLT5Ei3fcSL/AHNiV4/+0Dc6rr3hzxRq94yw2VvA1vp1ijf6iJpUd6+gNJ/Zh+Kd1ov9n3Pgr7BCkfkrv1q1d2Xb/eVq4Lxx+yZ8VY/A2v6UPBS2OnzfPJqFxrsEqRIn8e1W3fw/dRa0jhq3N8I4xr/DI/O5/wCCn/8AAa+nIf8AgmX8f7hVni8MWM0TLuVv7YtfmX/vuodX/wCCcvx20O1S5vvDdlbRNKturf2rat8zNtT7rV6kqcj2lKJ83fK9a3h3xJeeG9SiubNlfym3+TMu9G/4BX0lH/wTO/aAX73hOx/8HFr/APF1UvP+Cavx/tYJZH8LWO1V3M39sWvy/wDj9R7KX8oS5JnIab8dde8Q6XNBp/2S21213PFaPFuS6i/uJ/tJVrR/jrrHiTRvPsZbaHVbNd91p7wJsul/vxP/AHv9itrwr/wTn/aEuLrS9e0zw1YvbhkuIJf7YtV3L/33Xqvg3/gm/wDFXR/GV9rl54fttnnvLbW6anBs+b/gdYyw3LH4RRp0DjrDxJq+paTaavczrpVpLudYZookln/6ZJurjNN+PGoWfiOb+0LGB7JZdjWjrseLb/t17b8UP2O/jR8UNca20bw/aTafoj/Ym/4mcCfvfvv95/8AaWsWz/4J9fG3+z/s2o+B7G52L+6mi1i1SVf+B7/n/wCB0Rw3u/CXy0Ob3T6j/Y5+Lmh/ETxraRabIqXEVtLvt/41+Wvtw9K/NX9i/wDZX+JHwT/aR0q98Uabb21oum3Urvb3sUvyMuxeFb+8y1+lK134en7OPKZVZc0h1FFFdhiFFFFABRRRQAUUUUAFFFFABRRRQAUUUUAFFFFABRRRQAUUUUAFFFFABRRRQBVurGC+j8ueJZl9GrkNU8DsnzWbedF/FC9dvxS5FRKKkO5+f/7Pv/BMfStH1648T/E6WPVruS6aeDQbdt9si79yea/8f+593/er7x07TbXRbGG0sreO2tIE2RQQJsRFH8KqK0KKsQUUUUAFFFFABRRRQAUUUUAFFFFABRRRQAUUUUAFFFFABRRRQAUUUUAFFFFABRRRQAUUUUAFFFFABRRRQB8k/wDBSf4wr8E/ghoWuNpp1U3HiGCy8kS+Xt3Wt0+7/wAhV+caf8FHJ433L4Vufvb/APkI/wAX/fFfoH/wVJ+DnjP44/AHw9oPgXw9ceJNWg8UW99La2zIjJAtrdIzncy/xSJ/31X5Z/8ADu79or/oler/APf23/8AjtAHp7f8FJLuRWV/Dd66P99f7V+9/wCOVDN/wUanuP8AW+Fbmb5dnz6n/D/3xXm3/Du79or/AKJXq/8A39t//jtH/Du79or/AKJXq/8A39t//jtAHp//AA8ivVXavhq79f8AkK++7+5VSb/gogs0rSyeDpJJXbe7NqP3v/HK87/4d3ftFf8ARK9X/wC/tv8A/HaP+Hd37RX/AESvV/8Av7b/APx2gD0SH/goh9mmWWLwdJDKv3JE1H5l/wDHK5H4zftny/F74e6n4Xm8Pz2n25kf7RLfebt2ypL93Z/s1k/8O7v2iv8Aoler/wDf23/+O0f8O7v2iv8Aoler/wDf23/+O0AfoL/wUC/5MP8Ag1/19aT/AOmq4r8za/Wb9sj4I+OfiJ+yH8MvCnhvw5cap4g0u406S8sYGTdB5dhNE/3m/hdlWvhH/hhX49f9E21T/v7b/wDxdAHg9Fe8f8MK/Hr/AKJtqn/f23/+Lo/4YV+PX/RNtU/7+2//AMXQB4PRXvH/AAwr8ev+ibap/wB/bf8A+Lo/4YV+PX/RNtU/7+2//wAXQB4PRXvH/DCvx6/6Jtqn/f23/wDi6P8AhhX49f8ARNtU/wC/tv8A/F0AftJ8Jv8AklPgz/sC2X/ohK6yuX+HGm3Ok/D3wvp17Ebe7tdLtbeeFv4HSJFZfzFdRQA1q+OP+CmCr/wqnQW/6iP/ALLX2O1fHn/BSz/kk+if9hJf/Qa5q38NnHjP4Mj83E+5WNrX/Hncf7rVs1k6x/x53H/XJ6+fifD/AGxvw3T/AIqrT/8Atr/6Keu68Vf8jbL/ANcLr/0OWuF+G/8AyNun/wDAv/RT13fir/kcJf8Arhdf+hy17GH+E+wy3+HI+ZPiV/yMaf8AXrFXI113xK/5GNP+vWKuRr1InqBT6KKoB9e2/s5/8fSf9fjf+iq8Sr239nX/AFi/9fzf+iqmQHqFj/yJuof7sX/o169n/YF/5OS8Pf8AXK6/9JXrxiz/AORL1D/ci/8ARr17L+wP/wAnHeG/9y6/9JHryKn8WJ89iv8AfYn6WfEzWvEGi+H5JvD1mt9fAqFjYEgjPzdPavIP+Fj/ABc3caLH9Ps5/wDjlfSWPk+Zs/himSIoUEbR9RmuPG5dWxdTmp4iUPJGGYZTXxtT2lPFTp+UbHzp/wALH+Lv/QBj/wDAZv8A45Sf8LI+Lv8A0AI//Adv/jlfR/lJ/dX8qXy1/uLXD/YuK/6C5/geb/q7jP8AoPqfh/kfN3/Cxvi7/wBACP8A8B2/+OUf8LG+Lv8A0AI//Adv/jlfSPlr/cWjy1/uLR/YuK/6C5/gH+rmM/6D6n4f5Hzd/wALG+Lv/QAj/wDAdv8A45R/wsb4u/8AQAj/APAdv/jlfSPlr/cWjy1/uLR/YuK/6C5/gH+rmM/6D6n4f5Hzd/wsj4u/9AGP/wAB2/8AjlH/AAsj4u/9AGP/AMB2/wDjlfSPkp/cX8q4v4ueKbnwL8LvF3iOxS3N7pGk3WoQC6RmhLRRM67wrL8p28/Mv1o/sXFf9Bc/wF/q7jP+g+p+H+R5H/wsb4vf9ACP/wAB2/8AjlH/AAsb4vf9ACP/AMB2/wDjlaXg3453PiTxvYaRo3ijwj8SrWSyuri8HhOLZLYPEqtH5rfap1VZWyqq21ue+xqd8H/jnfePvE1ppc+seHNSvms2l1bQrO1k07U9ClXZ8s0FxO0sqbmaLesSfME7N8p/YuK/6C5/gL/VzGf9B9X8P8jK/wCFjfF3/oAR/wDgO3/xyj/hY3xd/wCgBH/4Dt/8cr6R8tf7i0eWv9xaP7FxX/QXP8Cv9XMZ/wBB9T8P8j5u/wCFjfF3/oAR/wDgO3/xyj/hY3xd/wCgBH/4Dt/8cr6R8tf7i0eWv9xaP7FxX/QXP8A/1cxn/QfU/D/I+bv+FjfF3/oAR/8AgO3/AMco/wCFjfF3/oAR/wDgO3/xyvpHy1/uLR5a/wBxaP7FxX/QXP8AAP8AVzGf9B9T8P8AI+bv+FjfF3/oAR/+A7f/AByj/hY/xd/6AEf/AIDt/wDHK+kfLX+4teeeObPV9Y8X6FpGm+KNQ8MQNp95ezTadb2shmaKW1RUfz4pfl/ev9za3+1R/YuK/wCguf4B/q5jP+g+p+H+R5l/wsb4vf8AQAj/APAdv/jlJ/wsj4u/9AGP/wABm/8AjldV4f8AHWtavq3gXVZdR87TtZgSC+tbKK3FlbyPb+ajsWZp/Mlfb5W3935W/f8AMUavZ/LX0Wj+xcV/0Fz/AAF/q5jP+g+r+H+R598LNa8T61oc83iSyWxvEmZY0Clfkwvzcn/erhfjBd6RY6t4Ku/ENsk2i2+pXn2qSW2adE+R/vfLXvWwbcdBXl3xU+E1j8bfhnqnhPUru6sLO8uX3XFoV81dsrf3q+lw9GVGlGEpczXVn2OEoyw9KNKUubl+09zzz/hP/gxNdSy7dCe0W63+T/Zyb2Xyvv8A3P7++tDUvEPwrs7C0n1DT9Lht5Vl8h5tMRE3M/yfwf3a8O+IP/BPLSPC/hbfoepa3r178sX2ZILVX2/3t/lbq7Txt+znP8Tvh94a0PWrHVNKtPB8DW+nfZ2illnWJPKTzUZHVmdEVvkrpOo7j/hMPhFeXDW0UGiXl7L5SQeVpyP83yf7FM8Aabcp8I7f/Q9mtxaTa2tq93B+9VvuP977vz/L/wAArzH4QfsO6Pp/irT/ABHd6nrdpcaHqNve2tvNY29ulxs+ZN22JG2/3q9d1DV9b8SataXNtq66DZMjyy2MMFuyzsssSb5fNR22r8y/J/foAkvre83WnlQWlm8V1vure4vER/s+z7m/Y+759lX/AAzJHr3i63g8iObTYka1ud7LsaVU/gT/AH9/zVwvibS/EMmpaxcr4xaHbpN09q3kWqRWUu99kq7EVvIT+Pf81UtNTxfo9+9y3xEkmiibS38n7DYIn73/AI+N+2JG/e/J5Xz/AMFAH0Vp3g+2sNWivLFls7eNf+PSGJURv9updYSO5vLqN4lmiZrVGRl+9871Y8P6k2sabFc/Mnzbfni2VR1SC8m1xRFbSSQSeR+9RvkTa77qAOTtvDfhO2t728g8J6XNFbxfMn2W3fc2+rD+EvCut6fb3i+ENNdGib5Esbf5WrG+B9jd2t94lWVWhR7x9sUrS7/vv8+13/8AQa9ha322+0L/AMBoA8I8aeLvD3w9t/8AhY19LHpVh4fsH0v7CgidG3PuXbtb/ZrR8C6XY/EC4tPiPot/Fqtnq7fa0t32eUyNEkW3d8//ADypvjPXrPQfiHZaHqEq2fh2/wBMllnieBZUeXftT7yN/DWJpPxFubnxRdrbLfa34Us7rylhsdOR/l+zxOn3UT+N3oA9H8ZeF5/EWgtby6daWKoy3HnLL93Y+/b9z/ZqLbqXiKG31F9IZJV2r9nf+5v31zHifxyupaWltpHhfWbO9lniTzn0l02qzoj/APjj165oWkro8Lx+ZJM8jb2L0AYHguyv7fS7tbmymhl/h+17N8vy/wCzXIeE/CfiRtcSfUNGtNNgj8j7lzvdmR9z7f8AZ+VK9k3U3eu6gBlvGyR7WqaovtCUn2hd+2gDkfGFtPNdI0Gnx3j+Uy7n3f7Py157qV1d23jq0tp/DGxLiL5JktbqVJ9r/c3r8sW373z17huX5m+aq+//AGd6UAecfDi4HiCHxRFc2M1oi6o0X2g2dxa+ftVPn/f/ADN/d3r8v92u/wD7LRtN+xsrPb7Nvz/fq35MjfN/FVn+GgDk7LwLZWOtDUomuTKsrS7Wn+Tc6bXfb/erCuNNtfHGoan4f1OBbi00a6ildPmR2Zk3p91/9qu61LWrTSbfz7mTZFu2lttcZ4bee18Va1qflN9g1me3WB9y/wAMWz/2SgCrcabbeD5bTQbOKNNP1GeV4E+Z3Tam9/mZ/wDYqp4XtToPg/WbhoLm8ZLVdsM0+x3VU+7u3bVrY1qO51jxXpM8Vs32XTrxknd9v/LWLb/7OtdBD4ftdIsbgQxfK6/N5rNL+HzH7v8As0Acp4HuludH1xt3/Lfbsefe6/uk+R1/g/y/8Vehaf8A8eNv/wBc1/lXAeB5vtPhnUJWsYbB5Xbalvs2bVRE/wDZf467/T/+PG3/AOua/wAqALVFFFABRRRQAUUUUAFFFFABRRRQAUUUUAFFFFAHg3xa1jVD4dubCN9Q85dRv2u0WJyn2P7HdMm5/u+V/qv+BbV+9Vb4U3V/pv7MvgDWdPNxNLpOn2d5LaW+92uYFi2zx7F+aRvKZ2Re7oleqfFH/knniH/sHz/+i2rl/wBmH/kgXgH/ALBNv/6LFc3/AC++R7d75ZJf31+TPEv20o9S/wCGTobnVZp2v77xRo968VwfLa1WXUonW3/7ZKVT/gG6vbfiM3iaTxFDpmjS36R6xabY7u13bNPmtmeXe/8Asy70i/2tteb/APBRT/k3NP8AsZtE/wDThDX09XSeIec/Dm+vdYtF1e8a6jk1J5byO2vImjlggaQ+UhRvmT92qHb/AHmevRPWsl/+Q6P+uX9a1vWvAyn/AJf/AON/oaVPsniFx4m+Ji3948ljb22j2k+o3FvcW7vPd3kUF6u2F7f7Kqxb4FdUZZXZt4aiTUvFF54G8ZweJPODW+lOyPJAqK7To8uz5U/5Yrti3fxfxfNXuFcr8Uv+SceJf+wfN/6Ca98zOQ8Za9420mx0JPB+lWupq2i3Us63lw8CK6rB5TKyW8u5/mfbF8u/5v7tcr4q1rxLf3dxpeo/bEtdI1O1lluHtViivUnuInt0Vtv/ACyXzVbb/dXdXuPh7/kA6Z/16xf+gCuY+MX/ACKNv/2E7L/0oSgB/wATdR8Q6X4Zgm8LW8d5rL6hZwrBM5jiaJriJZdzLFLsXZu+fY22vOb3xl47bR9Xt9Stms9Tk8hLeC1t/PiXOqXUVxsleJN6LarD8zovy/N/Fur32s/Wv+QNqP8A17yf+gmgDC+FP/JNfDP/AF4Rf+g15pofi74wXFnEy+GNEvLs6bFLBFdatLEs7+btd5v9CXyJdn/LJd6/e+b5fn9J+FP/ACTXwz/14Rf+g119AHnnwsa4a88XNcxxxXLaw3mxxSmVFfyYt219q7v++FrP8Ya944sfGUtpoWmWl5oP2awee5uLl4ZYXa6lSXyVW3l89vKVNys67fk/v1s/Dn/kNeN/+w0//omKu6oA83tb2XUPi5p081jPpsraDPm3umjZ1/fp/wA82df/AB6vSK4a5/5LZp//AGALj/0oiruaACiiigAooooAKKKKACiiigAooooAKKKKACiiigAooooAKKKKACiiigAooooAKKKKACiiigAooooAKKKKACiiigAooooAKKKKACiiigAooooAKKKKACiiigAooooAKKKKACiiigAooooAKKKKACiiigAooooAKKKKACiiigAooooAKKKKACiiigAooooAKKKKACiiigAooooAb2NfHn/BSvj4TaK3/URSvsPsa+QP+ClX/JItH/7CKVjW/hs5MX/Bkfmwn3KxNbuVhtbhX3f6pvuLW3/DXP62iu1xu+/5Df8As9fPR+I+IjHmkS/DSZZvFun7Pk27vv8A/XJ69A8Xf8jlP/1yuv8A0OWvPPhci/8ACYWSr/ef/wBAevRvFn/I73H/AFyvP/Q5a9igfYZf8LPl/wCJX/IxL/16xVyldb8Sv+Rii/69oq5KvSiekFPplPqgCvbv2dfvQ/8AX+3/AKKrxGvcP2d/+WX/AF/N/wCiqmQHp9l/yJN3/ur/AOjXr2D9gv8A5OQ8L/7l1/6SvXkFn/yI9x/1yX/0a9eu/sG/J+0h4X/3Lj/0kevIqfxYnz2K/wB8ifrNnPXihm9Dmqt9by3EBWKXY396sr+yL/tcH8z/AI15GYZpi8JV5KOGlOPdH00acZR1kdBu9xSbh6isD+x77/n4/U0f2Pff8/P6mvN/t/Mf+gCf3ov2cf5jf3D1FG4eorA/se+/5+f1NH9j33/Pz+po/t/Mv+gCf3or2Uf5jf3D1FG4eorA/se+/wCfn9TR/Y99/wA/P6mj+38y/wCgCf3oPZR/mN/cPUVy3xC8Kt47+H/iLw39s+wnWNPn083Pl+YIvNRkLbfl3feq1/Y99/z8/qaP7Hvv+fn9TR/b+Zf9AE/vQeyj/Mcv4i+Fv9reNLHxDY6vc6NcfYpdL1UWgdP7QtXT5BvV1aOWKT545fm2B5V/j+XO0P4S63J4s0DV/FXiuLxFF4beRtHMem/ZLks8DQO91L5r+e2x3+6sS7ju2/Ktdz/Y99/z8/qaP7Hvv+fn9TR/b+Zf9AE/vQeyj/Mb+4eoo3D1FYH9j33/AD8/qaP7Hvv+fn9TR/b+Zf8AQBP70Hso/wAxv7h6ijcPUVgf2Pff8/P6mj+x77/n5/U0f2/mX/QBP70Hso/zG/uHqKNw9RWB/Y99/wA/P6mj+x77/n5/U0f2/mX/AEAT+9B7KP8AMb+4eorlvFnw58J+P/sn/CT+GtH8SfZCzWv9rWEV15DN94p5itt+6vT+6Ktf2Pff8/P6mj+x77/n5/U0f2/mX/QBP70Hso/zB/whugSeIoPEDaNpr69BB9mg1R7OL7VFEefKWXbuVP8AZroNw9q5/wDse+/5+f1NH9j33/Pz+po/t/Mf+gCf3oPZR/mN9WyPWs7Rf+POT/rvL/6G1P023lt4NssnmPn72aZof/HnJ/13l/8AQ2r6/C1qlajGpVjyyfQ55e7IvyRM5+U7awLzxJa6frD6bIshlWDz/u/Jtrpq8O8aWsH/AAtxrs6qyXFvFaotu7v5Xzeb+6dfu/vf/ZK7iTu7vx5bR6GmoRwM6yzrbstw3lbWb/e/hrhNe0fSPHnihYF8Prbava2v+jX275F3bJXRlX73zItcrqVjBqvg+KzudVsUiXU2lRNM82JJW+zu/wDD/Ej/APoFEdjbW/ijUNTg8cK9381r5yM6Jt/s9P3Wz7u7/l43/e+egC14s+EGhrq2oR6lp8dymqRPDKiPK+6CWVN6f7O/c9R+F/gj4DsZP7Zv7O0k0jfF+8nvJXXdFu8j/vj+GsnxDoln/Ydv5/iyeG4t4L91muLqWWWLakT+a0rfMyxfe2P8vz109q2pePIf7GsnsktrAwz/ALm1eBJ/lbc/3/u/+hUAeja14ssfBLaDpttZ74L+XyoFhl2bfuf99feravNcnt9XitI7Nnjbyt03mfd3f7P/AAGvJZNL1PxlcWl9df2fN/wjV5L5W61f5dqbd/8Arfm/3a9A0fUJdW0/StQudqS3UFhcN5S/J89AHVWGi22kyTSW8Cx+a25ttZnizxlYeEbGGe8fZ5rbI/nVVZv95q8v8XftmfCXwT42HhPVPFEcOrq3lSiOJ3iib+68q/Ktdj4ytrHxNb6JPFHd6laM++L7DPshl+Tejt86qy/LQB1dtNY69a2tz5CvFKu9POWrtjZxWu7yY1h3feVVrifDt5q+nta6ZLYy/LL9+RPk8jZ/f37d+/8Ahru7fP8AF9/bQATQs2z+7/FTZpPJh3fxf3UqHWNas/D+mzahqM621pAu6WZ2wq1w4+O3gTUN8dt4jtJnVW+VGoA6rTfE1pq2lvfWqztEn3lePY//AI9VC78VIy2tzBNBBbSLLue7Zf4f+BV5J4D+KHhLTfhrqFtPrCo/7359r72+X/gbVm2fxO0h/BeiNLqdtZ3qtL8zruSLc/yO+5E/g/2KAPbdSm1z7FutGsnfcu3Yv8P/AAKucuNQ8WW148VzeafbJL/qN7IsrN/c/wC+tv8A33WL4g+NHhzT9H0hbHXFhuGaJdqRfdXZ/HWZ4u+KHhO88XeHduqK7K/myptl/v8A8W35fkoA9M0/WNS3JbXE2nxXrfOluzfPt2/7/wDvVopeahb3Votytt5Vw+z9yr7/ALjt/wCyV5K/xU8Kv8UorltXgeJbXZvRpf8Ab/4DSeE/iVpmrfEbUEfxDbzWktyyW0PmvtVVilZ/lZ9v3P8AZoA9svNWtNNVftV1Fbbvu+dIq7qp3HirR7e1lne9hZE+9sbd321xvjL4heHNHht7u51q2htLy1lS1f5fnben3a4+w+NPhr/hAWum1eCa7/uOqs7fP9z5v/sv+BUAegXOt+H/ABnpKRLqPk27bZVfzfK/9Crmr7W9e0fVPIsYtH1XR4NrWe/U4rd/u/Pv+Rqxb/4seF9M0fSP7KvoLaVtvm29vAq/w7fmXav3Pl+4tXde+MHhX+3tKgttXX5n2S+T9z/fdNm6gDU0bWNevPEkUmorpOj6PLP586x6nFO7OqJsT7i/3a9BuNc0+8tZ4YbyCaZlZQiSrurzH/hcHhpvHRi/txf7PW13tFsXZu3/ACfdTcv/AAOqWifFTQ7/AMZXETa5bPbxXW+J3ZVTbsffs/h/9moA6j4c6bc6V4Nu4rzTG0q4aWV/Jf593+3ur0TTf+PG3/65r/KuYvfEkGtJFaaROt5cXSf61PniiX++1dTax+TbRJu37V27qALFFFFABRRRQAUUUUAFFFFABRRRQAUUUUAFFFFAHJ/FD/kn/iP/AK8J/wD0W1cr+y//AMm/+BP+wVb/APosV1XxN/5J/wCIf+vGf/0W1cr+y9/yb/4E/wCwVb/+ixXP/wAvvl+p7Mf+RZL/ABr8mebf8FFP+TdIv+xm0T/0vir6fr5g/wCCif8AybrH/wBjNof/AKcIq+n66DxjIb/kNr/1y/rWn3rNb/kNL/1z/rWl3r5/K/ir/wCN/oaVPsklcr8Uv+Sc+Jf+wdP/AOgGuqrlfil/yTnxL/2Dp/8A0A19AZmv4e/5AOmf9esX/oArlvjF/wAifF/2EbP/ANKErp/Dn/IA0v8A69Yv/QK5j4y/8ifH/wBhGz/9KEoA7ys7XP8AkD3/AP17yf8AoNaNZ+tf8ga//wCuD/8AoNAGB8Jv+Sa+Gv8Arxi/9Brr65D4S/8AJNfDf/XjF/KuvoA4P4b/APIc8c/9ht//AETFXeVwXw5/5D/jn/sM/wDtGKu9oA4K6/5LVp//AGAp/wD0eld7XB3X/JbNO/7Ac/8A6PSu8oAKKKKACiiigAooooAKKKKACiiigAooooAKKKKACiiigAooooAKKKKACiiigAooooAKKKKACiiigAooooAKKKKACiiigAooooAKKKKACiiigAooooAKKKKACiiigAooooAKKKKACiiigAooooAKKKKACiiigAooooAKKKKACiiigAooooAKKKKACiiigAooooAKKKKACiiigBlfI3/BSTb/AMKc0zP/AEEUr65r5I/4KPw+Z8H9P/2b1W/Vawrfw5HJi/4Mj80465/xD/y8Lu+9F/e+St6OnaX4e/4STxHZWO5dl03lMjvs/wDH/wCGvn4/EfF0/wCLExfhcjSeLrRv4Ivvb2/2Hr0XxUm/x5cfN/yyvP8A0OWuE8AWbWHjSKBm+XzWRk/3d9eh+Kk/4uJd/wDXK8/9q17FE+wwXwyPl/4i6PfXOvW8sFnPco1qu3yYnf8Av1zieFdaf7ukah/4CvXv0LsmlxNWY7tu+81d8ZHeeNJ4J15/+YRd/wDA4nqVfAfiH/oFT/8AA9iV67RV8wHkn/Cv/EH/AED2/wC/sX/xdevfBPRLzw/dWUF4saSy3TXGxG3uvybPnpkddB4J/wCRnsv95v8A0CoA6iz/AORFl3f3V/8ARteu/sGp/wAZIeGP9y4/9JHryWz3f8IDLsXf8q/+lFev/sGx7f2i/DDfwbLrb/4DvXlVP4sT5/Ff75E/WNfuiik3fLmjzF/vD869U+gHUU3ev94fnR5i/wB4fnQMdRTPMT++v50eYn99fzoCzH0UzzE/vr+dHmJ/fX86Asx9cT8VNe1nwn4C1jXNFggurnTUW9kt7iJn8y3jdWuFQKy/vPKWTZ/tbetdn5if31/OonEU0bK+1kZdrK1AWZ5F47+NF14Z1bUbnSLaz1fR9L0BNRuEMjLLPdXMyxafEj/dRH2z7m2t0SrNx4o8X+Bde8HWniSbRdV07xBe/wBlyvpNpLaPZ3TQyypJ888vmRt5TJ/C250b+9iHwz8B9K0f4e+IfCGp30mpW2rs0bXFrH9mkgtlVIrWJDub54ooogH/ALyl8Luq3p/wz1nUPEWlal4u8WR+IotCujeaRaW9h9jKyGJ4vNuW8xvPlVJHxsWJMufk+7tQWZ6vRTPMT++v50eYn99fzphZjtvvRt96Z5yf3l/76o85P7y/nQFmPxRimecn95fzo85P7y/nQFmR3EjRQySIhkZVyFX+KvmfxD8QPGOh6PPfxeI9Yu5vEnh+bUNO1D7Fpcmj6ZdLEWEUCqy3Xyfxeek6t8g3q3y19Oecn95fzrlbL4d+D7HUdZ1K28M6Hbahrm3+1LqLT4kmv8f89327pf8AgeaAszyGTx54p8efEC58JQ+JL3wdeWv9m2uoDR4bWWW1umi1KWXynureVWSVILVl3J9zb91mavWfh7qV5f6LNHeagusS2N3NYf2kqKn2nynK72Vfk3/wvt2rvV9qoPlC+Kvhv4O8di5i8SeF9B8QQ3Qi8+PVNNhullMRfyt29Tu2eY+3+7vf+9W1pNjYaHp1tp9hBBZWNrGsEFtbIscccajaqIq/dVR27UDtI1azdD/485P+u8v/AKG1aKurdGzWVosvlWbf9d5f/Q2oJNbzK8a8WeOPA+m+Kri9udIn1LX7OeK0328SPL5v/LJPv/7f8Vewb93zV4b46+E+var4suNe0+Kwu5vt9rOtu8/lebFE6N/wFvlegCO88WeGte017a8+Hfia5tLdvtDJNZpvXdvT/nrurP1zUtBvFXU7b4deILed5Villis4t7Js2Omzzfvbfl+792rfh34x6z4q0HVfE8/hePRNM06VreWbUNR+z7Gglfe7eaifL/tVv6J4h8S69pNprulaLp+pRXkn2pLiHVka3lRk2fI2ygDhdNfSobfbrXw+1m80zaz2cKWcT7d333f97u+dNn3/AO5WhNqtjbXkqr4a8cW0twsSMkMFvs2r8ifdlrdXxxqSxbrOx0d5Wia1ndtYi/vv/sf33qu3jq++2XGkQabppVoInnT+1k3xIqf3tn8WygDEXXtL0GS587SvG1nun3yPNBFsV2dP7kvzV6J4bmsbzQ7RdMaf7Fbra2UT3C7H/dO6Vx+oX/iP4l+Gb200PTLJ7f7V8t3/AGmv7qVX+dG2J/BXaeHfD7eHIXsh8n+k2r/LJ5j/ADP992/i+ffQB+TXxU/Zt+Jej/FzW9Ibwhqmqy3uo3EsF3aQPLbzo0u9H837qff/AI6/Raz8K6x8K/gL8PdD1GL7XqGjWMVpc+Vufy5dm3+4/wAlfSDw+T+9Zvu15T8QtbXW/EUvheLw5d69LawW97KkOo/Zd255dn+9/wAe7UAP0LxTdnWPD+mO0kSNZo8qRJvRt27Z83+79567+412Cx1m0sZI53uLpflZF+Rf87a81hv9Xtrqy1CDwhdvLFB/BrWzbEv99P4qNU1zxPceKLe9i8H200ECKslw+rf6ht+77mz+KgDW+KGvNrWk6poFjZT3moL5Uqww7NzbJUZ/vf7NcfpPxabxZLqen6V4M1t7vSVl028SH7O728/yPsf97WxZ6r4vh8aS30vhXZZSp9nV21ZWRv8AY+5/49Wnp/izWdPa+uo/BENg86/apZV1GLdcbfl3/Kn/AKFQBUTxnqDrK3/Cu/EVt8yutukVrsbb/wBtaYnjPV1ZJ2+H3iR/ml/0R4rXYu7/ALa/531ut438TqkvmeC9kquqrD/acW9/7v8ABTY/iB4lkt0Mfg0vdMzp9n/tSLfuX738O2gDBfxZqSrj/hX/AIjuS0TJumjtdsH3vufvf87afN401J7r/kQPEjq7RP8AaPKt/l27P+mtbc3xC8R7UaPwd9pV13y7NTi/dL/tfJSz+PvEtvPhvBqtHvSLzl1SLYrN93+H/aoA56PxhqsMzp/wgHiSFd8rLdpBb723b/8AprWTq0+t+MNS8PxL4I1bR1spZXnuLiO32t/oVwn8Mv8AfZf++67qPx/4jkuNn/CI/utzL9o/tOLb8v3v4Kgj8deJZleWTwZ9m2LuXztTT96v+x8lAHH+J5pPhfY6Fq8uh32paPpdndJdPb+V+4XzUffLvf8AuLU+l/ES51rTbTU7H4fa7f6fcebcRbIrXY6y7Njp+9rpZvF3iS8024gvPAyyBv3MtjLqMT7933f4Nu1qkh8YeI7O1iitvA6p/wAskt4tUiXbt/4BtoAxP+Ey1SO3hib4feIbnfbrE3mwW6+W3/f3/O2pk8Yar53lf8IH4mm3SrKt88VrvX/yLWu/xC8RrHE0Xg5rn935reVqcXyr/tfLTm8deJY7oIvg5Xh3bGuP7Ui2bm/4BQBi/wDCYapJcJ/xQPiSHy3lZpkit3d1bft/5a/7Vc7qT614qutEtl8E6vpsVr/r5ruK32N+6dN/+t/2/uV3n/CeeJJJvLbwYqRs7Ksz6pFsl2/e/h/2ai074kap/bmm6fqXhhtNXUZdkVx9sSVW+Rvm2r/uUAafwv0ddH026tvIaF1n/j+/9xfvV3lYGixbdU1j/r6T/wBEJW/QAUUUUAFFFFABRRRQAUUUUAFFFFABRRRQAUUUUAct8SP+RB8Rf9eFx/6LauR/Zc/5ID4F/wCwTb/+ixXX/ET/AJEjX/8Arxm/9FtXHfsuf8kB8C/9gm2/9FrXJ/y+j6Hsx/5Fs/8AFH8mec/8FEP+Tebf/sadD/8AThFX0/XzD/wUQ/5N7tf+xp0P/wBL4q+nq6zxjIk/5DSf9c/61p9zWbN/yF4/9xq0u5rwMr+LEf43+SLn9kkrlfil/wAk58S/9g6f/wBANdVXK/FL/knfiX/sHT/+gGvfINbw1/yL2lf9esX/AKAK5f4zf8ibH/2EbP8A9KErp/DP/Iu6X/16Q/8AoArmPjN/yJaf9hGz/wDShKAO8qhq/wDyB77/AK4P/wCg1fqlq3/IKvv+uL/+gmgDnPhH/wAkz8Nf9eSfyrsK4/4R/wDJM/Df/XmldhQBwfw9/wCRg8c/9hn/ANoxV3lcF8Of+Rk8df8AYX/9pJXe0AcFe/8AJatK/wCwHP8A+jkrva4O+/5LZpP/AGBZ/wD0ald5QAUUUUAFFFFABRRRQAUUUUAFFFFABRRRQAUUUUAFFFFABRRRQAUUUUAFFFFABRRRQAUUUUAFFFFABRRRQAUUUUAFFFFABRRRQAUUUUAFFFFABRRRQAUUUUAFFFFABRRRQAUUUUAFFFFABRRRQAUUUUAFFFFABRRRQAUUUUAFFFFABRRRQAUUUUAFFFFABRRRQAUUUUAFFFFADPQV8lf8FH1b/hTmnsv/AD/qtfW38S14b+1p8K9e+LHgCy0/w2sD6la38V2i3MmxPlrGr8EjmxC5qckflX4t8AeJfAElpF4j0O70SW6i82BLtdvmrR4H8Q23g/xlomvX0DXNppt0txLDD99lWvtL40fs0/HD9oHVNNu/EA8N6V9gi8qKG3un2fP99vuP/drjLX/gmr48mjdbnXNAhVk2fK0rf+yV4/sKvN8J89LCSjPnhE+QvB7LqHjy3niVkSWeWVUf/cd66vxtrFtpXxGu2lb5F+1RN/vM8v8A8XX1x4T/AOCad/oskVzceI7Q3cKt5bW+/b9zb/craX/gnHBrfiHVtS8Q6j532ydpYktLnZ5X/kKvSoRlD4j3sJGUI++fnLvZbCKL/gdV6/SuP/gmV4a/5aard/8Af/8A+wq5/wAOyfBckMyy6vqCM0XyPC33W/4FXYdh+Yvl0eXX6Nw/8ErdF3fv/HV9s/2LNf8A4ute1/4Jb+DF/wBf4u1uX/diiX/2WgD800StLw7frpWrW95LEzpE3zIlfrPpf7Bfwm0+1iibSZbl4k2+dKyb3/3vkrbtv2LvhTbf8y5E9AH5V+GLptQ8G6xbSrsS3WJP9797vr7Y+BPgP4eeGfih8Kb7wdqTX+rXFlM+pMLjd8zWj7ty/wAHz/w19TR/s+/D2OzS2bwpps8Soqf6RAHbavStrw/8LfCfhW4W50jw9pumzqPllt7ZUZfxrjnRlKfMcFShKdTnOf8AjhoPjnxB4HmtPAOqR6NrzPGY7iZtqqufm/gft/s182/8Ki/arLc+PrD/AL+D/wCMV9uLkLnOfwxSSD5QePxqamEjVleUpfefZZbntbK6XsqdKEv8UVJ/ifEn/Cnf2qv+igWH/fwf/GKT/hTf7Vf/AEP+n/8Af3/7RX29z6frRz6frWX9nw/ml/4Ez1/9cMV/z4pf+C4/5HxF/wAKY/aq/wCigWP/AH//APtFJ/wpf9qn/ooFj/4EH/4xX2/k+lHNH9nw/ml/4Ew/1wxf/Pil/wCC4/5Hw7/wpP8Aap/6KDZ/+BJ/+MUf8KR/an/6KDZ/+BTf/GK+4s0Zqf7Ph/NL7x/64Yv/AJ8Uv/Bcf8j4c/4Uf+1N/wBFCtf/AAKb/wCMU3/hRX7Uv/RQrX/wMb/4xX3Jk0yWYQxPI/CqNxo/s+H80vvF/rhi/wDnxS/8FR/yPh3/AIUT+1H/ANFDtf8AwMb/AOMUf8KH/ah/6KJb/wDgbJ/8Yr1XRPjt4nuvBN1rMlxDda9/YX/CRQ+F7jw5dWFzLbI6NOkTSy/vWRW8r5V+/LE33XXd6rp3jWbXPiPZaTpaxy6KmhLq13ebd24zy7bVVb/aWK4Zv91PWj6hD+aX/gRX+uGN/wCfFL/wVH/I+Uv+FB/tQ/8ARRLf/wAD5f8A4xR/woH9p/8A6KNB/wCB0v8A8ar7qx/nNFL+zqf80v8AwJi/1wxn/Pml/wCC4/5Hwl/wz7+05/0UWL/wPl/+NUf8M9/tOf8ARRIf/BhP/wDG6+7Nx/yaNx/yaf8AZ1L+aX/gTD/XDGf8+aX/AILj/kfCP/DO37Tf/RR4/wDwYT//ABuj/hnT9pv/AKKMn/gyn/8AjVfd/wCH60fh+tH9nUv5pf8AgTH/AK4Y3/nzS/8ABcf8j4R/4Zx/aZ/6KPH/AODKf/43Uf8Awzb+0z/0UhP/AAZ3P/xuvvL8P1o/D9aX9nUv5pf+BMX+uGO/59Uv/Bcf8j4N/wCGbP2lv+ikL/4Nbn/43Sf8M0/tLf8ARSR/4Nbn/wCN1955P+TRk/5NV/Z9L+aX3sf+uOO/59Uv/Bcf8jxj9nHwH468AeEbqw8ea9/wkGpSXbSxzrcvNtj2qFTc6qfvK3/fVdD4w1ZtH0OKZZJ0/wBJnXbbyKjP871325+ilS3sK4e4t7fVpJdK1KWS2mWSV4mU7PNif+Jd3+83+7XoRhGEeVHxeKxEsVWlXmleXbRGI/jzxVbeE31hbbT/ALOkDMm/fv3Kn8dO1vxx4n0G1tL6ez02a0upVWLYz72X/wBlq5J8J4bjSX09/FGqm3aNolR/srbPl2f88vv/AO1Vq6+F9teeUt34j1K5iibf5UnkbP8A0V8taHOfIP7RXx/8SeJ4E0Rp9EsPC2qaFdXF5pl3v+0T+Vv2O+37sG/Zv2fNt31vfsc/EjxGuvaV4J+2aB/wji6B/aEGkws/nK7SvseJ2+/E6/N/s1658UP2XfC3ijwRf22lWOlt4wWzuLfTNY1SJHdGl++j7F/1Tb23rt/jqf4F/AOz+GPhPS7vUbLR5viOmnfZZtbtI0RCm5tkUXyfJEi7furQBj/CXR7HR/A2p319Z/2re2up3CwbZdj/ADPv2b/9itXStFuZrfWtettKtrO0/e29zb/apdn7h3VP+B/7ddd8Pfh9JoHhe8s/EV3Bqt1eXTXFxMu3Yzb/AJf4E+VKxfGGneF/hjoWdY8a3ujabcSNErXEluEZm3Ns5i+b+P71TKUYx5pGlOnOrP2dOPNIg8L2us+E9PbV7FY/sl/++lSWd2RpW+d32/3v9r/Yr1C8/eapu/vNZt/4+9ctpfgG01DRbJofFOpT2DRxSxfLbqGXZ/1y/iWunvJl/tJ/mXYrWvz/APA3qjOUeT3ZHTXH/Hu/0ryT97/wvPXfs277Q2j6bt+b/pre769Ya4iZf9Yv/fVeS/Fb4c6xqUl14h8H+ILrSfEr2sVqkKzxRW8iqz7N+6J2/wCWr0AdJN89r+5Vk/cS+f8AN96Le+6rEyt9tuGg3Jp+5UukdvvNsT/2TZXOw/C2/mtYUm+IfiBH2bWVfsbbt38H/Hv8y1zHxNvPDfwhs7TV/Gvxm1TwxZXlwsMct59iiillRd23/j3+9tT/AMdoA9Mj/wCPpGdWfTXnZIk3fdb/ADvqo/7m3uG1DzHRrZvKRG/5Zf8AxX3KxNO8A3Os29rqtt8S/EEsF1EtxExjstjqy/f2tb1Kvwjn8t4m+IfiCZHXytkq2T/J/d/496ANn/SdtxFOzf2h5sW10/8AHP8A2epV8+ZoooN0Oq7pdz/Js/2//ZKwP+FT3u2ZW+I3iJ2lYO0jrZM/y/d+b7PUn/CrL7bEv/CyPEWEZnV9tlv+b/a+z0Aac2+aErbKyQxRN9sbcvzfM2//ANnp83yXW6JW+w7rd2Td95vk2f8AstYsnwnvXVFb4ieINipsCqtl93/wH+ao7r4W3fnGWT4jeIcMyfL5dht+X7v/AC71jUqUqMfaVZcsQOhs41e4eVvM/szzZdqbv4vn3/8AAfv0i5RNl7ufzY/9F+b7v93/AIHu21jx/Cu8WXzV+IfiAffbZtstm5vvfL9noh+Fd9Crr/wsjxE+5NvzrZN8v/gPW2+wGs6TpFcLcsz6l5sW112bPv8Ayf8As1Sr58kSLA2zUPNl3P8Awf7dYP8Awqm98t1/4WL4ifc2/e62TP8AL935vs9P/wCFU33lqq/EjxIm1mfen2Lf83+19noA01eSaCH7CskKLbL56O3z+V/B/wCz1YeNXuNyq39leau6L/a+T/x37tc/L8J71Y41PxE8QIqr5XyRWC7k/uf8e9Z2v+Df+EYj+36h8S9ft08xTulWyEe7/d+z1EqkaUeaXwkVKkacfaVJcsTsY8LdQNN/x6s8qW39/f8APv8A/Zq4TxheT6XfeErllXfFdebB5r/IsXlP96tWx+HdzfQxXtv8SPEUqTL5sTbbJ0+b+NV+z/7VI/wttLO4ivtX8Z6vqsVn8ypfNa7F/wC+Yl/75q4y5veiEZRlHmidd4H1ptcbULrytnmTr/6Kirr647wLp5trW4dfMSGefzlSZfm27dv/AI99/wD4HXY0FhRRRQAUUUUAFFFFABRRRQAUUUUAFFFFABRRRQBzHxG/5EXX/wDrxm/9AauO/Zd/5IB4G/7BMH/oArs/iH/yJGu/9eUv/oDVxf7LX/JvvgX/ALBUH/oArk/5fR9D2Y/8i2X+OP5M87/4KIf8m+2v/Y06H/6XxV9O18xf8FDP+TfrL/sa9D/9OEVfTtdZ4xlTf8haL/rmf5itEd/rWfN/yFYf9w/0rQXv9a8HLP4lf/F+iLn9kkrlfil/yTvxL/2Dp/8A0A11Vcr8Uv8AknfiX/sHT/8AoBr3iDV8M/8AIu6T/wBecX/oC1y/xo/5EtP+wjZ/+lCV1Hhn/kXdJ/684v8A0Ba5j40f8iSf+v6z/wDShKAO8qlq3/IKvv8Ari//AKCau1S1b/kFX3/XF/8A0E0Ac38If+SZ+G/+vNK7GuN+EH/JMfDX/XktdlQBwfw7/wCRk8df9hX/ANpJXeVwfw8/5Gjx3/2FV/8ARSV3lAHBX/8AyWrSP+wLP/6NSu9rgtS/5LRo3/YHuP8A0ald7QAUUUUAFFFFABRRRQAUUUUAFFFFABRRRQAUUUUAFFFFABRRRQAUUUUAFFFFABRRRQAUUUUAFFFFABRRRQAUUUUAFFFFABRRRQAUUUUAFFFFABRRRQAUUUUAFFFFABRRRQAUUUUAFFFFABRRRQAUUUUAFFFFABRRRQAUUUUAFFFFABRRRQAUUUUAFFFFABRRRQAUUUUAFFFFABSUtFABRRRQAUVxPxQ8aP4C8G32sW+ntrGoI8VtY6aspi+1XUsqRQxb9rbdzuvzbW2jLVwXib9pLTNF8EeBPEEOnM174ulSKCxumuEW1ZYme4WV4oJWVotjps2cv/d+ZlAPc6K8M+Ff7Sun/ELQL3xFfjTPDuhx20l+klxqEvmpaq+3zZ0lt4li/wCAu/8AwKrWrftLeDNNbw3LHqltf6RqmoT2M9+XZWtJorczqnkbN7O42BV+986N81AHtNFec6r8cvAmiaLo+r3nijT003VomlsZlff5sa/ffYvzbE/jbG1P4ttbdx8RPDdvp+r3sur2wttJiiuLyUNuWKORd6Mf95aAOrorkdH+I/h3xB4o1Lw/pupx3urabuF5bwqxMDLsyjNjbu+dPlz/ABV11ABRRRQAUUUUAFJS0UAJRS0UAJRS0UAJVW6t/tVvJEzvF5i7d0LbXX/dardFAHlvhH4S3+g+KtO17XfFFz4ovNJ0+XSNKa4t1jeO3laJ5WnbcfPnf7PCPN+T7p+X5mzd+EfwptfhVpeqWkGoXWqNeXplWW86wW6IsVvbr/sRRIi/7R3N/FXotFABRRRQAUUUUAFFFFABRRRQAUUUUAM8uoLrT7e7i8ueJZk/uuu6rVFAGf8A2Hp+3H2CD/v0tH9h6f8A8+EH/fta0KKAM3+w7BPu2cCf9slo/sOw/wCfKD/v0taVFAGZ/YdhtdfsUHzf9Mlr5I/4KPWFtafCfQvJgjh/4m8fKLt/5YT19j18gf8ABSb/AJJRof8A2Fo//RM9efmH+7TPr+Ef+R5hf8SPof4ZaTZS/Dzw6z2UD7rCDrEv9xa6pdJso1dFto1VvvKq9awPhf8A8k38Of8AYPg/9AWusH3jXZT+CJ85jP8Aeav+JlP+xdP/AOfC3/79LS/2LYf8+EH/AH6Wr9FaHGZ39haf/wA+EH/fpa/PT/gtNp9vZ/AHwQ0EMcLN4nUHYu3/AJdbiv0cr86/+C2P/Jv/AII/7Gdf/SW4oA+3/hro2nv8OfCrNYwf8gm1/wCWS/8APJK6X+xdP/58Lf8A79LWT8M/+Sb+Fv8AsFWv/opa6agDP/sXT/8Anwt/+/S15DD8SLu88RqsPg7SJfC0aWctxqf9pf6Usd1K627pB9n2sm3ynb96u3c/3tvze3V59pvwr0azjtvME0zQG1RfKnliidLZ91ruQPtbZ8n+9t/4DQBxWufF6Oxmv7a08J2EN5a+IG0VhreoLaxJEtkl490zxRT7F2N93b3Xfs+bZ3K39lerfR21uttPY3zWc6KozuVVdf8AvpHRv+BVcu/hvol4utK8V1F/bM7XN+Le7li892gS3Jba3/PKJF/Cq8ugpoa3shk86bUL6S8lcrt/hVEX/gMSIv8AwGviuMH/AMI1X5fmjoo/GjpodGsGjT/QYOn/ADyWn/2LYf8APhb/APfpatW/+rT6VKO1fVYX+DD0MJblD+xdP/58Lf8A79LXk3iT4iXun+IDZ6H4O0nW9PtoLy6vLibUxby+RaypFKIYvs7q8u9pV2O8S/J9/wCb5faa8+u/hPo+oT3321ZmhuluofLtZpbfMFy/mzxOVf5t0u993y/f211iMmb4haPba14nsZ/D7wxaPp1lfw3DJFjUftT3CRJCvb54Nvz7fmb+78zecfF3xZZeKPhzZyw2Een3EsdhqHkrtb93cxlkO7/eWVP+AV7drXw78Na9eahd6tpFpqTX1tb2s8d5GJYmigaZ4vkb5VKtcSndj+KvGvjp4IsPBfgtF05fJtV+x6fa26p8tvawRssUXuA7ytuP9/2r57P/APkWVvQ+W4o/5FGI9D1r4X6XaSfD3QHktIZH+wwgs0an+Fa6mPSbKOQSR2cKOv3WWNQaxPhn8vgLRF/6dY//AEEV1S9q9PBf7tT/AMKPZy//AHSl/hj+QxLdY23LU1FFdx6AUUUUAFFFFABRRRQAUUUUAFFFFABRRRQAUUUUAc14/wD+RL13/rxl/wDQGrjP2Wf+Tf8AwL/2C4f/AEEV2nj7/kTNb/68pf8A0Bq4v9ln/k3/AMDf9guH/wBBFcn/AC+Xp/kexD/kWz/xx/Jnnf8AwUM/5IDZf9jXoX/pwir6cr5j/wCChX/JBLD/ALGzQf8A04RV9OV1njmXP/yFof8Acb+laHrWfP8A8haH/cb+laHrXg5b/FxH+L9EaS+yPrlvid/yTvxL/wBg6f8A9ANdTXLfE7/knfiX/sHT/wDoBr3jM0/C/wDyLWkf9ecX/oC1zXxo/wCRJP8A1/Wf/pQldL4V/wCRZ0f/AK84v/QFrl/jZ/yI/wD2/wBn/wClCUAd/VLVP+QZe/8AXF//AEGrtUtU/wCQVef9cH/9BoA5r4Qf8kx8Nf8AXktdlXGfB3/kmPhz/rzWuzoA4L4d/wDI0ePP+wqv/opK72uC+Hn/ACNXjv8A7Ci/+iVrvaAOC1D/AJLVov8A2B7n/wBGpXe1wWq/8lo0H/sEXP8A6Gld7QAUUUUAFFFFABRRRQAUUUUAFFFFABRRRQAUUUUAFFFFABRRRQAUUUUAFFFFABRRRQAUUUUAFFFFABRRRQAUUUUAFFFFABRRRQAUUUUAFFFFABRRRQAUUUUAFFFFABRRRQAUUUUAFFFFABRRRQAUUUUAFFFFABRRRQAUUUUAFFFFABRRRQAUUUUAFFFFABRRRQAUUUUAFFFFABRRRQAUUUUAeV/FL4VXPxU8SeFFu9TutL8PaPJLqMp0u+ktb2W9CeVb/On/ACzVZZ2+997Z6Vzfgn4Iaz4F1y1tLTVBe+FrDxTL4hsjqV5LcXqrPZXEV1E25PmH2qfzV+b/AJav/cXd7xRQB822v7OviOPw3ptj9v0lLqx0O1s4mk82SJrqDUVvEDJtX90+xVb+L/Zrrofh74q174geGvFeu2nh3TX06+nuZbTS5ZbiTa1k1uv79oovNfc38SLtT5fmr2SigD5dl/Zu8VabdRanbXdvqF9/xNLdrWLxNqeiosc+pXF5byebZ/NLtWXY0Tr/ALjrt+exq37P3i/S/BOueFfDT6GdN1nQtO02S6vru5R7SW1i8pgibZWlV1X7zy7k/wCmtfTVFAHCfDrwfe+D7jxbLdi3c6xrtxqkXkM3+rdIlUN8v3vkru6KKACiiigAooooAKKKKACiiigAooooAKKKKACiiigAooooAKKKKACiiigAooooAKKKKACiiigAooooAKKKKAGV8gf8FJv+SUaH/wBhaP8A9Ez19f18gf8ABSb/AJJRof8A2Fo//RM9edmH+7TPruEf+R7hf8SPpL4X/wDJN/Dn/YPg/wDQFrrP4q5P4X/8k38Of9g+D/0Ba6z+Ku2n8ET5zGf7zV/xMkooorQ5Ar86/wDgtj/yb/4I/wCxnX/0luK/RSvzr/4LY/8AJv8A4I/7Gdf/AEluKAPu74Z/8k38Lf8AYKtf/RS101cz8M/+Sb+Fv+wVa/8Aopa6agAooooAZWF4k/5YfWt2sDxL/wAsfq1fEcZf8iar/wBu/mjpw/8AFRvRf6ofSnLTYf8AVL9KctfX0f4UfQ53uOoooroEMPb614f+1N/yJNn/ANfKfyavb27fWvEf2pv+ROsf+vof+gvXgZ9/yLK3ofK8Uf8AInxHoej/AA7+XwPov/XrH/6CtdOv3mrm/Ag2+DtJH/Tun/oIrpF+8frXqYT+BD/Cj3MB/utP/DEkooorrO4KKKKACiiigAooooAKKKKACiiigAooooAKKKKAOd8ff8ifrX/XnL/6A1cP+yx/yb/4F/7BcP8A6AK7jxv/AMijrf8A16S/+gtXD/ssf8m/+Bf+wXD/AOgCuX/l8vT/ACPZh/yLJ/44/kzz3/goV/yQXTf+xt0H/wBL4q+nK+ZP+ChX/JB9M/7G3Qf/AEvir6brqPGMu5/5CkH+61aI71nXP/IVt/8AdatGvCy/+LiP8f8A7bEuW0R1cv8AFD/knviT/sHT/wDoBrqK5f4of8k98Sf9g6f/ANANe6QaPhP/AJFnR/8Arzi/9AWuZ+Nn/Ijt/wBf1n/6UJXTeFf+RU0X/rzg/wDQFrmPjV/yIcn/AF+2v/pQlAHf1S1T/kFXn/XB/wD0GrtU9Q/5B13/ANcm/wDQaAOX+Dv/ACTHw7/16pXaVxPwZ/5Jj4d/69R/Ou2oA4D4ef8AI2ePP+wmv/opK7+uA+H3/I3ePv8AsJxf+iUrv6AOB1b/AJLV4f8A+wVdf+hpXfVwGsf8lo8Pf9gq6/8AQ0rv6ACiiigAooooAKKKKACiiigAooooAKKKKACiiigAooooAKKKKACiiigAooooAKKKKACiiigAooooAKKKKACiiigAooooAKKKKACiiigAooooAKKKKACiiigAooooAKKKKACiiigAooooAKKKKACiiigAooooAKKKKACiiigAooooAKKKKACiiigAooooAKKKKACiiigAooooAKKKKACiiigAooooAKKKKACiiigAooooAKKKKACiiigAooooAKKKKACiiigAooooAKKKKACiiigAooooAKKKKACiiigAooooAKKKKACiiigAoor57tfiB4nm+KWrWOp6tqegaLLrMmkaNFN4df7LOy2qbd1038TS+ayt9xtqpu3cUAfQNfIP/BSb/kk+hf8AYXT/ANETV6novxQ1nxB4b+HenxzWtt4u1S9a01pIo9yQfYd/9oFV/u+bF5S/9d0ryz/gpN/ySbQv+wun/oiavOzD/dpn1/CP/I9wv+JH0j8L/wDknHhz/sHwf+gLXWfxVyfwv/5Jx4c/7B8H/oC1l/FLxfqnhmx0Wy0QWw1vxBqkek2Ut8jvbwMySSvK6Kys2yKGVtm5NzbV3rnNdtP4InzmM/3mr/iZ6JRXzj44+KXiDwT4Z+IMGkfEHwp4o8Q6Po73FvZ7YhqFhdKyr/pEET/NB86/woy/7e8bWa3+0DrQ0O0mtrW30zW7XRNdfWtNk/e/YtSsYIn2bv4otz7lb+NHRv4q0OM+ka/Ov/gtj/yb/wCCP+xnX/0luK+m9D8XeM/COofDu58ReIbXxLpHjCZbBof7NW1ns7prWW4R0dH2vF+5ZNjJu+dW3/LtPzJ/wWx/5N/8Ef8AYzr/AOktxQB93fDP/km/hb/sFWv/AKKWumrmfhn/AMk38Lf9gq1/9FLXTUAFFfMuo/GzxPpXxJutM1HWLDw+66/Hp9joGuaRcWtrqNm8yoskGqM3lSzsreasS+nlbP466bSPFnjn4iab4j8SeD7/AE21ttM1S90zTNDvrQ/6e1ncPBcCe43bo/NlikVGRfk+Vm837tAHuI+9WB4k+9b/AFaue+Gvi7UfFPiL4i2uoCNY9D19dNtkReVi/s+0n+Y/xfNcPXR+I/8AWW/1NfD8Zf8AInq/9u/mjeh8aNyH/VrT/wCKmQ/6taf3r7Cj/Cj6GL3For5mX40eKLH4nS6RrOqaf4cnbxANNtfDusaTLa29/YtN5cU1rqLt5Us7RYl8pP8Arls3fPT7j4h+PtJ+Hvin4mN4hsr3S/D+p6t5/h6XTEQSWFnezRMqTq+5ZfKi3b23ru/groEfSTd/rXh37Vf/ACKGn/8AX2v/AKA9TeL/AIvatofxbsLCMQQ+CLCaz03WruZfn+2X5dbRFb+HY62+7/r9T+7UH7Vn/Io6b/1+D/0B6+dz7/kWVvQ+W4o/5FGI9D1XwX8vhfTR/wBME/8AQRW7/hWN4SG3w/YD/pkv/oIrZ/wr2cL/AAIeh7mE/wB2p/4USUUUV0naFFFFABRRRQAUUUUAFFFFABRRRQAUUUUAFFFFAHO+Nv8AkUda/wCvSX/0Fq4f9lj/AJN/8C/9guH/ANAFdz40/wCRU1j/AK9ZP/QWrhv2Vv8Ak33wL/2Cof8A0EVzf8vV6f5Hsw/5Fk/8cfyZ59/wUK/5INpf/Y26D/6XxV9N18yf8FBv+SGaP/2OGg/+l8VfTddJ4xmXX/ISt/o1aJrPuv8AkJ2/0atCvCy3+Nif8f8A7bEuWyFrmPiR/wAk98Tf9g64/wDQGrp65j4kf8k98Tf9g64/9AavdIL/AIT/AORU0T/ryg/9AWuY+N3/ACIE3/X5a/8ApQldN4R/5FLQv+vGD/0Ba5n43f8AIgTf9flr/wClCUAegVT1D/kHXf8A1yb/ANBq5VPUP+Qdd/8AXJv/AEGgDlfg3/yTHw5/16/+zGu2rh/gv/yS7w9/17f+zNXcUAef/D3/AJHLx9/2EYv/AEStegV5/wDD3/kcvH3/AGEYv/RK16BQBwGsf8lq8O/9gq6/9DSu/rgdZ/5LN4b/AOwZdf8AoSV31ABRRRQAUUUUAFFFFABRRRQAUUUUAFFFFABRRRQAUUUUAFFFFABRRRQAUUUUAFFFFABRRRQAUUUUAFFFFABRRRQAUUUUAFFFFABRRRQAUUUUAFFFFABRRRQAUUUUAFFFFABRRRQAUUUUAFFFFABRRRQAUUUUAFFFFABRRRQAUUUUAFFFFABRRRQAUUUUAFFFFABRRRQAUUUUAFFFFABRRRQAUUUUAFFFFABRRRQAUUUUAFFFFABRRRQAUUUUAFFFFABRRRQAUUUUAFFFFABRRRQAUUUUAFFFFABRRRQAUUUUAFFFFABRRRQAV5lJ8J7u68Tw3V/4q1XUNBt9T/tiHRbgRuiXH8Cebs3mBG/erF/C/wDFsVUHptFAHAaD8MLHw38Q9e8VpcyzNqi4is3C+VZs2z7Q6d8ymKJm/wCuVfPv/BSb/kk2hf8AYXT/ANETV9fV8g/8FJv+ST6F/wBhdP8A0RNXnZh/u0z6/hH/AJHuF/xI+kfhf/yTjw5/2D4P/QFpnjrwRB8QNIisprq50u5s7mO9sdRsyguLS5QnZKgdWT/gLqysrMrLg0/4X/8AJOPDn/YPg/8AQFrrP4q7afwRPnMZ/vNX/EzxfUv2ef8AhKZNaufEXiW5v9R1HS5dJSS3sYLaKCKWWGWV9qpuaVmgi+dn/h+VUqz46/Z10Pxr8QbrxYb++06/vdAvNAuobf5oZlmTYs7L/wA9UXcu7+Jdqt9xcex0VocZ5L4X+DOo2OqeHbvxJ4uuvEsXh1caXZCxgtYIpfKaLz22De8nlO6ff2/O3y18i/8ABbH/AJN/8Ef9jOv/AKS3FfopX51/8Fsf+Tf/AAR/2M6/+ktxQB93fDP/AJJv4W/7BVr/AOilrpq5n4Z/8k38Lf8AYKtf/RS101AHj+rfA291y6vbO58Z6tL4RvdS/tKbw/LBBJ83m+c0S3DJ5ixNL8237y/dR0Xipdb+CdxcHXrDSPFmpeH/AA7rs0k9/pllFFuV5f8Aj4NvNt3Qeb8zN975nZk2Ma9booA8n0f4S654W8aa9q2jeMGs9J1rU4tSudJk02OX5lt4LdlWZm3fMlun0ruvEP8ArLX/AH626xPEX+ttf9+vieMP+RRP1j/6UjfD/Gjbj+6v0p9Mj+6v0p9fYUv4cTF7nj958D7u6upLW48Z6tN4Sl1JdVfQbiCCXEvn+f5S3DJ5oi8359v3v4VdV+WqMf7Pd7dWV/oF/wCNLq48GX2p3Wo3Wgw2EETzrPcPO9u9x8z+Vvdl+Xa2z5d1e3UVsI8X1T9mHwZ4i0rxWdU0yzvvEHiC6urpvEc1jC2oWjSnEPky7dy+QixKnP8AyyFY/wC09HJb+B9Gjnl+0zrcorS427m8t/mr3xu9eE/tYN/xS2lf9fo/9FyV89xB/wAi2t6HynFX/InxHoew+G/l0ezH/TNP/Qa1qyvD/wDyCLX/AHF/lWrXr0P4UPQ+iwv+7w9B9FFFdR0hRRRQAUUUUAFFFFABRRRQAUUUUAFFFFABRRRQBj61YtqmkXtorBWmhZFZvdcVzfwZ8F3Hw9+GXh/w7dTJcz6darbPKgwrFRjNds7eWAfwojk3AA0cqvzGsa040nQ+y3f7v+HPM/2gPg23xy8D2fh06q2ii31ex1X7R9n8/d9muFl2bdy/e216lRRQZFG4hLXcMmeEDfyq3RkdaO2a5KVGNKU5R+07/gkO4+snxHpKeIdB1DS2kaIXkD25kUcruXGa1qK6xGfpOnjS9LsbNW3/AGWFIg397au2sf4geGpvF3hmXToJo4ZGmhk3SjK/JKr/APstdRRQAVWuI/OtZYx/ErLVmigDnfAfh2Xwt4R0rSZ5Vmls4fKZ4x8rV0VFFAHLeGvDM+i694kv5ZY3TUrlZo1Ufd2pt+aupoooA5W+8Lz3XjvStcWWNILO0mgaLHztvK//ABNdVRRQAUUUUAFFFFABRRRQAUUUUAFFFFABRRRQAUUUUAFFFFABRRRQAUUUUAFFFFABRRRQAUUUUAFFFFABRRRQAUUUUAFFFFABRRRQAUUUUAFFFFABRRRQAUUUUAFFFFABRRRQAUUUUAFFFFABRRRQAUUUUAFFFFABRRRQAUUUUAFFFFABRRRQAUUUUAFFFFABRRRQAUUUUAFFFFABRRRQAUUUUAFFFFABRRRQAUUUUAFFFFABRRRQAUUUUAFFFFABRRRQAUUUUAFFFFABRRRQAUUUUAFFFFABRRRQAUUUUAFFFFABRRRQAUUUUAFFFFADK+QP+Ck3/JKND/7C0f8A6Jnr6/r5A/4KTf8AJJ9C/wCwtH/6Inrzsw/3aZ9dwj/yPcL/AIkfSXwv/wCSb+HP+wfB/wCgLXWfxVyfwv8A+Sb+HP8AsHwf+gLXWfxGu2n8ET5zGf7zV/xMkooorQ5Ar86/+C2P/Jv/AII/7Gdf/SW4r9FK/Ov/AILY/wDJv/gj/sZ1/wDSW4oA+7vhn/yTfwt/2CrX/wBFLXTVzHwz/wCSb+Fv+wVa/wDopa6egAooooAb6Vga9/x92f8Avf1Fb/pWBr3/AB92f+9/UV8Zxd/yK5f4o/8ApSOih8Zvx/dFOpsf3RTq+up/BEwe4UUUVqIib7wrwb9q9v8AindKH/T2P/QGr3lvvCvBv2sG/wCJDpP/AF9j/wBBavmuIv8AkWVPQ+Q4r/5E1f0/VHtWh/8AIKtf9xf/AEGtGs7Q/wDkF23+4v8AKtGveofwon02G/gw9B9FFFbnSFFFFABRRRQAUUUUAFFFFABRRRQAUUUUAFFFFACUUtFABRRVS41C2s/9fcQxf77haALO2jbWC/jjQYfvapbf8Bakj8deH7j5U1a1z/tS7afLIVzoaKqWuoW18ube4hmH/TNw1W6QwooooAKKKKACiiigAooooAKKKKACiiigAooooAKKKKACiiigAooooAKKKKACiiigAooooAKKKKACiiigAooooAKKKKACiiigAooooAKKKKACiiigAooooAKKKKACiiigAooooAKKKKACiiigAooooAKKKKACiiigAooooAKKKKACiiigAooooAKKKKACiiigAooooAKKKKACiiigAooooAKKKKACiiigAooooAKKKKACiiigAooooAKKKKACiiigAooooAKKKKACiiigAooooAKKKKACiiigAooooAKKKKACiiigAooooAKKKKACiiigAooooAKKKKACiiigAooooAg2lsZ7jmvkb/gpNu/4VHofHy/2un/omevrw/d5NU9R0211KER3UCXCLyFkXdXNiKXtqUqfc9bKcf8A2ZjqWMtfkd7HPfC9Cvw98Pf9g+3P/kJa6zB5qOGFLeMRxKqIo2hV7VOe9bxjyx5Tzq0/a1ZVP5h1FFFUZBX51/8ABbD/AJN/8Ef9jOv/AKS3Ffomtcv4w1XQdNt7Ya9DDc+bJst4prbz2Z/RV29aTly6gL8M/wDknPhX/sFWv/opa6f8K4jT/it4Ok0/zF1zT9NhgG147udbd4v+AtUOk/GrwfrUj/ZdXjMSrn7Q3EX/AH1Ue0jLqB3vFG0V5rrnxw8OaOpS2lk1GXbuXyB8hb/eavL9a/ajvfCtve6nqVpZyabb7dsUcux33N/eb7tRKtGJXKfS7d6wtcz9qs/97/4muA+GP7SnhX4leXa+f/Y+rv8Acsrx1Hm/9cn+69etFUkwSM142aYNZthHQjK17fg0/wBC6cvZy5iSP7g+lOpPSlr3Yx5YqJkFFFFWBCwO0464r5+/aoZ/7L0oH7v2gfnsNfQW3pz0qrd6fb3yjz4lkC9CwzXlZng/7Qws8Ne3MeHnGXyzXBTwily36jdHUpp9uD18tf5VepEQIu0dqd2FelCPLFRPXpw9nBR7DqKKKs1CiiigAooooAKKKKACiiigAooooAKKKKACiiigCvNMlrC0srLFGq7mdm+Va+a/FX7cPgf/AISyTwr4Y1e0v9XSXyXnm3eSrf7O379dL8aPF51a9bw6smNPjXN5H/z3b+5/u14HpXwi8BeG9ZTV7HQbaHUIm+V3Z3+b/cauylQ5lzSOaVT7MT29vFmt6sjNd6lM+7+CFvKRf++a+cPix+1RY+GNWvdI8OWcesX1u3lS31w3+jo39z/a/wC+67vWPGH2CKW5nufJt4l3s/8AdWvznTxzYvf3a3zNbO87Os330b569C8IfCc1pH0Lc/tS+Pbmfd9stIU2/chs12Vt+F/2pvEMN1u1exttStG+Vnt/3Uq/+y188x+MNF8rc2p2j/8AAvnqhqXxR0+H/RtKVrl2/j2/JS5iPfP0t8JX8XiTSbHWtPk3xXUSyxTJ8j12lt8QNc8Fxvc3mqxzabEu+X+05fuL/v8A3q8T/Zl15b74M+H50ZXdVlSVE/hbzXr1DW9H0/xbpctjqETPbsv8LbKv2cJxDnlE9c+GPxt8KfFhLhdC1W2uL21bbPbRyqzpXobV8a/Dv4K+EPhfqy6poNr9gv1Z2W43fOrf8B+/9+uu8QftdXOl30tjB4I1a8khj2yXVv5TQtL/ABbfn+7/AOPV5tXDSj8J2U60Zn05tFG0V5d8MviRpv8AwgOhza94gt/7VktVmuVurhPNR3+bY/8AtL938K6v/hZHhf8A6GDT/wDv+tcnJLsdJ020UbRXNf8ACxvDP/Qwad/4EpR/wsTwxt3f8JBpuF/6eko5ZdgOmorkvA/xC0n4h6bLfaQ8r28cmzMq7N3+1/u11tIAooooAKKKKACiiigAooooAKKKKACiiigAooooAKKKKACiiigAooooAKKKKACiiigAooooAKKKKACiiigAooooAKKKKACiiigAooooAKKKKACiiigAooooAKKKKACiiigAooooAKKKKACiiigAooooAKKKKACiiigAooooAKKKKACiiigAooooAKKKKACiiigAooooAKKKKACiiigAooooAKKKKACiiigAooooAKKKKACiiigAooooAKKKKACiiigAooooAKKKKACiiigAooooAKKKKACiiigAooooAKKKKACiiigAooooAKKKKACiiigAooooAKKKKACiiigAr4r/AOCgnizwzt8MeGNa1JdHu5opbu2u/O2FW3oqJt+9823/AMdr7Ur4u/bu+F+kfFLUodM1NNk39mI9tdIvz27+bL89RID4QvvtmlXX2HUWZGb54ri3ZNl0v+/XoXgz4l6v4b0P7DBPG6bt6u6/P9zZ/wCyV4UniHVfhpeXHgfxtF51l832O+f+H+46P/drrZHbw226e+gvLKVVe1uIW/1q1zSp/wApfN/Mesf8LR1q8+aXU5P+2K//ABNV08WNqUqRXMs9+jfwO29P/Hq+bZviXrWh+MNKW5kgm0y6dkaGGD7y/c310CftA6RZ65b2NzbSW1puXzbjbv2r/uLUSoyCMj3V/GDIu2C2bf8Aw16d8O/28rv4VtHY+LtQjvtM3KiQXT/vol/2XG7/AMfridS1X4N6r4Lu20jxZJea2tnvVEguN/m/7jJtf/x2vkL403jXOgxbraR5VlXdMkHybf8AfpUaK+KI5VJH7s/C/wCMHhf4u6Y974c1FbgxbfPt3+WaLP8AeT/2au/r8uP+CePjjT/CfxWeLW777HFeaK0EEtxL+6Vk2P8AM7fd+RK/SXRfHPh3xFdPa6Xrmn6ncqu9o7S5SVgv/ATXbzGZ0VFFFWAUUmRRkUALRRRQAUUUUAFFFFABRRRQAUUUUAFFFFABRRRQAUUUUAIBXyva/tjXNn4w8a+HL7w8bm40bVZ7WzuIWZIZYEfapZ/m+evX/jR8Vrb4W+HfPXy5dXvD5Vjbt/E/99v9la/Ov43/ABF1PwNob+IbZLabUNU1FvPmmX7zMju77P8AfropUub3pESlynsHhfxhc+OJ9Q1K5nUXTX0/npu+43mvW9eRtXwp8H/2lr7wr461C51OJXtNSnaWe0h+RPm/jSvtDw/4/wBD8bWaXmkXkFyjL8ybvnX/AH0rtjI5pGF8Qo9/hm9gb/l4XZXw54k+Gup215L9hi+0p/Cn8dfoLrelLrFm8G35GryXVfg/qtzK/kRLNW0Yx+0ZSPjyz+G/iG/uEii8PXM0rf8ATCu18PfA3V5ryJdVlttKTds8nzfNlb/gC19AWPwW1yaXylijTb/A8td34b+CbeHriK8vv30q/wACL92r5Yi5pHVfDTR7bwN4UstF09m+z2/3pm++zfxvXff2qzrtVq5qHTfJX91trM8Q+LdI8GWb3mq6hBZxfw72+dv+AURlyBynYTalBbRSyXNy0KRKzs+75FWuf8Pa3/bHhm31Wzl+zRXm64i85d/ys7un/jmyvlL4wfH6+8eLLpWlNJZ6J9xv4Jbr/f8A9n/Yr2r4I+LW/sPT9Mn+dPssUWz+78lXTqc0iJR5Dq7/AMYa1ptx5UqwOjfdfb8lVP8AhPta/ux7F/j21X8f28um/dffE33a8v1zxRPNZ/Zt33PuvT15iD1lPiFfO3zeRVpPiFffd/0Z/wDY218xTeJLmGXa07Ux/GFzCrt5tVzFn6A/sU39zf6N4laedXVZ1VIlb/Vfvbj5a+mP4q+P/wDgnHHJdfD/AMSag53LPexIP+Apu/8AZ6+wP4q8Ct/EkejT+EdRRRWRoFFFFABRRRQAUUUUAFFFFABRRRQAUUUUAFFFFABRRRQAUUUUAFFFFABRRRQAUUUUAFFFFABRRRQAUUUUAFFFFABRRRQAUUUUAFFFFABRRRQAUUUUAFFFFABRRRQAUUUUAFFFFABRRRQAUUUUAFFFFABRRRQAUUUUAFFFFABRRRQAUUUUAFFFFABRRRQAUUUUAFFFFABRRRQAUUUUAFFFFABRRRQAUUUUAFFFFABRRRQAUUUUAFFFFABRRRQAUUUUAFFFFABRRRQAUUUUAFFFFABRRRQAUUUUAFFFFABRRRQAUUUUAFFFFABRRRQAUUUUAFFFct498daN8OfCt94h165NlpVmqtPOsTORubb91fm70AdTRXyV4i/4KQfDbTg66Vput6xJ2/cJbo3/AH227/xyvLvFn/BTrUri1li8N+DLWxm2/LcanePPt/4AiJ/6FWftIgfoNXzD+1asWm65pt/PcwwwzWLw7ZH27dr/AP2dfCXir9sj4u+JJJXn8cahZq3/ACx0/Zaov/fr5q+V/jB4w1zxhqyXmq6vqGqyp/z/AFy8v/oVTzcwH1d8Y/8AhAvG3heWx1rWtPhuImle1mSdPNiavmbwvJeJ/wASye8+2WluzfZX/wBn/L15P9pb+Fq9b8AWzXNraSv/ABLL/wC0qsBvjPwqtjq3hm+VNWm81mRn1CCKK3X5N+yLb839779eY63D52vOv/TXZXuviTUpde0HR2bzNy3WyJP7u1Ja8VubZm8TbW/571YHqvwrtlk1bU927Z5TI3+zXofjbwboet/BbXb6eBv7bi3SwTea+xVXY/3P++64/wCGNtsvNQ/3WroNYsJ7zTdQsVZUS9i8re7P8vyf3KCDovhunk+MrKL+7a/+hf8A7Fe52F/eaPeRX1jcyWd3btvimt22OteH/D+Zf+EqdmZflVU+9/sP/wDF16nN4h0+2XdLeR/8AbfXh4yNSVT3Dvoyhy+8fW3wn/a1VjDpfjY+W/3V1aFfl/7ar/7MtfTun6jbapZxXVpPHcW0q7o5Y23Ky+tfkcnxCsby1+02cUlzFuZP7ldL4Z+O3jXwnYy23h/VLjSrKRt7W6y/J/wD+5XoYaniuX3onNUqUekj9VtwXrUEd1BLIY0ljZ1/hVq/HDxZ+1t4p1G8ntbm91a4liZkb7VfM1crpf7R3jDR9Yi1HRppLG/jbcssTNurXmqfyk+5/MfuHRXh/wCyr8ek/aB+FlprN1Ctprlq/wBk1O3UbUEq/wAaf7Lrhv8Avpf4a9wrcQUUUUAFFFFABRRRQAUUUUAFFFFABRRRQAg+7XJ/Er4gaZ8K/BWp+KNZ8z+zdPVGk8ldztudUX/x5hXQahqFtptrLc3k0drBGMvLM+xV/wCBV8M/t9/tTaBYabD8PPD0y+I9WulW4urbTm81F/55I7J/31t/3aqEOaQHB/FH402/jXxNqHinV7tNM0xT5VnDcN/q41+6v+/XhfxL+IUvxs8M/wDCNeFdDkmt/P8ANXU7v5Edl/giT+L/AD92ua8M/DHU/HOqJL4jl/tK7X5/sPm7LSwX/pq//sn/AKFXa+KvE9j8PdBfT9BZXu/K8qXUNuz/AIBEn8KVvVxPs/3dKPNI6fq0aMfa1vi7Hx/rf2zQdSlsdQiaHULOXY2z+Fq9F8GeJ7yzt7e5iuZ4Zdm/fCzpXlXjB5ZtWuJ5WaZ5Zd7O9dn4J1WD+y4oJW+daiPN9s4z6I8MftIeJdH2ebcx6ki/wXC//E13GpftRS+IfC+oaRLp8mmy3UWz7XYz/Ovz/wByvmlIYHo8nZ/E1bRqSiRKMT0P4aeKrP4deMP7aafVLl1bf9n81Njf7G/+7Xtuq/th3V4u220ONP8Abmut/wD7JXylGjfe82T/AL6qwnm/89W/76q/bSI9nE9o1v8AaK8VarsWCeDTU/6d1+f/AL7avPNU1i51iV5bmeS8lb/ltMzvWEnlJ/FRc6xBbL8zfJUc0p/EX7sSxCipKm7+Jq+jfhFM32i3218teD7yfxn4tSC2XfbxfOz7a+2/hF4P+x26zy/Iir/HXfRj7pzVPiOw+Je19Di3f3a+b/FWqxWErq38VexfEvxUs0vkRN8kXy15E/glfH9/+9vGs0XbFvX5/mb+P/gG2tpSMTzzUtcidvl+/WFqWqslq/zbK3vGHgy88L+V5+n7LK//AHtncTNvl2/P/dfb/wCOVw1yjfcb+Jq4JYnlOyNM/U//AIJu2rQ/AW7mf/lrq8u3/gMUS19XN0rxP9jvw3/wjP7OHgmBo/KmubVr1+PvCV2dT/3wy17We1ebKXNI6EOooooGFFFFABRRRQAUUUUAFFFFABRRRQAUUUUAFFFFABRRRQAUUUUAFFFFABRRRQAUUUUAFFFFABRRRQAUUUUAFFFFABRRRQAUUUUAFFFFABRRRQAUUUUAFFFFABRRRQAUUUUAFFFFABRRRQAUUUUAFFFFABRRRQAUUUUAFFFFABRRRQAUUUUAFFFFABRRRQAUUUUAFFFFABRRRQAUUUUAFFFFABRRRQAUUUUAFFFFABRRRQAUUUUAFFFFABRRRQAUUUUAFFFFABRRRQAUUUUAFFFFABRRRQAUUUUAFFFFABRRRQAUUUUAFFFFABRRRQAUUVhat400Dw+m7Vdc03TF/vXd5FEP/HmoA3a+Xv8AgoZr0vhv4C2t6hb7GPEOnRX8f/PS1dykq/8AfLV3niH9r74PeG2dLnx3pszr/DY77r/0UrV8i/tmftrfDv4ufCPWPBOh2OqX9xeMrRX0sSRQqyfMj/f3/e/2aiQHyn4/8JT+CfFF3pU+54k+e1m/56xN9x65p3q78S/2h4vH9xpkF9pUNhLbr8txC3/faf7tVIYfOVGVl2N92ub2cgM+5f5a888XWbebuWvW4dHW5+8zf8ArNvvD1jN8s6/J/vVtGMohzHgNzZtD8235K9h8B6lpmlaDpktzfQwu3mps3fP/AAfwV1Vt4X8Oaa3/AB42z/8AXVvNrQSbTLP5bazVP+uMSJXTykcxhPr2kWEX+jWN7c7W3q6QPsX/AHN1ec6wl9qV/b3K2Pk29vPLcN86b2Vn3/8AoFet3LwXn3rbfu/vtXR+FfhF4q8aSouh+E9Sv0+5vt7FnT/vuoAo+FbbQ7DSZb6xbUpri6X5ftCxRJF/wP593/jtVf7E09233l403+xNdO6f98LXtvgn9hz4sa9a2kFzoEOiOsC7v7TvIldP+AI7t/47XoXh/wD4J86hrtnqrR+OtEub6xZreWGxillVZ1Xd5Tt8lbRjyxIlHmPlqzfRdNZ/s0Co/wD07wIm6rdzrbfYPNgXyf8Af+eseaza2uHiZdjq2xqsTJ/xK6XOw9nEi8N699jtbhWg3+bLv+RtiV0CeM50i2xW0Cf7+9q4/Sl2K/8AvVpU416kSPZxPWPCXwo0/wAVaXb61PY+dd3W55dn3Pv7K7ix+Eun2C/8eNtD/vrXkuifFTWPD2jW+n2KqiRL8r1XvviL4j1Xf5t8ybv7ld8cbyx92KOSWF5payPu39kKODw/421XT4JY/KvrHf5Kf3on/wDs3r654Ffmn+wPNqWqfH6JprmSaG30y6ll3/8AAE/9nr9LOK86pUdSXMzvp0/Zx5UOooorM1CiiigAooooAKKKKACiiigBnTqKrXV1FZW8k88ixQxrueR22qq1xXxZ+Nvg74H+HJNZ8YazBplsq/u4i2+4nb+7FF95z9K/Or4vftU+Kf2odU/swQal4Z+Gjf6rRtOl2ahrP/XV/wCBP/HP977ynmbUqFStK0Trv22f2qj8adFvvAPw0s21Xw7bXluNY8Vf8uitv+REb+58u7f/ABbPk/vV4J8Pfh7Z6bpss9tK1tp7L/pmuTLvuLrbv3pb/wCz/n5q9V8P/CnxH48024a28Of8STQ7WW4tfDOjJst4FVN+x3/5ayv/ALzM399q8K+J3xU1zR9e8izlWz+x+VLAiQJ+4ZfufJ/sVx/WZSl7Kl9/+R6UvZYSPu+9I2/EnxOWGwTSNBs2sNMVtip/y1lb++/+1UvhvwTbala+bqv+k3Evz7Hb5Frx/RNY1C81JLzU/vytvXf/APEV7HoniRUVPmr2MLRhR3Pnq85zlznL+Nv2ctP17fLbStbS/wAOyvCvEPwu8T+A7h2+zSXluv8Ay2hXfX2VZ69FMvzP8laGy2vF/hrvlTjM5o1JRPg+28Zz23yy7kdP4K27bx/Ft+aWvrDW/hP4c15d15pFpcu38e3565G8/Zp8IXP3dMntv+uM71j7CRt7aJ4UnjmB1+aVaH8eWyfdlr2hP2YfCqN92+/3HnrVsP2cvCsLfLorXL/9NpXej2Eh+2ifOU3jyW5l8q2gaaVvu/7VdL4b+FHi/wAbSpLqCtpVl/E833/+AJ/8XX1BoPwus9FX/Q9KtrNf76RIlb39lW1gu6Wdd/8AcSto0f5jOVQyfgn8ItK8MW/yrsiX5mmb78rV6X4k8bRWFn9hsW2J9zelcJf+Kls7fyIG2VxWq+J97P8ANW3wGXxmnr2vec0rM9czo+q+Gk1K41WXxZJYar9juLJbTyndFlb5N/8A3y7t/wAArndb1qVom8pWmf8AuJ/FXGeKtK09LeLV7Hz7OWWXbPYzfwt/sPWMqhrGJ9Q/Az4W6d8XPihpHg2+1678S6VFuv2vVV7dorZYm3I6t9xt7xbf+B19C+OP+Cbnhm/vtKk8M6pd2MKXOb5NRl83dF/0y2p97/erm/8Agl14bZrXx14jlgX53tdPguGT5/lTfKm7/gUVffBOK8Sp70uY74+6UNL0uDR9NtNPtI1htbWJYIlX+FFXaorQoooAKKKKACiiigAooooAKKKKACiiigAooooAKKKKACiiigAooooAKKKKACiiigAooooAKKKKACiiigAooooAKKKKACiiigAooooAKKKKACiiigAooooAKKKKACiiigAooooAKKKKACiiigAooooAKKKKACiiigAooooAKKKKACiiigAooooAKKKKACiiigAooooAKKKKACiiigAooooAKKKKACiiigAooooAKKKKACiiigAooooAKKKKACiiigAooooAKKKKACiiigAooooAKKKKACiiigAooooAKKKKACiiigAooooAKKKKACiiigArjPixqU+j/DnxDeWt21hPFZuVvEb5oP8Ab/4D1rs64L46aa+sfBjx1ZQ/6ybRbxF/3vJeolsB+OPir49fE/XpLi11nxdrczIzJLDLfS7Eb/c31wU15qF/L5s8skzt/G7VoXmpNqrJfNt33UUUv/AmTfVfez1HLIjmK/l3Pl7t1VHs4vJeWWWtVLCe6basTPuWrdz4LvHtUbb97/ao5Q5jzTx4lm+g6e1mv+l287eb/ut/+xXo2iaxHHodpuVnfylrzHxhDLpV9qGntt+Xa/yNvruNBTfpdo3+zVx90D1v4b/Dvxn8WrqWLwn4audY8j5JZl/1UX++zbFWvZdK/wCCefxP8QTRT6r/AGPokX8X2u83bf8AgMW6ve/2H/Ddr4g/Zp+zLqc2jp/a15581o2x2/0fZ/47u3f8Ar3dPCXhHzPL1DULvW7hWV2+13Ly/dl2/wAPy/f/AIK6OWIHybpX7Afg7Qdsnir4lxvsZVe00uBUfd/327f+O16Non7LXwi8PW+mXdp4M1bxalxE0v8Apd4/m/K+z/VLtVvv17ppzeHLGG3/ALI8Prdy7UVbj7Kj7VZ3++/3vvJu/wC+K2f7V8R3i7bXTI7P5f8Al4/hqwPPvC/gm00eFLrw18LNA0dWdFimliTzV+b7zfJv+7XqulaTNpIuJpLu5vJ5U3fZ2b90rf8ATJf4ao32j61qV1KDqS2Nq33Ut1+dPkX+L/ZdS3/Aq2tL01dJtWgVmfdLLLvf/ad3qJAeN+A4bjXfg9rvirSHW58da1YTtPdK375Lj59lv/s+V91Vre/Z/v7a6+HltbQ6hp94LP8AdNb6fbPB9jO3/VSo7O3m/e3M1Ztj4w8MWdxqHiDwr4fhm1O8+z/2jNCyRPtk/wBU0u35f4v/AIqvQvAevN4q8P8A9pS2K2Ess8qND977srp83/fNOQz8bfE8e3xBqq/3bqX/ANDrPm/5BdavjBNnijW1/uXkqf8Aj71lTf8AINqJfEIzdN+6/wDvVfrP01/letPZ+6il/glXev8Au1AGxbaJPeLFtiZ9yK613HhX4D+LPFX/ACD9B1C8T+/DA+yv0H/ZY+HPhi3+CfgzVv7BsH1K605JZbqW3V5Wb/eavd441Rdqqqr/ALNUWfMH7Gv7OmpfCT+2Nf8AEEH2bVr+JLWC33bmiizufd/vNt/74r6kooqQCiiigAooooAKKKKACiiigApKWigD83f2pvgrp3iP9pPxD4j8Rampt7hbaLTtOjYXl2+21iXbb2/3IsvvO+X+L7qNXrnwd/ZRku1W81nT5PDOjyfN/Z/mebqF0v8A08S/8BT5f/HVr6Ytfh34fs/Fl/4mXS4H1u+2+bfSLvf5EVF25+78q/w11W35RXJKnKp8fw9ju+tSVP2cTM0Hw1pvhfTYtP0qzhsbKL7sMK4Ffj1+3P4F/wCFf/tGa1bpFssb2WLULX5f4Jfmb/vlty/8Br9m16V5j8Tv2e/APxe1TT9U8WeH4tVvrGNoYZnllTCk7trbGXcufWteW3wnHzM/IOw+GNp4t03+0LO+lTWF+f7O7fJXPzXN9oN19jvImtrhf79el/GjQZ/gv8Zta8OReZDaQXjLZzfxrF/B/wCObKZeeKNK8Saa8HiHT1mlVf3VxD/FXZSrRlHlkc8oy+yclZ+JJ7byt275l+V3/iroLDxgv/PWq/iTwHq/jCWLV9KltPs6xLFFYo3+qWuHvNN1rRf+P7T7m22/x7fkr0eaUTGXKeu23jDYvyy1oQ+PJ4V/1q14P/bzJ/FWwmm615VpPLKttaXFr9q85/n2xb0Tfs+9991rSNQj2Z7MnxInj+ZWX/vmkb4o3n/PfZXmvirw9beGLeKefxDPDFK2zfcadcRIzf8AfFS+D/Ddj4qsJZ7bVdQv3VmiV7HTHdN9bcxHKdrc+P57lPnuWf8A4FWVeeKt/wB6XfXGQ6DfTaDqur214tzaWE/lbNuyVvn2P8n8NVdN0fXNYZPIsZ3T++67ErH2kg5Tdv8AxPv/AIqqJbahqsVvLbRNcxT/ACK6fw/79dBpvwflmi83V7xYYv7iN/7PT9Kmg8AXksGkXn2+0l+/C6/IrVjKXL70jaP906Pwl4LsfDNn/auuS732/wCp3fe/2ErlPiR4D8Y+P9Ji8R6L4cvpvDkF01u1xbxO6Kypv2fL/v1U1vWNc8W+I9M0XT1a81XVJ1t4ET+FmfYiJX7E/CbwBZ/Cv4deH/C1pjytOtliZ/8AnpL96V/+BOWb8a46lfm92JtGny/EedfsXfC24+FP7Pvh7T9Rga31a+D6lfRTLtdJZf4G/wB1Qi/hXvVFFcxsFFFFABRRRQAUUUUAFFFFABRRRQAUUUUAFFFFABRRRQAUUUUAFFFFABRRRQAUUUUAFFFFABRRRQAUUUUAFFFFABRRRQAUUUUAFFFFABRRRQAUUUUAFFFFABRRRQAUUUUAFFFFABRRRQAUUUUAFFFFABRRRQAUUUUAFFFFABRRRQAUUUUAFFFFABRRRQAUUUUAFFFFABRRRQAUUUUAFFFFABRRRQAUUUUAFFFFABRRRQAUUUUAFFFFABRRRQAUUUUAFFFFABRRRQAUUUUAFFFFABRRRQAUUUUAFFFFABRRRQAUUUUAFFFFABRRRQAUUUUAFUNUs01TTLy0b7s8LxN/wJcVfooA/ns17zfA2qS6LcrvlsGltW/7ZSyr/wCyVmQ+Kp3bbFFXvf7Y3w9/4Rv48eKoJLZYoZdTuriL5fvpK6S/+1Xrxy201U+7EqVjTlzRIkUl8T65u2wfJUv2/Xrxdss/yVsw20UK/NtSobzUrWzT96ypWwHCax4YkkaW5lnZ38r5q7vw9D/xK7T/AK5LXJX+vJf3EsESs+6Btvy13Ggw7NLt9331WgD9Gv2D/sd58Bb2C709tVSLxFLtt/8AetUT/wBAZ6+k/wCz57GGJrHQdPhtLhN155q7Puv/ABbv9j+9Xyz+wfq1tbfBXxLFc6o+joutLtuURnZmaL7mxfvfdr6XsdWg+yy2Nno3irW0kdXMtxa/Z1+XZ/FP5Xy/LW5Jp/8AEwtdUikvPEC/Z/NR2sreLe/332J8v8Lf+y1euvH1j8i2dtc37tt2+TH8n8H3m/h+9/45WPZ6b4lk2QQeF9C0e0X7r31491L/AB/8slTb/G//AC1/irTj8K+I5j/p3i6SGHZ/qtJ0+K3Vf+BS+a1BRoWGq6vf3Fozaf8AZrdt3mpMvzxVs6fqFtqUPm2lzDdRbtvmW8iuteU69dfCvwrcSr4n8WW1zcL9631zXWuP/Jdn2/8AjlcTN+2N8GPh1Yppugyz3NrEzbbfR7Ham7/gWylygYvgyz8Q3P2Rv9Jf7VZqm+3sftEu6B08rzf3W1V2oi/f3f8AfFfRPgXTZdI8PrBPBLZu08srQzPuZd77vvb3/vf3q+PfEf8AwUokmSVPDXhGOJUZ0WbVLrd919n3E/8Aiq8S8eftvfFLxPp13bLrMelW8ysrJplssT/99fe/8epyJPJfGd5FeXvjC8iVd9rrtxEzq38O/wD+zrz+88WxbfI3fw1ofCv/AIqe88ZaDdXkds+pWvmwTTfxSr/n/wAcrx+5hlSWWK5lZJVb5v8AZrOX8xR2eoeMIrPw/dusuyVl2LXe6C7XPgXwveMv+ts9m/8A3a+d7xFms9qy73/uV9xf8E/9J8M/tAapovw+8ZWc01voNjcXVn9nl8rzWWVPkfb95dj/APjlQB+l/wCzD/yb34A/7BMH8q9SrL0HQ7Hw3o9npel20dlp9nEsMFvCvyxov8IrUoLCiiigAooooAKKKKACiiigAooooAKKKKACiiigAooooA/NX/gpf4dgt/iXo+pxR7Zbixillf8AvbHdP/QdtfMLvX3t/wAFJvBb6l4D8PeJoYWf+zbp7K5ZOiRTgbWb/gaL/wB9V+ecN5+5+9seuOp8RtEbD4nn0rXHs4mktnX7s0LV1th8TtVt12z+RqUX/TZfnrgtUX/ibWVzu+9EyN/wGrez/ab/AHK6Y1ZR+EiUYzO6ufFvhrUv+Qn4cj3f302Vy+pa9FrX737NsuLCKJINn3FiWVNn/j9YlzuSL5WZP+BU+O18lr396371bfaif7+//wBkq5YmXKRGjE73+2Jfida/2ZrV5bfZ4m+0L9rXem6sW21W8+HTXulaVeQfZ2n83db/AHGrH+xtt+61D23zJuVv+BtW31n3OUj2Ru2fieTSrqK8s4FR7zc91D/z1+f/AOLSt25+JGoTRfuIoLNP9hfnrhbP99pqTtKrusXlfI38XmvViGH/AHa444mpylyox5iXxD4tufsb3N5LJfy/wo7fJVjwy895YJc3O3fL91EX7q1j69YfbIooFX55ZVrrbWFba3SJf9Uq7FrGVWU/iNoxPfv2E/hWfGvx6l8S3EG/TfDFt5qt/B9qb5Yv03t/wCv03XpXzH+wP4LXw78GH1Z4Nl1rl/Lcb/70S/In/oLf99V9OLXRT+EzluLRRRWhIUUUUAFFFFABRRRQAUUUUAFFFFABRRRQAUUUUAFFFFABRRRQAUUUUAFFFFABRRRQAUUUUAFFFFABRRRQAUUUUAFFFFABRRRQAUUUUAFFFFABRRRQAUUUUAFFFFABRRRQAUUUUAFFFFABRRRQAUUUUAFFFFABRRRQAUUUUAFFFFABRRRQAUUUUAFFFFABRRRQAUUUUAFFFFABRRRQAUUUUAFFFFABRRRQAUUUUAFFFFABRRRQAUUUUAFFFFABRRRQAUUUUAFFFFABRRRQAUUUUAFFFFABRRRQAUUUUAFFFFABRRRQAUUUUAFFFFABRRRQAUUUUAfLX7TH7H03x68a6frNpq9rpKxweVN50TO7tx/7KtcfoP8AwTF8JQ7W1nxZql638S2cCQJ/49vr7U3UtTFcuwHzn4d/YN+DmgHE/h241hx/y01C8lP6JtWu/wDD/wCzn8L/AAqwbTfh/wCH4JU+7M+nRyy/99uGavTaKoD8l/8Agqt8IW+H/jzRPHei2i2+la95cN15S7FivIiv/fO+Lb/3w9fPNn/x7/8AAq/YD9r34HwftAfAnX/DPkrNqSqt9pjY+ZbqL5l2+7LvT/gdfmLN8BPiDYaHqGq/8IhrM1lYQS3U8y2r7EiXe7vvb/Y/gqftAe2fse/tPeGvgPoXiLT/ABBaahc/b5YriBrFUf7qsuz5mSvTvE3/AAUoX5k8OeDv92bVLr/2RP8A4qvgq23TRRSqrfMu+tXTdB1PWJ/I0+xnvLh/+WNvE7v/AOO10cxJ9AeKv27Pip4ib/RtVttBh/uaZap/6E29q8n8SfFrxf4wb/ideJdU1Ld/BcXjun/fFdR4T/ZX+KniyRPsPgzUoYv+e19F9lT/AMi7K9a8Mf8ABOn4g6kytq+o6RokX/XVriX/AL5VNv8A4/U8zA8F8H/Cvxj8RU83Q9DvtSiZtnnQxO6V7B4X/YP+JuvTQ/braDR4X+9NcSp8v/AfvV97fAn4UH4L/Daw8KvqH9qm0aVzdiDyt+9933Nzfzr0ilzDsfFvhH/gm54esbeP+3vE15fSlt7paRLGv/j3/wATW34+/wCCc/wy8W+B7nRtPm1DR9Xch7fWPtPmujL/AAvF8quv97o3+1X1vRUDPxA+Ln7K/j79nfWiNe0/ztK3bLbXtP3tay/8C/5ZN/svXkeoeElv7iWfz/nl+9vX71f0GahptprVjNZ3ttHdWk6bJYJ0DIyn+FlNeL69+xP8GfEEzSyeCrazdhz/AGfPLbr/AN8I239KAPxTsPhd9vuE3XSp8339u+v0d/4JyfBqHwT4iv8AXLS0kmt1sWtp9TmX70rOh8pa97039gf4N6beJcxaBevtP+qm1O4ZPy317voPh/TfC+k2+maRZQ2Gn2y7YreBdqJQBqUUUUAFFFFABRRRQAUUUUAFFFFABRRRQAUUUUAFFFFABRRRQBzvjTwbpPxC8K6l4d1u1W80rUYWhnhbuD/X/CvyW/aV/Zm8Q/s7eIndxPqnhK6fFjrG37v/AEyl/uy/+hfw1+xdY/ijwvpXjLQ7vRtbsIdU0q8Ty57W4Xcjr71Eo8wH4TveLNEn+y1S+du/i3/7lfYH7RP/AATn1rw3cXWu/DBn1rSfvtoMzf6Xb/8AXJ/+Wqf7P3v9+vjLUob7Qb+XT9Ts57DULdtktvdxeVLF/vo1Y8pZdZ12/wC3UU3zyxNu/wCXVd1UVul/hp/2n/VM3z/Lso5S+Y0EX5k2/wAP8FEyb/l+5VRLqpvti/8AfNMRa0eH7NYJ/tSs9ayPtrBS/wBkUStt+VflrT0e31DxJqUWn6VY3Oq6hL8kVpaRPK7f8AWs+UDQRl+1RO3/ACyVn/4FXr/7OvwG1n4+eMYoY45LPwvZy7tT1Pb8qr/zxT/bf/x371ep/AX/AIJ9694ga11T4iu2haXjf/Y1u+67n/33+7F/6H/u19/+FfCekeCNDttG0HT4NL0y2XbFbW67UUVcaZBPo+k2fh/SbLTdPgW1sbOJbeCJPuqijaq1p0UV0khRRRQAUUUUAFFFFABRRRQAUUUUAFFFFABRRRQAUUUUAFFFFABRRRQAUUUUAFFFFABRRRQAUUUUAFFFFABRRRQAUUUUAFFFFABRRRQAUUUUAFFFFABRRRQAUUUUAFFFFABRRRQAUUUUAFFFFABRRRQAUUUUAFFFFABRRRQAUUUUAFFFFABRRRQAUUUUAFFFFABRRRQAUUUUAFFFFABRRRQAUUUUAFFFFABRRRQAUUUUAFFFFABRRRQAUUUUAFFFFABRRRQAUUUUAFFFFABRRRQAUUUUAFFFFABRRRQAUUUUAFFFFABRRRQAUUUUAFFFFABRRRQAUUUUAFFFFABRRRQAVXmt47qJ4pUWWJl2sjL8rVYooA8m8P8A7LXwq8LzebY+CdNaX+9eK11j/v6Wr0bSdC03RLfydN0+0sIh0S0hWJfyWtOigAooooAKKKKACiiigAooooAKKKKACiiigAooooAKKKKACiiigAooooAKKKKACiiigAooooAKKKKACiiigArz74l/AvwL8YbH7L4v8M2OscfLcsmy4T/dlXDr/wB9V6DRQB8K+N/+CWXhLVJrifwp4u1XQGZt6299Al7Cn+wv3H2/8CavItY/4Jd/E6zkc6b4k8N30PVTNLcRN/3z5T1+o9FAH5Qp/wAE0fjN5m3z/DqD+/8A2i//AMarsvDf/BLHxhfTI3iDxto+nJ/EtjBLdt/495VfpZRQB8d+B/8AgmX8N9BkWTxDqms+KX/54yyraw/98xfN/wCP19KeA/hb4S+Gditn4Y8N6focKptZ7SBVd/8Aef7zf8CrsKKACiiigAooooAKKKKACiiigAooooAKKKKACiiigAooooAKKKKACiiigAooooAKKKKACiiigAooooAKKKKACiiigAooooAKKKKACiiigAooooAKKKKACiiigAooooAKKKKACiiigAooooAKKKKACiiigAooooAKKKKACiiigAooooAKKKKACiiigAooooAKKKKACiiigAooooAKKKKACiiigAooooAKKKKACiiigAooooAKKKKACiiigAooooAKKKKACiiigAooooAKKKKACiiigAooooAKKKKACiiigAooooAKKKKACiiigAooooAKKKKACiiigAooooAKKKKACiiigAooooAKKKKACvlK18H6nr1r8WPGcXjzxZo+v6HreqLp/wDxO7h9Mt0gRWiVrNnaBo/767P++a+ra8n1T9nTwVrV9qs9zBrJi1a6a+vtPHiC/WwuZX+/5lqs/ksrbRuQptb0oA890/8Aal1q6mWez8D3l9a2sOmvqaW9tfy3bS3NvDPKsCRWrxfuknT5XlXe277mNzbfg/4meLtHvJ5tW0m3vfDFz4wv9FTUm1Nnvot97LFbt5HlbfKV9kWzzdyr83+xXc6x8F/CPiLXLjVLzS5jNcS28lzbw3txDa3TQbfJee3V1im2hU++rfcVf4aLP4J+D9L8Q/21BY3guxqMusGJ9TuntftkhbfP9naTyt/zt8235c0AeOaH8bvFWj2upa5HYx6p4fsPBel6pb6Xd6k7XbXE89wmGlaL5mfZt3N/cT+81dLcfHHxvoOoa7DrPhDQ4rPQNT06y1Caz1uWZmivHiVHiVrddzJ53zb9u7Zx975O+X4I+D2jhgXS54raPS4tIEK31wqPaxOXiR13/MUZn2s3zfO3NaurfDDw7rTaw15p/mtrE9rc3xE8i+bJbOjwN975dpiT7uOlAHjXh/4165rnxLv7rStB1K40XUr240GAs1/LbwPavcIt66/ZfIiR5VdG2S/c8pm3N8iS/D343eL18J+E21/TNPvM+EovE2tat9rfcLfA37IhF80rL8+35Vr06z+DPhaz8SLrlvZ3S3cN/LqMcDX901rFcyqySypbGXyldg7/ADbOru38VWvDvwp8N+ElhXTbGXZDZf2XFHdXUtwq2u7d5X712+X/ANl+WgDi/g58adf+Ies21nq/hSbSra70z+04LyOK+8qP5k/cSvPaRJv2Sqy7Gbdtf+5ub22uA8I/B3wx4G1BL3RrW8juorP+z4HvdTurxba23K/lQrNK3lJlU+VNo+Rf7q139ABRRRQAUUUUAFFFFABRRRQAUUUUAFFFFABRRRQAUUUUAFFFFABRRRQAUUUUAFFFFABRRRQAUUUUAFFFFABRRRQAUUUUAFFFFABRRRQAUUUUAFFFFABRRRQAUUUUAFFFFABRRRQAUUUUAFFFFABRRRQAUUUUAFFFFABRRRQAUUUUAFFFFABRRRQAUUUUAFFFFABRRRQAUUUUAFFFFABRRRQAUUUUAFFFFABRRRQAUUUUAFFFFABRRRQAUUUUAFFFFABRRRQAUUUUAFFFFABRRRQAUUUUAFFFFABRRRQAUUUUAFFFFABRRRQAUUUUAFFFFABRRRQAUUUUAFFFFABRRRQAUUUUAFFFFABRRRQAUUUUAFFFFABRRRQAUUUUAFFFFABRRRQAUUUUAFFFFABRRRQAUUUUAFFFFABRRRQAUUUUAFFFFABRRRQAUUUUAFFFFABRRRQAUUUUAFFFFABRRRQAUUUUAFFFFABRRRQAUUUUAFFFFABRRRQAUUUUAFFFFABRRRQAUUUUAFFFFABRRRQAUUUUAFFFFABRRRQAUUUUAFFFFABRRRQAUUUUAFFFFABRRRQAUUUUAFFFFABRRRQAUUUUAFFFFABRRRQAUUUUAFFFFABRRRQAUUUUAFFFFABRRRQAUUUUAFFFFABRRRQAUUUUAFFFFABRRRQAUUUUAFFFFABRRRQAUUUUAFFFFABRRRQAUUUUAFFFFABRRRQAUUUUAf/Z;strokeColor=#26f72a;" vertex="1" parent="1">
          <mxGeometry x="-320" y="90" width="1383" height="658" as="geometry" />
        </mxCell>
        <mxCell id="EZYDx0uQIg0YGxupYuIt-4" value="&lt;font style=&quot;font-size: 8px;&quot;&gt;(D3)&lt;/font&gt;" style="text;html=1;align=center;verticalAlign=middle;resizable=0;points=[];autosize=1;strokeColor=none;fillColor=none;" vertex="1" parent="1">
          <mxGeometry x="280" y="300" width="40" height="30" as="geometry" />
        </mxCell>
        <mxCell id="EZYDx0uQIg0YGxupYuIt-5" value="&lt;font style=&quot;font-size: 8px;&quot;&gt;(D6)&lt;/font&gt;" style="text;html=1;align=center;verticalAlign=middle;resizable=0;points=[];autosize=1;rounded=0;glass=0;strokeColor=none;fillColor=default;" vertex="1" parent="1">
          <mxGeometry x="240" y="300" width="40" height="30" as="geometry" />
        </mxCell>
        <mxCell id="EZYDx0uQIg0YGxupYuIt-7" value="&lt;font style=&quot;font-size: 8px;&quot;&gt;(D7/D4)&lt;/font&gt;" style="text;html=1;align=center;verticalAlign=middle;resizable=0;points=[];autosize=1;rounded=0;glass=0;strokeColor=none;fillColor=default;" vertex="1" parent="1">
          <mxGeometry x="140" y="300" width="50" height="30" as="geometry" />
        </mxCell>
        <mxCell id="EZYDx0uQIg0YGxupYuIt-8" value="" style="rounded=0;whiteSpace=wrap;html=1;strokeColor=none;" vertex="1" parent="1">
          <mxGeometry x="700" y="90" width="210" height="240" as="geometry" />
        </mxCell>
        <mxCell id="EZYDx0uQIg0YGxupYuIt-10" value="&lt;font style=&quot;font-size: 8px;&quot;&gt;(D2)&lt;/font&gt;" style="rounded=0;whiteSpace=wrap;html=1;strokeColor=none;" vertex="1" parent="1">
          <mxGeometry x="50" y="460" width="70" height="20" as="geometry" />
        </mxCell>
        <mxCell id="EZYDx0uQIg0YGxupYuIt-2" value="" style="endArrow=none;html=1;rounded=0;strokeWidth=7;strokeColor=#26f72a;" edge="1" parent="1">
          <mxGeometry width="50" height="50" relative="1" as="geometry">
            <mxPoint x="110" y="460" as="sourcePoint" />
            <mxPoint x="-60" y="460" as="targetPoint" />
          </mxGeometry>
        </mxCell>
        <mxCell id="EZYDx0uQIg0YGxupYuIt-11" value="" style="endArrow=none;html=1;rounded=0;strokeWidth=5;strokeColor=#00FF00;" edge="1" parent="1">
          <mxGeometry width="50" height="50" relative="1" as="geometry">
            <mxPoint x="290" y="230" as="sourcePoint" />
            <mxPoint x="290" y="330" as="targetPoint" />
          </mxGeometry>
        </mxCell>
        <mxCell id="EZYDx0uQIg0YGxupYuIt-13" value="&lt;font style=&quot;font-size: 12px;&quot;&gt;3,3V&lt;/font&gt;" style="rounded=0;whiteSpace=wrap;html=1;strokeColor=none;" vertex="1" parent="1">
          <mxGeometry x="160" y="270" width="30" height="30" as="geometry" />
        </mxCell>
        <mxCell id="EZYDx0uQIg0YGxupYuIt-14" value="&lt;font style=&quot;font-size: 12px;&quot;&gt;SCL&lt;/font&gt;" style="rounded=0;whiteSpace=wrap;html=1;strokeColor=none;" vertex="1" parent="1">
          <mxGeometry x="240" y="270" width="30" height="30" as="geometry" />
        </mxCell>
        <mxCell id="EZYDx0uQIg0YGxupYuIt-15" value="&lt;font style=&quot;font-size: 12px;&quot;&gt;SDA&lt;/font&gt;" style="rounded=0;whiteSpace=wrap;html=1;strokeColor=none;" vertex="1" parent="1">
          <mxGeometry x="300" y="270" width="30" height="30" as="geometry" />
        </mxCell>
        <mxCell id="EZYDx0uQIg0YGxupYuIt-6" value="" style="endArrow=none;html=1;rounded=0;strokeWidth=5;strokeColor=#FFFF00;" edge="1" parent="1">
          <mxGeometry width="50" height="50" relative="1" as="geometry">
            <mxPoint x="270" y="230" as="sourcePoint" />
            <mxPoint x="270" y="330" as="targetPoint" />
          </mxGeometry>
        </mxCell>
        <mxCell id="EZYDx0uQIg0YGxupYuIt-16" value="" style="endArrow=none;html=1;rounded=0;strokeWidth=5;strokeColor=#000000;" edge="1" parent="1">
          <mxGeometry width="50" height="50" relative="1" as="geometry">
            <mxPoint x="-30" y="210" as="sourcePoint" />
            <mxPoint x="110" y="330" as="targetPoint" />
          </mxGeometry>
        </mxCell>
        <mxCell id="EZYDx0uQIg0YGxupYuIt-17" value="&lt;font style=&quot;font-size: 12px;&quot;&gt;GND&lt;/font&gt;" style="rounded=0;whiteSpace=wrap;html=1;strokeColor=none;" vertex="1" parent="1">
          <mxGeometry y="270" width="30" height="30" as="geometry" />
        </mxCell>
      </root>
    </mxGraphModel>
  </diagram>
</mxfile>
